<?xml version="1.0" encoding="UTF-8"?>
<svg xmlns="http://www.w3.org/2000/svg" xmlns:xlink="http://www.w3.org/1999/xlink" width="379pt" height="165pt" viewBox="0 0 379 165" version="1.1">
<g id="surface1">
<path style="fill:none;stroke-width:1;stroke-linecap:round;stroke-linejoin:round;stroke:rgb(0%,0%,0%);stroke-opacity:1;stroke-miterlimit:10;" d="M 8.075 246.5 L 30.575 246.5 L 30.575 269 L 8.075 269 Z M 8.075 246.5 " transform="matrix(1.25,0,0,1.25,-8.75,-217.5)"/>
<path style=" stroke:none;fill-rule:nonzero;fill:rgb(0%,0%,0%);fill-opacity:1;" d="M 16.164062 105.9375 L 16.164062 105.664062 C 15.988281 105.605469 15.910156 105.566406 15.832031 105.449219 L 14.152344 102.871094 L 15.285156 101.464844 C 15.5 101.210938 15.734375 101.074219 16.085938 101.015625 L 16.085938 100.742188 L 14.191406 100.742188 L 14.191406 101.015625 L 14.425781 101.035156 C 14.679688 101.074219 14.757812 101.113281 14.757812 101.289062 C 14.757812 101.464844 14.640625 101.621094 14.328125 102.011719 L 13.9375 102.519531 C 13.878906 102.460938 13.839844 102.402344 13.78125 102.34375 C 13.410156 101.855469 13.136719 101.386719 13.136719 101.230469 C 13.136719 101.09375 13.292969 101.035156 13.664062 101.015625 L 13.664062 100.742188 L 10.851562 100.742188 L 10.851562 101.015625 C 11.144531 101.074219 11.203125 101.113281 11.4375 101.464844 L 12.882812 103.671875 C 12.707031 103.886719 12.804688 103.769531 12.628906 103.984375 L 12.140625 104.628906 C 11.515625 105.46875 11.28125 105.644531 10.871094 105.664062 L 10.871094 105.9375 L 12.765625 105.9375 L 12.765625 105.664062 C 12.375 105.644531 12.21875 105.566406 12.21875 105.390625 C 12.21875 105.214844 12.492188 104.765625 12.921875 104.238281 C 13 104.160156 13.058594 104.082031 13.117188 104.023438 C 13.253906 104.257812 13.410156 104.492188 13.585938 104.726562 C 13.859375 105.117188 13.957031 105.3125 13.957031 105.449219 C 13.957031 105.585938 13.800781 105.644531 13.449219 105.664062 L 13.449219 105.9375 Z M 16.164062 105.9375 "/>
<path style=" stroke:none;fill-rule:nonzero;fill:rgb(0%,0%,0%);fill-opacity:1;" d="M 19.289062 110.9375 L 19.289062 110.820312 C 18.722656 110.820312 18.585938 110.683594 18.585938 110.371094 L 18.585938 105.898438 L 18.507812 105.859375 L 17.179688 106.542969 L 17.179688 106.660156 L 17.375 106.582031 C 17.511719 106.523438 17.628906 106.484375 17.707031 106.484375 C 17.863281 106.484375 17.941406 106.601562 17.941406 106.855469 L 17.941406 110.234375 C 17.941406 110.644531 17.785156 110.800781 17.21875 110.820312 L 17.21875 110.9375 Z M 19.289062 110.9375 "/>
<path style="fill-rule:nonzero;fill:rgb(69.803922%,85.098039%,100%);fill-opacity:1;stroke-width:1;stroke-linecap:round;stroke-linejoin:round;stroke:rgb(0%,0%,0%);stroke-opacity:1;stroke-miterlimit:10;" d="M 262.215625 213.796875 C 266.609375 218.1875 266.609375 225.3125 262.215625 229.703125 C 257.81875 234.096875 250.7 234.096875 246.30625 229.703125 C 241.9125 225.3125 241.9125 218.1875 246.30625 213.796875 C 250.7 209.403125 257.81875 209.403125 262.215625 213.796875 " transform="matrix(1.25,0,0,1.25,-8.75,-217.5)"/>
<path style="fill:none;stroke-width:1;stroke-linecap:round;stroke-linejoin:round;stroke:rgb(0%,0%,0%);stroke-opacity:1;stroke-miterlimit:10;" d="M 105.925 246.5 L 128.425 246.5 L 128.425 269 L 105.925 269 Z M 105.925 246.5 " transform="matrix(1.25,0,0,1.25,-8.75,-217.5)"/>
<path style=" stroke:none;fill-rule:nonzero;fill:rgb(0%,0%,0%);fill-opacity:1;" d="M 138.734375 106.5625 L 138.734375 106.289062 C 138.324219 106.289062 138.167969 106.09375 138.167969 105.585938 L 138.167969 102.773438 C 138.167969 101.875 137.640625 101.25 136.703125 101.25 C 136.117188 101.25 135.609375 101.445312 135.0625 102.109375 L 135.0625 98.964844 L 132.894531 98.964844 L 132.894531 99.21875 C 133.402344 99.335938 133.5 99.375 133.5 99.921875 L 133.5 105.566406 C 133.5 106.191406 133.402344 106.191406 132.894531 106.289062 L 132.894531 106.5625 L 135.589844 106.5625 L 135.589844 106.289062 C 135.179688 106.230469 135.0625 106.074219 135.0625 105.605469 L 135.0625 102.65625 C 135.0625 102.597656 135.140625 102.480469 135.257812 102.382812 C 135.492188 102.128906 135.765625 101.992188 136.039062 101.992188 C 136.46875 101.992188 136.605469 102.285156 136.605469 103.085938 L 136.605469 105.605469 C 136.605469 106.074219 136.46875 106.25 136.097656 106.289062 L 136.097656 106.5625 Z M 138.734375 106.5625 "/>
<path style=" stroke:none;fill-rule:nonzero;fill:rgb(0%,0%,0%);fill-opacity:1;" d="M 141.921875 110.3125 L 141.921875 110.195312 C 141.355469 110.195312 141.21875 110.058594 141.21875 109.746094 L 141.21875 105.273438 L 141.140625 105.234375 L 139.8125 105.917969 L 139.8125 106.035156 L 140.007812 105.957031 C 140.144531 105.898438 140.261719 105.859375 140.339844 105.859375 C 140.496094 105.859375 140.574219 105.976562 140.574219 106.230469 L 140.574219 109.609375 C 140.574219 110.019531 140.417969 110.175781 139.851562 110.195312 L 139.851562 110.3125 Z M 141.921875 110.3125 "/>
<path style="fill:none;stroke-width:1;stroke-linecap:round;stroke-linejoin:round;stroke:rgb(0%,0%,0%);stroke-opacity:1;stroke-miterlimit:10;" d="M 128.425 257.75 L 132.440625 257.75 M 150.04375 257.75 L 150.95625 257.75 " transform="matrix(1.25,0,0,1.25,-8.75,-217.5)"/>
<path style="fill:none;stroke-width:1;stroke-linecap:butt;stroke-linejoin:miter;stroke:rgb(0%,0%,0%);stroke-opacity:1;stroke-miterlimit:10;" d="M 154.95625 257.75 L 150.95625 257.75 M 150.95625 256.25 L 154.95625 257.75 L 150.95625 259.25 " transform="matrix(1.25,0,0,1.25,-8.75,-217.5)"/>
<path style="fill:none;stroke-width:1;stroke-linecap:round;stroke-linejoin:round;stroke:rgb(0%,0%,0%);stroke-opacity:1;stroke-miterlimit:10;" d="M 128.425 221.75 L 136.94375 221.75 M 147.94375 221.75 L 151.05625 221.75 " transform="matrix(1.25,0,0,1.25,-8.75,-217.5)"/>
<path style="fill:none;stroke-width:1;stroke-linecap:butt;stroke-linejoin:miter;stroke:rgb(0%,0%,0%);stroke-opacity:1;stroke-miterlimit:10;" d="M 155.05625 221.75 L 151.05625 221.75 M 151.05625 220.25 L 155.05625 221.75 L 151.05625 223.25 " transform="matrix(1.25,0,0,1.25,-8.75,-217.5)"/>
<path style="fill:none;stroke-width:1;stroke-linecap:round;stroke-linejoin:round;stroke:rgb(0%,0%,0%);stroke-opacity:1;stroke-miterlimit:10;" d="M 8.171875 210.5 L 30.671875 210.5 L 30.671875 233 L 8.171875 233 Z M 8.171875 210.5 " transform="matrix(1.25,0,0,1.25,-8.75,-217.5)"/>
<path style=" stroke:none;fill-rule:nonzero;fill:rgb(0%,0%,0%);fill-opacity:1;" d="M 16.289062 60.9375 L 16.289062 60.664062 C 16.113281 60.605469 16.035156 60.566406 15.957031 60.449219 L 14.277344 57.871094 L 15.410156 56.464844 C 15.625 56.210938 15.859375 56.074219 16.210938 56.015625 L 16.210938 55.742188 L 14.316406 55.742188 L 14.316406 56.015625 L 14.550781 56.035156 C 14.804688 56.074219 14.882812 56.113281 14.882812 56.289062 C 14.882812 56.464844 14.765625 56.621094 14.453125 57.011719 L 14.0625 57.519531 C 14.003906 57.460938 13.964844 57.402344 13.90625 57.34375 C 13.535156 56.855469 13.261719 56.386719 13.261719 56.230469 C 13.261719 56.09375 13.417969 56.035156 13.789062 56.015625 L 13.789062 55.742188 L 10.976562 55.742188 L 10.976562 56.015625 C 11.269531 56.074219 11.328125 56.113281 11.5625 56.464844 L 13.007812 58.671875 C 12.832031 58.886719 12.929688 58.769531 12.753906 58.984375 L 12.265625 59.628906 C 11.640625 60.46875 11.40625 60.644531 10.996094 60.664062 L 10.996094 60.9375 L 12.890625 60.9375 L 12.890625 60.664062 C 12.5 60.644531 12.34375 60.566406 12.34375 60.390625 C 12.34375 60.214844 12.617188 59.765625 13.046875 59.238281 C 13.125 59.160156 13.183594 59.082031 13.242188 59.023438 C 13.378906 59.257812 13.535156 59.492188 13.710938 59.726562 C 13.984375 60.117188 14.082031 60.3125 14.082031 60.449219 C 14.082031 60.585938 13.925781 60.644531 13.574219 60.664062 L 13.574219 60.9375 Z M 16.289062 60.9375 "/>
<path style=" stroke:none;fill-rule:nonzero;fill:rgb(0%,0%,0%);fill-opacity:1;" d="M 20.019531 64.902344 L 19.921875 64.863281 C 19.667969 65.292969 19.511719 65.371094 19.199219 65.371094 L 17.441406 65.371094 L 18.671875 64.042969 C 19.335938 63.339844 19.628906 62.773438 19.628906 62.1875 C 19.628906 61.445312 19.101562 60.859375 18.242188 60.859375 C 17.324219 60.859375 16.855469 61.484375 16.699219 62.363281 L 16.855469 62.402344 C 17.148438 61.660156 17.402344 61.425781 17.949219 61.425781 C 18.59375 61.425781 18.984375 61.796875 18.984375 62.480469 C 18.984375 63.125 18.730469 63.691406 18.007812 64.433594 L 16.679688 65.839844 L 16.679688 65.9375 L 19.609375 65.9375 Z M 20.019531 64.902344 "/>
<path style="fill:none;stroke-width:1;stroke-linecap:round;stroke-linejoin:round;stroke:rgb(0%,0%,0%);stroke-opacity:1;stroke-miterlimit:10;" d="M 8.171875 174.5 L 30.671875 174.5 L 30.671875 197 L 8.171875 197 Z M 8.171875 174.5 " transform="matrix(1.25,0,0,1.25,-8.75,-217.5)"/>
<path style=" stroke:none;fill-rule:nonzero;fill:rgb(0%,0%,0%);fill-opacity:1;" d="M 16.289062 15.9375 L 16.289062 15.664062 C 16.113281 15.605469 16.035156 15.566406 15.957031 15.449219 L 14.277344 12.871094 L 15.410156 11.464844 C 15.625 11.210938 15.859375 11.074219 16.210938 11.015625 L 16.210938 10.742188 L 14.316406 10.742188 L 14.316406 11.015625 L 14.550781 11.035156 C 14.804688 11.074219 14.882812 11.113281 14.882812 11.289062 C 14.882812 11.464844 14.765625 11.621094 14.453125 12.011719 L 14.0625 12.519531 C 14.003906 12.460938 13.964844 12.402344 13.90625 12.34375 C 13.535156 11.855469 13.261719 11.386719 13.261719 11.230469 C 13.261719 11.09375 13.417969 11.035156 13.789062 11.015625 L 13.789062 10.742188 L 10.976562 10.742188 L 10.976562 11.015625 C 11.269531 11.074219 11.328125 11.113281 11.5625 11.464844 L 13.007812 13.671875 C 12.832031 13.886719 12.929688 13.769531 12.753906 13.984375 L 12.265625 14.628906 C 11.640625 15.46875 11.40625 15.644531 10.996094 15.664062 L 10.996094 15.9375 L 12.890625 15.9375 L 12.890625 15.664062 C 12.5 15.644531 12.34375 15.566406 12.34375 15.390625 C 12.34375 15.214844 12.617188 14.765625 13.046875 14.238281 C 13.125 14.160156 13.183594 14.082031 13.242188 14.023438 C 13.378906 14.257812 13.535156 14.492188 13.710938 14.726562 C 13.984375 15.117188 14.082031 15.3125 14.082031 15.449219 C 14.082031 15.585938 13.925781 15.644531 13.574219 15.664062 L 13.574219 15.9375 Z M 16.289062 15.9375 "/>
<path style=" stroke:none;fill-rule:nonzero;fill:rgb(0%,0%,0%);fill-opacity:1;" d="M 16.914062 17.109375 C 17.226562 16.5625 17.578125 16.308594 18.046875 16.308594 C 18.535156 16.308594 18.847656 16.582031 18.847656 17.089844 C 18.847656 17.539062 18.613281 17.871094 18.242188 18.085938 C 18.085938 18.183594 17.890625 18.261719 17.617188 18.359375 L 17.617188 18.457031 C 18.046875 18.457031 18.203125 18.476562 18.378906 18.535156 C 18.886719 18.691406 19.160156 19.0625 19.160156 19.628906 C 19.160156 20.253906 18.730469 20.78125 18.183594 20.78125 C 17.96875 20.78125 17.8125 20.742188 17.539062 20.546875 C 17.324219 20.390625 17.207031 20.351562 17.070312 20.351562 C 16.914062 20.351562 16.777344 20.449219 16.777344 20.605469 C 16.777344 20.878906 17.070312 21.035156 17.617188 21.035156 C 18.28125 21.035156 18.984375 20.820312 19.355469 20.351562 C 19.570312 20.058594 19.707031 19.6875 19.707031 19.296875 C 19.707031 18.90625 19.570312 18.554688 19.375 18.320312 C 19.21875 18.164062 19.082031 18.066406 18.75 17.929688 C 19.238281 17.636719 19.433594 17.246094 19.433594 16.894531 C 19.433594 16.289062 18.964844 15.859375 18.28125 15.859375 C 17.5 15.859375 17.011719 16.367188 16.796875 17.089844 Z M 16.914062 17.109375 "/>
<path style="fill:none;stroke-width:1;stroke-linecap:round;stroke-linejoin:round;stroke:rgb(0%,0%,0%);stroke-opacity:1;stroke-miterlimit:10;" d="M 105.925 210.5 L 128.425 210.5 L 128.425 233 L 105.925 233 Z M 105.925 210.5 " transform="matrix(1.25,0,0,1.25,-8.75,-217.5)"/>
<path style=" stroke:none;fill-rule:nonzero;fill:rgb(0%,0%,0%);fill-opacity:1;" d="M 138.734375 61.5625 L 138.734375 61.289062 C 138.324219 61.289062 138.167969 61.09375 138.167969 60.585938 L 138.167969 57.773438 C 138.167969 56.875 137.640625 56.25 136.703125 56.25 C 136.117188 56.25 135.609375 56.445312 135.0625 57.109375 L 135.0625 53.964844 L 132.894531 53.964844 L 132.894531 54.21875 C 133.402344 54.335938 133.5 54.375 133.5 54.921875 L 133.5 60.566406 C 133.5 61.191406 133.402344 61.191406 132.894531 61.289062 L 132.894531 61.5625 L 135.589844 61.5625 L 135.589844 61.289062 C 135.179688 61.230469 135.0625 61.074219 135.0625 60.605469 L 135.0625 57.65625 C 135.0625 57.597656 135.140625 57.480469 135.257812 57.382812 C 135.492188 57.128906 135.765625 56.992188 136.039062 56.992188 C 136.46875 56.992188 136.605469 57.285156 136.605469 58.085938 L 136.605469 60.605469 C 136.605469 61.074219 136.46875 61.25 136.097656 61.289062 L 136.097656 61.5625 Z M 138.734375 61.5625 "/>
<path style=" stroke:none;fill-rule:nonzero;fill:rgb(0%,0%,0%);fill-opacity:1;" d="M 142.527344 64.277344 L 142.429688 64.238281 C 142.175781 64.667969 142.019531 64.746094 141.707031 64.746094 L 139.949219 64.746094 L 141.179688 63.417969 C 141.84375 62.714844 142.136719 62.148438 142.136719 61.5625 C 142.136719 60.820312 141.609375 60.234375 140.75 60.234375 C 139.832031 60.234375 139.363281 60.859375 139.207031 61.738281 L 139.363281 61.777344 C 139.65625 61.035156 139.910156 60.800781 140.457031 60.800781 C 141.101562 60.800781 141.492188 61.171875 141.492188 61.855469 C 141.492188 62.5 141.238281 63.066406 140.515625 63.808594 L 139.1875 65.214844 L 139.1875 65.3125 L 142.117188 65.3125 Z M 142.527344 64.277344 "/>
<path style="fill:none;stroke-width:1;stroke-linecap:round;stroke-linejoin:round;stroke:rgb(0%,0%,0%);stroke-opacity:1;stroke-miterlimit:10;" d="M 106.028125 174.5 L 128.528125 174.5 L 128.528125 197 L 106.028125 197 Z M 106.028125 174.5 " transform="matrix(1.25,0,0,1.25,-8.75,-217.5)"/>
<path style=" stroke:none;fill-rule:nonzero;fill:rgb(0%,0%,0%);fill-opacity:1;" d="M 138.859375 16.5625 L 138.859375 16.289062 C 138.449219 16.289062 138.292969 16.09375 138.292969 15.585938 L 138.292969 12.773438 C 138.292969 11.875 137.765625 11.25 136.828125 11.25 C 136.242188 11.25 135.734375 11.445312 135.1875 12.109375 L 135.1875 8.964844 L 133.019531 8.964844 L 133.019531 9.21875 C 133.527344 9.335938 133.625 9.375 133.625 9.921875 L 133.625 15.566406 C 133.625 16.191406 133.527344 16.191406 133.019531 16.289062 L 133.019531 16.5625 L 135.714844 16.5625 L 135.714844 16.289062 C 135.304688 16.230469 135.1875 16.074219 135.1875 15.605469 L 135.1875 12.65625 C 135.1875 12.597656 135.265625 12.480469 135.382812 12.382812 C 135.617188 12.128906 135.890625 11.992188 136.164062 11.992188 C 136.59375 11.992188 136.730469 12.285156 136.730469 13.085938 L 136.730469 15.605469 C 136.730469 16.074219 136.59375 16.25 136.222656 16.289062 L 136.222656 16.5625 Z M 138.859375 16.5625 "/>
<path style=" stroke:none;fill-rule:nonzero;fill:rgb(0%,0%,0%);fill-opacity:1;" d="M 139.546875 16.484375 C 139.859375 15.9375 140.210938 15.683594 140.679688 15.683594 C 141.167969 15.683594 141.480469 15.957031 141.480469 16.464844 C 141.480469 16.914062 141.246094 17.246094 140.875 17.460938 C 140.71875 17.558594 140.523438 17.636719 140.25 17.734375 L 140.25 17.832031 C 140.679688 17.832031 140.835938 17.851562 141.011719 17.910156 C 141.519531 18.066406 141.792969 18.4375 141.792969 19.003906 C 141.792969 19.628906 141.363281 20.15625 140.816406 20.15625 C 140.601562 20.15625 140.445312 20.117188 140.171875 19.921875 C 139.957031 19.765625 139.839844 19.726562 139.703125 19.726562 C 139.546875 19.726562 139.410156 19.824219 139.410156 19.980469 C 139.410156 20.253906 139.703125 20.410156 140.25 20.410156 C 140.914062 20.410156 141.617188 20.195312 141.988281 19.726562 C 142.203125 19.433594 142.339844 19.0625 142.339844 18.671875 C 142.339844 18.28125 142.203125 17.929688 142.007812 17.695312 C 141.851562 17.539062 141.714844 17.441406 141.382812 17.304688 C 141.871094 17.011719 142.066406 16.621094 142.066406 16.269531 C 142.066406 15.664062 141.597656 15.234375 140.914062 15.234375 C 140.132812 15.234375 139.644531 15.742188 139.429688 16.464844 Z M 139.546875 16.484375 "/>
<path style="fill:none;stroke-width:1;stroke-linecap:round;stroke-linejoin:round;stroke:rgb(0%,0%,0%);stroke-opacity:1;stroke-miterlimit:10;" d="M 199.78125 246.5 L 222.28125 246.5 L 222.28125 269 L 199.78125 269 Z M 199.78125 246.5 " transform="matrix(1.25,0,0,1.25,-8.75,-217.5)"/>
<path style=" stroke:none;fill-rule:nonzero;fill:rgb(0%,0%,0%);fill-opacity:1;" d="M 255.707031 103.984375 C 255.707031 102.382812 254.632812 101.25 253.207031 101.25 C 251.722656 101.25 250.628906 102.363281 250.628906 104.003906 C 250.628906 105.585938 251.761719 106.71875 253.167969 106.71875 C 254.613281 106.71875 255.707031 105.566406 255.707031 103.984375 Z M 254.066406 104.101562 C 254.066406 105.78125 253.832031 106.367188 253.1875 106.367188 C 252.523438 106.367188 252.289062 105.742188 252.289062 104.101562 C 252.289062 102.1875 252.484375 101.582031 253.1875 101.582031 C 253.851562 101.582031 254.066406 102.1875 254.066406 104.101562 Z M 254.066406 104.101562 "/>
<path style=" stroke:none;fill-rule:nonzero;fill:rgb(0%,0%,0%);fill-opacity:1;" d="M 258.929688 110.3125 L 258.929688 110.195312 C 258.363281 110.195312 258.226562 110.058594 258.226562 109.746094 L 258.226562 105.273438 L 258.148438 105.234375 L 256.820312 105.917969 L 256.820312 106.035156 L 257.015625 105.957031 C 257.152344 105.898438 257.269531 105.859375 257.347656 105.859375 C 257.503906 105.859375 257.582031 105.976562 257.582031 106.230469 L 257.582031 109.609375 C 257.582031 110.019531 257.425781 110.175781 256.859375 110.195312 L 256.859375 110.3125 Z M 258.929688 110.3125 "/>
<path style="fill:none;stroke-width:1;stroke-linecap:round;stroke-linejoin:round;stroke:rgb(0%,0%,0%);stroke-opacity:1;stroke-miterlimit:10;" d="M 199.984375 210.5 L 222.484375 210.5 L 222.484375 233 L 199.984375 233 Z M 199.984375 210.5 " transform="matrix(1.25,0,0,1.25,-8.75,-217.5)"/>
<path style=" stroke:none;fill-rule:nonzero;fill:rgb(0%,0%,0%);fill-opacity:1;" d="M 255.957031 58.984375 C 255.957031 57.382812 254.882812 56.25 253.457031 56.25 C 251.972656 56.25 250.878906 57.363281 250.878906 59.003906 C 250.878906 60.585938 252.011719 61.71875 253.417969 61.71875 C 254.863281 61.71875 255.957031 60.566406 255.957031 58.984375 Z M 254.316406 59.101562 C 254.316406 60.78125 254.082031 61.367188 253.4375 61.367188 C 252.773438 61.367188 252.539062 60.742188 252.539062 59.101562 C 252.539062 57.1875 252.734375 56.582031 253.4375 56.582031 C 254.101562 56.582031 254.316406 57.1875 254.316406 59.101562 Z M 254.316406 59.101562 "/>
<path style=" stroke:none;fill-rule:nonzero;fill:rgb(0%,0%,0%);fill-opacity:1;" d="M 259.785156 64.277344 L 259.6875 64.238281 C 259.433594 64.667969 259.277344 64.746094 258.964844 64.746094 L 257.207031 64.746094 L 258.4375 63.417969 C 259.101562 62.714844 259.394531 62.148438 259.394531 61.5625 C 259.394531 60.820312 258.867188 60.234375 258.007812 60.234375 C 257.089844 60.234375 256.621094 60.859375 256.464844 61.738281 L 256.621094 61.777344 C 256.914062 61.035156 257.167969 60.800781 257.714844 60.800781 C 258.359375 60.800781 258.75 61.171875 258.75 61.855469 C 258.75 62.5 258.496094 63.066406 257.773438 63.808594 L 256.445312 65.214844 L 256.445312 65.3125 L 259.375 65.3125 Z M 259.785156 64.277344 "/>
<path style="fill:none;stroke-width:1;stroke-linecap:round;stroke-linejoin:round;stroke:rgb(0%,0%,0%);stroke-opacity:1;stroke-miterlimit:10;" d="M 199.88125 174.5 L 222.38125 174.5 L 222.38125 197 L 199.88125 197 Z M 199.88125 174.5 " transform="matrix(1.25,0,0,1.25,-8.75,-217.5)"/>
<path style=" stroke:none;fill-rule:nonzero;fill:rgb(0%,0%,0%);fill-opacity:1;" d="M 255.832031 13.984375 C 255.832031 12.382812 254.757812 11.25 253.332031 11.25 C 251.847656 11.25 250.753906 12.363281 250.753906 14.003906 C 250.753906 15.585938 251.886719 16.71875 253.292969 16.71875 C 254.738281 16.71875 255.832031 15.566406 255.832031 13.984375 Z M 254.191406 14.101562 C 254.191406 15.78125 253.957031 16.367188 253.3125 16.367188 C 252.648438 16.367188 252.414062 15.742188 252.414062 14.101562 C 252.414062 12.1875 252.609375 11.582031 253.3125 11.582031 C 253.976562 11.582031 254.191406 12.1875 254.191406 14.101562 Z M 254.191406 14.101562 "/>
<path style=" stroke:none;fill-rule:nonzero;fill:rgb(0%,0%,0%);fill-opacity:1;" d="M 256.554688 16.484375 C 256.867188 15.9375 257.21875 15.683594 257.6875 15.683594 C 258.175781 15.683594 258.488281 15.957031 258.488281 16.464844 C 258.488281 16.914062 258.253906 17.246094 257.882812 17.460938 C 257.726562 17.558594 257.53125 17.636719 257.257812 17.734375 L 257.257812 17.832031 C 257.6875 17.832031 257.84375 17.851562 258.019531 17.910156 C 258.527344 18.066406 258.800781 18.4375 258.800781 19.003906 C 258.800781 19.628906 258.371094 20.15625 257.824219 20.15625 C 257.609375 20.15625 257.453125 20.117188 257.179688 19.921875 C 256.964844 19.765625 256.847656 19.726562 256.710938 19.726562 C 256.554688 19.726562 256.417969 19.824219 256.417969 19.980469 C 256.417969 20.253906 256.710938 20.410156 257.257812 20.410156 C 257.921875 20.410156 258.625 20.195312 258.996094 19.726562 C 259.210938 19.433594 259.347656 19.0625 259.347656 18.671875 C 259.347656 18.28125 259.210938 17.929688 259.015625 17.695312 C 258.859375 17.539062 258.722656 17.441406 258.390625 17.304688 C 258.878906 17.011719 259.074219 16.621094 259.074219 16.269531 C 259.074219 15.664062 258.605469 15.234375 257.921875 15.234375 C 257.140625 15.234375 256.652344 15.742188 256.4375 16.464844 Z M 256.554688 16.484375 "/>
<path style="fill:none;stroke-width:1;stroke-linecap:round;stroke-linejoin:round;stroke:rgb(0%,0%,0%);stroke-opacity:1;stroke-miterlimit:10;" d="M 286.0375 246.5 L 308.5375 246.5 L 308.5375 269 L 286.0375 269 Z M 286.0375 246.5 " transform="matrix(1.25,0,0,1.25,-8.75,-217.5)"/>
<path style=" stroke:none;fill-rule:nonzero;fill:rgb(0%,0%,0%);fill-opacity:1;" d="M 363.523438 100.878906 L 362.019531 100.878906 L 362.019531 101.035156 C 362.371094 101.035156 362.527344 101.132812 362.527344 101.308594 C 362.527344 101.367188 362.527344 101.445312 362.488281 101.523438 L 361.394531 104.628906 L 360.144531 101.816406 C 360.066406 101.660156 359.988281 101.464844 359.988281 101.347656 C 359.988281 101.152344 360.144531 101.074219 360.632812 101.035156 L 360.632812 100.878906 L 358.328125 100.878906 L 358.328125 101.035156 C 358.621094 101.074219 358.816406 101.171875 358.933594 101.425781 L 360.417969 104.589844 C 360.632812 105.039062 360.886719 105.566406 360.886719 105.742188 C 360.886719 105.917969 360.652344 106.621094 360.4375 106.953125 C 360.261719 107.226562 360.027344 107.441406 359.871094 107.441406 C 359.8125 107.441406 359.695312 107.441406 359.578125 107.363281 C 359.382812 107.246094 359.1875 107.226562 358.992188 107.226562 C 358.71875 107.226562 358.503906 107.460938 358.503906 107.734375 C 358.503906 108.105469 358.816406 108.398438 359.304688 108.398438 C 360.144531 108.398438 360.671875 107.8125 361.257812 106.210938 L 362.957031 101.621094 C 363.113281 101.210938 363.25 101.074219 363.523438 101.035156 Z M 363.523438 100.878906 "/>
<path style=" stroke:none;fill-rule:nonzero;fill:rgb(0%,0%,0%);fill-opacity:1;" d="M 366.746094 110.9375 L 366.746094 110.820312 C 366.179688 110.820312 366.042969 110.683594 366.042969 110.371094 L 366.042969 105.898438 L 365.964844 105.859375 L 364.636719 106.542969 L 364.636719 106.660156 L 364.832031 106.582031 C 364.96875 106.523438 365.085938 106.484375 365.164062 106.484375 C 365.320312 106.484375 365.398438 106.601562 365.398438 106.855469 L 365.398438 110.234375 C 365.398438 110.644531 365.242188 110.800781 364.675781 110.820312 L 364.675781 110.9375 Z M 366.746094 110.9375 "/>
<path style="fill:none;stroke-width:1;stroke-linecap:round;stroke-linejoin:round;stroke:rgb(0%,0%,0%);stroke-opacity:1;stroke-miterlimit:10;" d="M 286.0375 210.5 L 308.5375 210.5 L 308.5375 233 L 286.0375 233 Z M 286.0375 210.5 " transform="matrix(1.25,0,0,1.25,-8.75,-217.5)"/>
<path style=" stroke:none;fill-rule:nonzero;fill:rgb(0%,0%,0%);fill-opacity:1;" d="M 363.523438 55.878906 L 362.019531 55.878906 L 362.019531 56.035156 C 362.371094 56.035156 362.527344 56.132812 362.527344 56.308594 C 362.527344 56.367188 362.527344 56.445312 362.488281 56.523438 L 361.394531 59.628906 L 360.144531 56.816406 C 360.066406 56.660156 359.988281 56.464844 359.988281 56.347656 C 359.988281 56.152344 360.144531 56.074219 360.632812 56.035156 L 360.632812 55.878906 L 358.328125 55.878906 L 358.328125 56.035156 C 358.621094 56.074219 358.816406 56.171875 358.933594 56.425781 L 360.417969 59.589844 C 360.632812 60.039062 360.886719 60.566406 360.886719 60.742188 C 360.886719 60.917969 360.652344 61.621094 360.4375 61.953125 C 360.261719 62.226562 360.027344 62.441406 359.871094 62.441406 C 359.8125 62.441406 359.695312 62.441406 359.578125 62.363281 C 359.382812 62.246094 359.1875 62.226562 358.992188 62.226562 C 358.71875 62.226562 358.503906 62.460938 358.503906 62.734375 C 358.503906 63.105469 358.816406 63.398438 359.304688 63.398438 C 360.144531 63.398438 360.671875 62.8125 361.257812 61.210938 L 362.957031 56.621094 C 363.113281 56.210938 363.25 56.074219 363.523438 56.035156 Z M 363.523438 55.878906 "/>
<path style=" stroke:none;fill-rule:nonzero;fill:rgb(0%,0%,0%);fill-opacity:1;" d="M 367.351562 64.902344 L 367.253906 64.863281 C 367 65.292969 366.84375 65.371094 366.53125 65.371094 L 364.773438 65.371094 L 366.003906 64.042969 C 366.667969 63.339844 366.960938 62.773438 366.960938 62.1875 C 366.960938 61.445312 366.433594 60.859375 365.574219 60.859375 C 364.65625 60.859375 364.1875 61.484375 364.03125 62.363281 L 364.1875 62.402344 C 364.480469 61.660156 364.734375 61.425781 365.28125 61.425781 C 365.925781 61.425781 366.316406 61.796875 366.316406 62.480469 C 366.316406 63.125 366.0625 63.691406 365.339844 64.433594 L 364.011719 65.839844 L 364.011719 65.9375 L 366.941406 65.9375 Z M 367.351562 64.902344 "/>
<path style="fill:none;stroke-width:1;stroke-linecap:round;stroke-linejoin:round;stroke:rgb(0%,0%,0%);stroke-opacity:1;stroke-miterlimit:10;" d="M 285.7375 174.5 L 308.2375 174.5 L 308.2375 197 L 285.7375 197 Z M 285.7375 174.5 " transform="matrix(1.25,0,0,1.25,-8.75,-217.5)"/>
<path style=" stroke:none;fill-rule:nonzero;fill:rgb(0%,0%,0%);fill-opacity:1;" d="M 363.148438 10.878906 L 361.644531 10.878906 L 361.644531 11.035156 C 361.996094 11.035156 362.152344 11.132812 362.152344 11.308594 C 362.152344 11.367188 362.152344 11.445312 362.113281 11.523438 L 361.019531 14.628906 L 359.769531 11.816406 C 359.691406 11.660156 359.613281 11.464844 359.613281 11.347656 C 359.613281 11.152344 359.769531 11.074219 360.257812 11.035156 L 360.257812 10.878906 L 357.953125 10.878906 L 357.953125 11.035156 C 358.246094 11.074219 358.441406 11.171875 358.558594 11.425781 L 360.042969 14.589844 C 360.257812 15.039062 360.511719 15.566406 360.511719 15.742188 C 360.511719 15.917969 360.277344 16.621094 360.0625 16.953125 C 359.886719 17.226562 359.652344 17.441406 359.496094 17.441406 C 359.4375 17.441406 359.320312 17.441406 359.203125 17.363281 C 359.007812 17.246094 358.8125 17.226562 358.617188 17.226562 C 358.34375 17.226562 358.128906 17.460938 358.128906 17.734375 C 358.128906 18.105469 358.441406 18.398438 358.929688 18.398438 C 359.769531 18.398438 360.296875 17.8125 360.882812 16.210938 L 362.582031 11.621094 C 362.738281 11.210938 362.875 11.074219 363.148438 11.035156 Z M 363.148438 10.878906 "/>
<path style=" stroke:none;fill-rule:nonzero;fill:rgb(0%,0%,0%);fill-opacity:1;" d="M 363.871094 17.109375 C 364.183594 16.5625 364.535156 16.308594 365.003906 16.308594 C 365.492188 16.308594 365.804688 16.582031 365.804688 17.089844 C 365.804688 17.539062 365.570312 17.871094 365.199219 18.085938 C 365.042969 18.183594 364.847656 18.261719 364.574219 18.359375 L 364.574219 18.457031 C 365.003906 18.457031 365.160156 18.476562 365.335938 18.535156 C 365.84375 18.691406 366.117188 19.0625 366.117188 19.628906 C 366.117188 20.253906 365.6875 20.78125 365.140625 20.78125 C 364.925781 20.78125 364.769531 20.742188 364.496094 20.546875 C 364.28125 20.390625 364.164062 20.351562 364.027344 20.351562 C 363.871094 20.351562 363.734375 20.449219 363.734375 20.605469 C 363.734375 20.878906 364.027344 21.035156 364.574219 21.035156 C 365.238281 21.035156 365.941406 20.820312 366.3125 20.351562 C 366.527344 20.058594 366.664062 19.6875 366.664062 19.296875 C 366.664062 18.90625 366.527344 18.554688 366.332031 18.320312 C 366.175781 18.164062 366.039062 18.066406 365.707031 17.929688 C 366.195312 17.636719 366.390625 17.246094 366.390625 16.894531 C 366.390625 16.289062 365.921875 15.859375 365.238281 15.859375 C 364.457031 15.859375 363.96875 16.367188 363.753906 17.089844 Z M 363.871094 17.109375 "/>
<path style="fill:none;stroke-width:1;stroke-linecap:round;stroke-linejoin:round;stroke:rgb(0%,0%,0%);stroke-opacity:1;stroke-miterlimit:10;" d="M 105.925 282.5 L 128.425 282.5 L 128.425 305 L 105.925 305 Z M 105.925 282.5 " transform="matrix(1.25,0,0,1.25,-8.75,-217.5)"/>
<path style=" stroke:none;fill-rule:nonzero;fill:rgb(0%,0%,0%);fill-opacity:1;" d="M 138.734375 151.5625 L 138.734375 151.289062 C 138.324219 151.289062 138.167969 151.09375 138.167969 150.585938 L 138.167969 147.773438 C 138.167969 146.875 137.640625 146.25 136.703125 146.25 C 136.117188 146.25 135.609375 146.445312 135.0625 147.109375 L 135.0625 143.964844 L 132.894531 143.964844 L 132.894531 144.21875 C 133.402344 144.335938 133.5 144.375 133.5 144.921875 L 133.5 150.566406 C 133.5 151.191406 133.402344 151.191406 132.894531 151.289062 L 132.894531 151.5625 L 135.589844 151.5625 L 135.589844 151.289062 C 135.179688 151.230469 135.0625 151.074219 135.0625 150.605469 L 135.0625 147.65625 C 135.0625 147.597656 135.140625 147.480469 135.257812 147.382812 C 135.492188 147.128906 135.765625 146.992188 136.039062 146.992188 C 136.46875 146.992188 136.605469 147.285156 136.605469 148.085938 L 136.605469 150.605469 C 136.605469 151.074219 136.46875 151.25 136.097656 151.289062 L 136.097656 151.5625 Z M 138.734375 151.5625 "/>
<path style=" stroke:none;fill-rule:nonzero;fill:rgb(0%,0%,0%);fill-opacity:1;" d="M 142.546875 152.832031 C 142.546875 151.308594 141.863281 150.234375 140.886719 150.234375 C 139.675781 150.234375 139.148438 151.464844 139.148438 152.792969 C 139.148438 154.023438 139.558594 155.410156 140.847656 155.410156 C 142.078125 155.410156 142.546875 154.121094 142.546875 152.832031 Z M 141.824219 152.871094 C 141.824219 154.355469 141.492188 155.214844 140.847656 155.214844 C 140.203125 155.214844 139.871094 154.375 139.871094 152.851562 C 139.871094 151.328125 140.203125 150.429688 140.828125 150.429688 C 141.492188 150.429688 141.824219 151.308594 141.824219 152.871094 Z M 141.824219 152.871094 "/>
<path style="fill-rule:nonzero;fill:rgb(40%,74.901961%,100%);fill-opacity:1;stroke-width:1;stroke-linecap:round;stroke-linejoin:round;stroke:rgb(0%,0%,0%);stroke-opacity:1;stroke-miterlimit:10;" d="M 154.20625 282.5 L 182.203125 282.5 L 182.203125 305 L 154.20625 305 Z M 154.20625 282.5 " transform="matrix(1.25,0,0,1.25,-8.75,-217.5)"/>
<path style=" stroke:none;fill-rule:nonzero;fill:rgb(0%,0%,0%);fill-opacity:1;" d="M 203.167969 143.964844 L 201.117188 143.964844 L 201.117188 144.238281 C 201.722656 144.277344 201.898438 144.394531 201.898438 144.726562 C 201.898438 144.882812 201.878906 145.039062 201.820312 145.214844 L 200.550781 149.0625 L 199.339844 145.292969 C 199.222656 144.902344 199.183594 144.765625 199.183594 144.648438 C 199.183594 144.394531 199.359375 144.277344 199.847656 144.257812 L 200.003906 144.238281 L 200.003906 143.964844 L 196.488281 143.964844 L 196.488281 144.238281 C 196.957031 144.257812 197.191406 144.355469 197.289062 144.628906 L 197.699219 145.703125 L 196.371094 149.179688 L 195.003906 145.078125 C 194.945312 144.882812 194.925781 144.804688 194.925781 144.707031 C 194.925781 144.394531 195.0625 144.277344 195.648438 144.238281 L 195.648438 143.964844 L 192.347656 143.964844 L 192.347656 144.238281 C 192.816406 144.296875 192.933594 144.414062 193.128906 144.960938 L 195.511719 151.738281 L 195.824219 151.738281 L 197.914062 146.367188 L 199.847656 151.738281 L 200.140625 151.738281 L 202.386719 144.960938 C 202.542969 144.511719 202.796875 144.277344 203.167969 144.238281 Z M 203.167969 143.964844 "/>
<path style=" stroke:none;fill-rule:nonzero;fill:rgb(0%,0%,0%);fill-opacity:1;" d="M 207.015625 152.109375 L 206.46875 152.109375 L 206.351562 152.460938 C 206.273438 152.128906 206.078125 152.011719 205.765625 152.011719 C 204.75 152.011719 203.578125 153.339844 203.578125 154.53125 C 203.578125 155.058594 203.851562 155.390625 204.320312 155.390625 C 204.90625 155.390625 205.277344 155.117188 205.882812 154.160156 L 205.199219 156.347656 C 205.121094 156.621094 205.003906 156.738281 204.515625 156.757812 L 204.515625 156.875 L 206.292969 156.875 L 206.292969 156.757812 L 206.195312 156.757812 C 205.902344 156.757812 205.765625 156.679688 205.765625 156.523438 C 205.765625 156.503906 205.765625 156.484375 205.765625 156.445312 Z M 206.234375 152.617188 C 206.234375 153.242188 205.746094 154.277344 205.21875 154.726562 C 205.023438 154.902344 204.808594 155 204.613281 155 C 204.339844 155 204.222656 154.765625 204.222656 154.414062 C 204.222656 153.789062 204.574219 153.027344 205.101562 152.539062 C 205.335938 152.304688 205.570312 152.167969 205.785156 152.167969 C 206.039062 152.167969 206.234375 152.363281 206.234375 152.617188 Z M 206.234375 152.617188 "/>
<path style=" stroke:none;fill-rule:nonzero;fill:rgb(0%,0%,0%);fill-opacity:1;" d="M 210.628906 154.433594 C 210.21875 154.941406 210.121094 155.019531 210.003906 155.019531 C 209.945312 155.019531 209.886719 154.960938 209.886719 154.882812 C 209.886719 154.804688 210.003906 154.335938 210.140625 153.945312 C 210.355469 153.242188 210.492188 152.695312 210.492188 152.5 C 210.492188 152.226562 210.355469 152.011719 210.003906 152.011719 C 209.535156 152.011719 208.949219 152.5 208.285156 153.59375 L 209.183594 150.234375 L 209.144531 150.195312 C 208.695312 150.292969 208.402344 150.332031 207.953125 150.390625 L 207.953125 150.507812 L 208.167969 150.507812 C 208.304688 150.507812 208.460938 150.566406 208.460938 150.683594 C 208.460938 150.800781 208.421875 150.917969 208.363281 151.152344 L 207.269531 155.3125 L 207.835938 155.3125 C 208.128906 154.160156 208.265625 153.886719 208.558594 153.4375 C 208.949219 152.851562 209.4375 152.382812 209.691406 152.382812 C 209.867188 152.382812 209.90625 152.460938 209.90625 152.578125 C 209.90625 152.597656 209.886719 152.695312 209.847656 152.832031 L 209.4375 154.375 C 209.339844 154.746094 209.300781 154.980469 209.300781 155.058594 C 209.300781 155.253906 209.417969 155.371094 209.613281 155.371094 C 210.003906 155.371094 210.257812 155.175781 210.726562 154.53125 Z M 210.628906 154.433594 "/>
<path style="fill-rule:nonzero;fill:rgb(40%,74.901961%,100%);fill-opacity:1;stroke-width:1;stroke-linecap:round;stroke-linejoin:round;stroke:rgb(0%,0%,0%);stroke-opacity:1;stroke-miterlimit:10;" d="M 45.225 282.5 L 95.475 282.5 L 95.475 305 L 45.225 305 Z M 45.225 282.5 " transform="matrix(1.25,0,0,1.25,-8.75,-217.5)"/>
<path style=" stroke:none;fill-rule:nonzero;fill:rgb(0%,0%,0%);fill-opacity:1;" d="M 67.777344 143.339844 L 65.726562 143.339844 L 65.726562 143.613281 C 66.332031 143.652344 66.507812 143.769531 66.507812 144.101562 C 66.507812 144.257812 66.488281 144.414062 66.429688 144.589844 L 65.160156 148.4375 L 63.949219 144.667969 C 63.832031 144.277344 63.792969 144.140625 63.792969 144.023438 C 63.792969 143.769531 63.96875 143.652344 64.457031 143.632812 L 64.613281 143.613281 L 64.613281 143.339844 L 61.097656 143.339844 L 61.097656 143.613281 C 61.566406 143.632812 61.800781 143.730469 61.898438 144.003906 L 62.308594 145.078125 L 60.980469 148.554688 L 59.613281 144.453125 C 59.554688 144.257812 59.535156 144.179688 59.535156 144.082031 C 59.535156 143.769531 59.671875 143.652344 60.257812 143.613281 L 60.257812 143.339844 L 56.957031 143.339844 L 56.957031 143.613281 C 57.425781 143.671875 57.542969 143.789062 57.738281 144.335938 L 60.121094 151.113281 L 60.433594 151.113281 L 62.523438 145.742188 L 64.457031 151.113281 L 64.75 151.113281 L 66.996094 144.335938 C 67.152344 143.886719 67.40625 143.652344 67.777344 143.613281 Z M 67.777344 143.339844 "/>
<path style=" stroke:none;fill-rule:nonzero;fill:rgb(0%,0%,0%);fill-opacity:1;" d="M 71.488281 153.808594 C 71.078125 154.316406 70.980469 154.394531 70.863281 154.394531 C 70.804688 154.394531 70.746094 154.335938 70.746094 154.257812 C 70.746094 154.179688 70.863281 153.710938 71 153.320312 C 71.214844 152.617188 71.351562 152.070312 71.351562 151.875 C 71.351562 151.601562 71.214844 151.386719 70.863281 151.386719 C 70.394531 151.386719 69.808594 151.875 69.144531 152.96875 L 70.042969 149.609375 L 70.003906 149.570312 C 69.554688 149.667969 69.261719 149.707031 68.8125 149.765625 L 68.8125 149.882812 L 69.027344 149.882812 C 69.164062 149.882812 69.320312 149.941406 69.320312 150.058594 C 69.320312 150.175781 69.28125 150.292969 69.222656 150.527344 L 68.128906 154.6875 L 68.695312 154.6875 C 68.988281 153.535156 69.125 153.261719 69.417969 152.8125 C 69.808594 152.226562 70.296875 151.757812 70.550781 151.757812 C 70.726562 151.757812 70.765625 151.835938 70.765625 151.953125 C 70.765625 151.972656 70.746094 152.070312 70.707031 152.207031 L 70.296875 153.75 C 70.199219 154.121094 70.160156 154.355469 70.160156 154.433594 C 70.160156 154.628906 70.277344 154.746094 70.472656 154.746094 C 70.863281 154.746094 71.117188 154.550781 71.585938 153.90625 Z M 71.488281 153.808594 "/>
<path style=" stroke:none;fill-rule:nonzero;fill:rgb(0%,0%,0%);fill-opacity:1;" d="M 73.558594 152.03125 C 73.460938 151.523438 73.363281 151.386719 73.1875 151.386719 C 73.011719 151.386719 72.757812 151.425781 72.308594 151.601562 L 72.230469 151.621094 L 72.25 151.738281 L 72.386719 151.71875 C 72.523438 151.679688 72.621094 151.660156 72.679688 151.660156 C 72.855469 151.660156 72.914062 151.71875 73.011719 152.167969 L 73.226562 153.105469 L 72.621094 153.964844 C 72.445312 154.199219 72.308594 154.335938 72.230469 154.335938 C 72.191406 154.335938 72.113281 154.316406 72.035156 154.257812 C 71.9375 154.21875 71.859375 154.179688 71.800781 154.179688 C 71.644531 154.179688 71.546875 154.296875 71.546875 154.453125 C 71.546875 154.648438 71.683594 154.765625 71.917969 154.765625 C 72.152344 154.765625 72.289062 154.707031 72.621094 154.257812 L 73.285156 153.359375 L 73.5 154.257812 C 73.597656 154.628906 73.714844 154.765625 73.949219 154.765625 C 74.222656 154.765625 74.417969 154.589844 74.867188 153.90625 L 74.75 153.847656 C 74.691406 153.925781 74.652344 153.964844 74.59375 154.0625 C 74.417969 154.277344 74.339844 154.355469 74.242188 154.355469 C 74.125 154.355469 74.066406 154.257812 74.007812 154.042969 L 73.773438 153.046875 C 73.734375 152.871094 73.714844 152.753906 73.714844 152.714844 C 74.046875 152.128906 74.320312 151.796875 74.457031 151.796875 C 74.632812 151.796875 74.691406 151.933594 74.847656 151.933594 C 74.984375 151.933594 75.101562 151.816406 75.101562 151.660156 C 75.101562 151.484375 74.964844 151.386719 74.789062 151.386719 C 74.457031 151.386719 74.183594 151.640625 73.65625 152.460938 Z M 73.558594 152.03125 "/>
<path style=" stroke:none;fill-rule:nonzero;fill:rgb(0%,0%,0%);fill-opacity:1;" d="M 77.902344 152.96875 C 79.210938 152.285156 79.757812 151.464844 79.757812 150.507812 C 79.757812 149.707031 79.347656 149.199219 78.644531 149.199219 C 78.078125 149.199219 77.6875 149.570312 77.6875 150.15625 C 77.6875 150.664062 78.039062 150.996094 78.527344 150.996094 C 78.625 150.996094 78.703125 150.976562 78.78125 150.976562 C 78.917969 150.976562 78.996094 151.074219 78.996094 151.210938 C 78.996094 151.660156 78.625 152.128906 77.765625 152.714844 Z M 77.902344 152.96875 "/>
<path style=" stroke:none;fill-rule:nonzero;fill:rgb(0%,0%,0%);fill-opacity:1;" d="M 93.917969 143.339844 L 91.867188 143.339844 L 91.867188 143.613281 C 92.472656 143.652344 92.648438 143.769531 92.648438 144.101562 C 92.648438 144.257812 92.628906 144.414062 92.570312 144.589844 L 91.300781 148.4375 L 90.089844 144.667969 C 89.972656 144.277344 89.933594 144.140625 89.933594 144.023438 C 89.933594 143.769531 90.109375 143.652344 90.597656 143.632812 L 90.753906 143.613281 L 90.753906 143.339844 L 87.238281 143.339844 L 87.238281 143.613281 C 87.707031 143.632812 87.941406 143.730469 88.039062 144.003906 L 88.449219 145.078125 L 87.121094 148.554688 L 85.753906 144.453125 C 85.695312 144.257812 85.675781 144.179688 85.675781 144.082031 C 85.675781 143.769531 85.8125 143.652344 86.398438 143.613281 L 86.398438 143.339844 L 83.097656 143.339844 L 83.097656 143.613281 C 83.566406 143.671875 83.683594 143.789062 83.878906 144.335938 L 86.261719 151.113281 L 86.574219 151.113281 L 88.664062 145.742188 L 90.597656 151.113281 L 90.890625 151.113281 L 93.136719 144.335938 C 93.292969 143.886719 93.546875 143.652344 93.917969 143.613281 Z M 93.917969 143.339844 "/>
<path style=" stroke:none;fill-rule:nonzero;fill:rgb(0%,0%,0%);fill-opacity:1;" d="M 97.628906 153.808594 C 97.21875 154.316406 97.121094 154.394531 97.003906 154.394531 C 96.945312 154.394531 96.886719 154.335938 96.886719 154.257812 C 96.886719 154.179688 97.003906 153.710938 97.140625 153.320312 C 97.355469 152.617188 97.492188 152.070312 97.492188 151.875 C 97.492188 151.601562 97.355469 151.386719 97.003906 151.386719 C 96.535156 151.386719 95.949219 151.875 95.285156 152.96875 L 96.183594 149.609375 L 96.144531 149.570312 C 95.695312 149.667969 95.402344 149.707031 94.953125 149.765625 L 94.953125 149.882812 L 95.167969 149.882812 C 95.304688 149.882812 95.460938 149.941406 95.460938 150.058594 C 95.460938 150.175781 95.421875 150.292969 95.363281 150.527344 L 94.269531 154.6875 L 94.835938 154.6875 C 95.128906 153.535156 95.265625 153.261719 95.558594 152.8125 C 95.949219 152.226562 96.4375 151.757812 96.691406 151.757812 C 96.867188 151.757812 96.90625 151.835938 96.90625 151.953125 C 96.90625 151.972656 96.886719 152.070312 96.847656 152.207031 L 96.4375 153.75 C 96.339844 154.121094 96.300781 154.355469 96.300781 154.433594 C 96.300781 154.628906 96.417969 154.746094 96.613281 154.746094 C 97.003906 154.746094 97.257812 154.550781 97.726562 153.90625 Z M 97.628906 153.808594 "/>
<path style=" stroke:none;fill-rule:nonzero;fill:rgb(0%,0%,0%);fill-opacity:1;" d="M 101.378906 153.808594 C 100.96875 154.316406 100.871094 154.394531 100.753906 154.394531 C 100.695312 154.394531 100.636719 154.335938 100.636719 154.257812 C 100.636719 154.179688 100.753906 153.710938 100.890625 153.320312 C 101.105469 152.617188 101.242188 152.070312 101.242188 151.875 C 101.242188 151.601562 101.105469 151.386719 100.753906 151.386719 C 100.285156 151.386719 99.699219 151.875 99.035156 152.96875 L 99.933594 149.609375 L 99.894531 149.570312 C 99.445312 149.667969 99.152344 149.707031 98.703125 149.765625 L 98.703125 149.882812 L 98.917969 149.882812 C 99.054688 149.882812 99.210938 149.941406 99.210938 150.058594 C 99.210938 150.175781 99.171875 150.292969 99.113281 150.527344 L 98.019531 154.6875 L 98.585938 154.6875 C 98.878906 153.535156 99.015625 153.261719 99.308594 152.8125 C 99.699219 152.226562 100.1875 151.757812 100.441406 151.757812 C 100.617188 151.757812 100.65625 151.835938 100.65625 151.953125 C 100.65625 151.972656 100.636719 152.070312 100.597656 152.207031 L 100.1875 153.75 C 100.089844 154.121094 100.050781 154.355469 100.050781 154.433594 C 100.050781 154.628906 100.167969 154.746094 100.363281 154.746094 C 100.753906 154.746094 101.007812 154.550781 101.476562 153.90625 Z M 101.378906 153.808594 "/>
<path style="fill:none;stroke-width:1;stroke-linecap:round;stroke-linejoin:round;stroke:rgb(0%,0%,0%);stroke-opacity:1;stroke-miterlimit:10;" d="M 30.575 257.75 L 34.753125 257.75 M 52.8625 257.75 L 53.1 257.75 " transform="matrix(1.25,0,0,1.25,-8.75,-217.5)"/>
<path style="fill:none;stroke-width:1;stroke-linecap:butt;stroke-linejoin:miter;stroke:rgb(0%,0%,0%);stroke-opacity:1;stroke-miterlimit:10;" d="M 57.1 257.75 L 53.1 257.75 M 53.1 256.25 L 57.1 257.75 L 53.1 259.25 " transform="matrix(1.25,0,0,1.25,-8.75,-217.5)"/>
<path style="fill:none;stroke-width:1;stroke-linecap:round;stroke-linejoin:round;stroke:rgb(0%,0%,0%);stroke-opacity:1;stroke-miterlimit:10;" d="M 30.671875 221.75 L 39.234375 221.75 M 50.234375 221.75 L 53.2 221.75 " transform="matrix(1.25,0,0,1.25,-8.75,-217.5)"/>
<path style="fill:none;stroke-width:1;stroke-linecap:butt;stroke-linejoin:miter;stroke:rgb(0%,0%,0%);stroke-opacity:1;stroke-miterlimit:10;" d="M 57.2 221.75 L 53.2 221.75 M 53.2 220.25 L 57.2 221.75 L 53.2 223.25 " transform="matrix(1.25,0,0,1.25,-8.75,-217.5)"/>
<path style="fill:none;stroke-width:1;stroke-linecap:round;stroke-linejoin:round;stroke:rgb(0%,0%,0%);stroke-opacity:1;stroke-miterlimit:10;" d="M 30.671875 185.75 L 53.2 185.75 " transform="matrix(1.25,0,0,1.25,-8.75,-217.5)"/>
<path style="fill:none;stroke-width:1;stroke-linecap:butt;stroke-linejoin:miter;stroke:rgb(0%,0%,0%);stroke-opacity:1;stroke-miterlimit:10;" d="M 57.2 185.75 L 53.2 185.75 M 53.2 184.25 L 57.2 185.75 L 53.2 187.25 " transform="matrix(1.25,0,0,1.25,-8.75,-217.5)"/>
<path style="fill:none;stroke-width:1;stroke-linecap:round;stroke-linejoin:round;stroke:rgb(0%,0%,0%);stroke-opacity:1;stroke-miterlimit:10;" d="M 128.528125 185.75 L 151.05625 185.75 " transform="matrix(1.25,0,0,1.25,-8.75,-217.5)"/>
<path style="fill:none;stroke-width:1;stroke-linecap:butt;stroke-linejoin:miter;stroke:rgb(0%,0%,0%);stroke-opacity:1;stroke-miterlimit:10;" d="M 155.05625 185.75 L 151.05625 185.75 M 151.05625 184.25 L 155.05625 185.75 L 151.05625 187.25 " transform="matrix(1.25,0,0,1.25,-8.75,-217.5)"/>
<path style="fill:none;stroke-width:1;stroke-linecap:round;stroke-linejoin:round;stroke:rgb(0%,0%,0%);stroke-opacity:1;stroke-miterlimit:10;" d="M 286.0375 248.3375 L 267.4125 232.753125 " transform="matrix(1.25,0,0,1.25,-8.75,-217.5)"/>
<path style="fill:none;stroke-width:1;stroke-linecap:butt;stroke-linejoin:miter;stroke:rgb(0%,0%,0%);stroke-opacity:1;stroke-miterlimit:10;" d="M 264.346875 230.1875 L 267.4125 232.753125 M 266.453125 233.90625 L 264.346875 230.1875 L 268.378125 231.60625 " transform="matrix(1.25,0,0,1.25,-8.75,-217.5)"/>
<path style="fill:none;stroke-width:1;stroke-linecap:round;stroke-linejoin:round;stroke:rgb(0%,0%,0%);stroke-opacity:1;stroke-miterlimit:10;" d="M 286.0375 221.75 L 271.409375 221.75 " transform="matrix(1.25,0,0,1.25,-8.75,-217.5)"/>
<path style="fill:none;stroke-width:1;stroke-linecap:butt;stroke-linejoin:miter;stroke:rgb(0%,0%,0%);stroke-opacity:1;stroke-miterlimit:10;" d="M 267.409375 221.75 L 271.409375 221.75 M 271.409375 223.25 L 267.409375 221.75 L 271.409375 220.25 " transform="matrix(1.25,0,0,1.25,-8.75,-217.5)"/>
<path style="fill:none;stroke-width:1;stroke-linecap:round;stroke-linejoin:round;stroke:rgb(0%,0%,0%);stroke-opacity:1;stroke-miterlimit:10;" d="M 285.7375 195.23125 L 267.375 210.7 " transform="matrix(1.25,0,0,1.25,-8.75,-217.5)"/>
<path style="fill:none;stroke-width:1;stroke-linecap:butt;stroke-linejoin:miter;stroke:rgb(0%,0%,0%);stroke-opacity:1;stroke-miterlimit:10;" d="M 264.315625 213.278125 L 267.375 210.7 M 268.34375 211.846875 L 264.315625 213.278125 L 266.409375 209.55 " transform="matrix(1.25,0,0,1.25,-8.75,-217.5)"/>
<path style="fill:none;stroke-width:1;stroke-linecap:round;stroke-linejoin:round;stroke:rgb(0%,0%,0%);stroke-opacity:1;stroke-miterlimit:10;" d="M 222.28125 248.38125 L 241.08125 232.725 " transform="matrix(1.25,0,0,1.25,-8.75,-217.5)"/>
<path style="fill:none;stroke-width:1;stroke-linecap:butt;stroke-linejoin:miter;stroke:rgb(0%,0%,0%);stroke-opacity:1;stroke-miterlimit:10;" d="M 244.15625 230.1625 L 241.08125 232.725 M 240.121875 231.575 L 244.15625 230.1625 L 242.04375 233.878125 " transform="matrix(1.25,0,0,1.25,-8.75,-217.5)"/>
<path style="fill:none;stroke-width:1;stroke-linecap:round;stroke-linejoin:round;stroke:rgb(0%,0%,0%);stroke-opacity:1;stroke-miterlimit:10;" d="M 222.484375 221.75 L 237.109375 221.75 " transform="matrix(1.25,0,0,1.25,-8.75,-217.5)"/>
<path style="fill:none;stroke-width:1;stroke-linecap:butt;stroke-linejoin:miter;stroke:rgb(0%,0%,0%);stroke-opacity:1;stroke-miterlimit:10;" d="M 241.109375 221.75 L 237.109375 221.75 M 237.109375 220.25 L 241.109375 221.75 L 237.109375 223.25 " transform="matrix(1.25,0,0,1.25,-8.75,-217.5)"/>
<path style="fill:none;stroke-width:1;stroke-linecap:round;stroke-linejoin:round;stroke:rgb(0%,0%,0%);stroke-opacity:1;stroke-miterlimit:10;" d="M 222.38125 195.140625 L 241.09375 210.75625 " transform="matrix(1.25,0,0,1.25,-8.75,-217.5)"/>
<path style="fill:none;stroke-width:1;stroke-linecap:butt;stroke-linejoin:miter;stroke:rgb(0%,0%,0%);stroke-opacity:1;stroke-miterlimit:10;" d="M 244.1625 213.325 L 241.09375 210.75625 M 242.05625 209.609375 L 244.1625 213.325 L 240.13125 211.909375 " transform="matrix(1.25,0,0,1.25,-8.75,-217.5)"/>
<path style="fill:none;stroke-width:1;stroke-linecap:round;stroke-linejoin:round;stroke:rgb(0%,0%,0%);stroke-opacity:1;stroke-miterlimit:10;" d="M 105.925 285.121875 L 83.859375 268.1875 " transform="matrix(1.25,0,0,1.25,-8.75,-217.5)"/>
<path style="fill:none;stroke-width:1;stroke-linecap:butt;stroke-linejoin:miter;stroke:rgb(0%,0%,0%);stroke-opacity:1;stroke-miterlimit:10;" d="M 80.684375 265.753125 L 83.859375 268.1875 M 82.94375 269.378125 L 80.684375 265.753125 L 84.76875 267 " transform="matrix(1.25,0,0,1.25,-8.75,-217.5)"/>
<path style="fill:none;stroke-width:1;stroke-linecap:round;stroke-linejoin:round;stroke:rgb(0%,0%,0%);stroke-opacity:1;stroke-miterlimit:10;" d="M 81.5 257.75 L 100.028125 257.75 " transform="matrix(1.25,0,0,1.25,-8.75,-217.5)"/>
<path style="fill:none;stroke-width:1;stroke-linecap:butt;stroke-linejoin:miter;stroke:rgb(0%,0%,0%);stroke-opacity:1;stroke-miterlimit:10;" d="M 104.028125 257.75 L 100.028125 257.75 M 100.028125 256.25 L 104.028125 257.75 L 100.028125 259.25 " transform="matrix(1.25,0,0,1.25,-8.75,-217.5)"/>
<path style="fill:none;stroke-width:1;stroke-linecap:round;stroke-linejoin:round;stroke:rgb(0%,0%,0%);stroke-opacity:1;stroke-miterlimit:10;" d="M 105.925 213.1 L 83.95 196.203125 " transform="matrix(1.25,0,0,1.25,-8.75,-217.5)"/>
<path style="fill:none;stroke-width:1;stroke-linecap:butt;stroke-linejoin:miter;stroke:rgb(0%,0%,0%);stroke-opacity:1;stroke-miterlimit:10;" d="M 80.778125 193.765625 L 83.95 196.203125 M 83.034375 197.39375 L 80.778125 193.765625 L 84.8625 195.015625 " transform="matrix(1.25,0,0,1.25,-8.75,-217.5)"/>
<path style="fill:none;stroke-width:1;stroke-linecap:round;stroke-linejoin:round;stroke:rgb(0%,0%,0%);stroke-opacity:1;stroke-miterlimit:10;" d="M 55.471875 282.5 C 47.29375 274.5125 38.784375 262.38125 38.784375 246.5 C 38.784375 228.29375 49.9625 210.24375 59.015625 198.609375 " transform="matrix(1.25,0,0,1.25,-8.75,-217.5)"/>
<path style="fill:none;stroke-width:1;stroke-linecap:butt;stroke-linejoin:miter;stroke:rgb(0%,0%,0%);stroke-opacity:1;stroke-miterlimit:10;" d="M 61.534375 195.503125 L 59.015625 198.609375 M 57.846875 197.6625 L 61.534375 195.503125 L 60.18125 199.55625 " transform="matrix(1.25,0,0,1.25,-8.75,-217.5)"/>
<path style="fill:none;stroke-width:1;stroke-linecap:round;stroke-linejoin:round;stroke:rgb(0%,0%,0%);stroke-opacity:1;stroke-miterlimit:10;" d="M 81.6 185.75 L 100.128125 185.75 " transform="matrix(1.25,0,0,1.25,-8.75,-217.5)"/>
<path style="fill:none;stroke-width:1;stroke-linecap:butt;stroke-linejoin:miter;stroke:rgb(0%,0%,0%);stroke-opacity:1;stroke-miterlimit:10;" d="M 104.128125 185.75 L 100.128125 185.75 M 100.128125 184.25 L 104.128125 185.75 L 100.128125 187.25 " transform="matrix(1.25,0,0,1.25,-8.75,-217.5)"/>
<path style="fill:none;stroke-width:1;stroke-linecap:round;stroke-linejoin:round;stroke:rgb(0%,0%,0%);stroke-opacity:1;stroke-miterlimit:10;" d="M 70.31875 282.5 L 70.296875 274.9 " transform="matrix(1.25,0,0,1.25,-8.75,-217.5)"/>
<path style="fill:none;stroke-width:1;stroke-linecap:butt;stroke-linejoin:miter;stroke:rgb(0%,0%,0%);stroke-opacity:1;stroke-miterlimit:10;" d="M 70.284375 270.9 L 70.296875 274.9 M 68.796875 274.903125 L 70.284375 270.9 L 71.796875 274.89375 " transform="matrix(1.25,0,0,1.25,-8.75,-217.5)"/>
<path style="fill:none;stroke-width:1;stroke-linecap:round;stroke-linejoin:round;stroke:rgb(0%,0%,0%);stroke-opacity:1;stroke-miterlimit:10;" d="M 154.20625 283.41875 C 145.7 275.453125 136.4625 263.003125 136.4625 246.5 C 136.4625 228.278125 147.721875 210.2125 156.83125 198.578125 " transform="matrix(1.25,0,0,1.25,-8.75,-217.5)"/>
<path style="fill:none;stroke-width:1;stroke-linecap:butt;stroke-linejoin:miter;stroke:rgb(0%,0%,0%);stroke-opacity:1;stroke-miterlimit:10;" d="M 159.3625 195.475 L 156.83125 198.578125 M 155.671875 197.628125 L 159.3625 195.475 L 157.996875 199.525 " transform="matrix(1.25,0,0,1.25,-8.75,-217.5)"/>
<path style="fill:none;stroke-width:1;stroke-linecap:round;stroke-linejoin:round;stroke:rgb(0%,0%,0%);stroke-opacity:1;stroke-miterlimit:10;" d="M 168.175 282.5 L 168.153125 274.9 " transform="matrix(1.25,0,0,1.25,-8.75,-217.5)"/>
<path style="fill:none;stroke-width:1;stroke-linecap:butt;stroke-linejoin:miter;stroke:rgb(0%,0%,0%);stroke-opacity:1;stroke-miterlimit:10;" d="M 168.140625 270.9 L 168.153125 274.9 M 166.653125 274.903125 L 168.140625 270.9 L 169.653125 274.89375 " transform="matrix(1.25,0,0,1.25,-8.75,-217.5)"/>
<path style="fill-rule:nonzero;fill:rgb(69.803922%,85.098039%,100%);fill-opacity:1;stroke-width:1;stroke-linecap:round;stroke-linejoin:round;stroke:rgb(0%,0%,0%);stroke-opacity:1;stroke-miterlimit:10;" d="M 78.203125 249.796875 C 82.596875 254.1875 82.596875 261.3125 78.203125 265.703125 C 73.8125 270.096875 66.6875 270.096875 62.296875 265.703125 C 57.903125 261.3125 57.903125 254.1875 62.296875 249.796875 C 66.6875 245.403125 73.8125 245.403125 78.203125 249.796875 " transform="matrix(1.25,0,0,1.25,-8.75,-217.5)"/>
<path style="fill:none;stroke-width:1;stroke-linecap:round;stroke-linejoin:round;stroke:rgb(0%,0%,0%);stroke-opacity:1;stroke-miterlimit:10;" d="M 81.6 221.75 L 100.028125 221.75 " transform="matrix(1.25,0,0,1.25,-8.75,-217.5)"/>
<path style="fill:none;stroke-width:1;stroke-linecap:butt;stroke-linejoin:miter;stroke:rgb(0%,0%,0%);stroke-opacity:1;stroke-miterlimit:10;" d="M 104.028125 221.75 L 100.028125 221.75 M 100.028125 220.25 L 104.028125 221.75 L 100.028125 223.25 " transform="matrix(1.25,0,0,1.25,-8.75,-217.5)"/>
<path style="fill-rule:nonzero;fill:rgb(69.803922%,85.098039%,100%);fill-opacity:1;stroke-width:1;stroke-linecap:round;stroke-linejoin:round;stroke:rgb(0%,0%,0%);stroke-opacity:1;stroke-miterlimit:10;" d="M 78.30625 177.796875 C 82.7 182.1875 82.7 189.3125 78.30625 193.703125 C 73.909375 198.096875 66.7875 198.096875 62.39375 193.703125 C 58 189.3125 58 182.1875 62.39375 177.796875 C 66.7875 173.403125 73.909375 173.403125 78.30625 177.796875 " transform="matrix(1.25,0,0,1.25,-8.75,-217.5)"/>
<path style="fill-rule:nonzero;fill:rgb(69.803922%,85.098039%,100%);fill-opacity:1;stroke-width:1;stroke-linecap:round;stroke-linejoin:round;stroke:rgb(0%,0%,0%);stroke-opacity:1;stroke-miterlimit:10;" d="M 78.30625 213.796875 C 82.7 218.1875 82.7 225.3125 78.30625 229.703125 C 73.909375 234.096875 66.7875 234.096875 62.39375 229.703125 C 58 225.3125 58 218.1875 62.39375 213.796875 C 66.7875 209.403125 73.909375 209.403125 78.30625 213.796875 " transform="matrix(1.25,0,0,1.25,-8.75,-217.5)"/>
<path style="fill:none;stroke-width:1;stroke-linecap:round;stroke-linejoin:round;stroke:rgb(0%,0%,0%);stroke-opacity:1;stroke-miterlimit:10;" d="M 105.925 249.1 L 83.95 232.203125 " transform="matrix(1.25,0,0,1.25,-8.75,-217.5)"/>
<path style="fill:none;stroke-width:1;stroke-linecap:butt;stroke-linejoin:miter;stroke:rgb(0%,0%,0%);stroke-opacity:1;stroke-miterlimit:10;" d="M 80.778125 229.765625 L 83.95 232.203125 M 83.034375 233.39375 L 80.778125 229.765625 L 84.8625 231.015625 " transform="matrix(1.25,0,0,1.25,-8.75,-217.5)"/>
<path style="fill-rule:nonzero;fill:rgb(69.803922%,85.098039%,100%);fill-opacity:1;stroke-width:1;stroke-linecap:round;stroke-linejoin:round;stroke:rgb(0%,0%,0%);stroke-opacity:1;stroke-miterlimit:10;" d="M 176.059375 249.796875 C 180.453125 254.1875 180.453125 261.3125 176.059375 265.703125 C 171.66875 270.096875 164.54375 270.096875 160.15 265.703125 C 155.75625 261.3125 155.75625 254.1875 160.15 249.796875 C 164.54375 245.403125 171.66875 245.403125 176.059375 249.796875 " transform="matrix(1.25,0,0,1.25,-8.75,-217.5)"/>
<path style="fill:none;stroke-width:1;stroke-linecap:round;stroke-linejoin:round;stroke:rgb(0%,0%,0%);stroke-opacity:1;stroke-miterlimit:10;" d="M 179.35625 257.75 L 193.88125 257.75 " transform="matrix(1.25,0,0,1.25,-8.75,-217.5)"/>
<path style="fill:none;stroke-width:1;stroke-linecap:butt;stroke-linejoin:miter;stroke:rgb(0%,0%,0%);stroke-opacity:1;stroke-miterlimit:10;" d="M 197.88125 257.75 L 193.88125 257.75 M 193.88125 256.25 L 197.88125 257.75 L 193.88125 259.25 " transform="matrix(1.25,0,0,1.25,-8.75,-217.5)"/>
<path style="fill-rule:nonzero;fill:rgb(69.803922%,85.098039%,100%);fill-opacity:1;stroke-width:1;stroke-linecap:round;stroke-linejoin:round;stroke:rgb(0%,0%,0%);stroke-opacity:1;stroke-miterlimit:10;" d="M 176.159375 213.796875 C 180.55625 218.1875 180.55625 225.3125 176.159375 229.703125 C 171.765625 234.096875 164.64375 234.096875 160.25 229.703125 C 155.85625 225.3125 155.85625 218.1875 160.25 213.796875 C 164.64375 209.403125 171.765625 209.403125 176.159375 213.796875 " transform="matrix(1.25,0,0,1.25,-8.75,-217.5)"/>
<path style="fill:none;stroke-width:1;stroke-linecap:round;stroke-linejoin:round;stroke:rgb(0%,0%,0%);stroke-opacity:1;stroke-miterlimit:10;" d="M 179.45625 221.75 L 194.08125 221.75 " transform="matrix(1.25,0,0,1.25,-8.75,-217.5)"/>
<path style="fill:none;stroke-width:1;stroke-linecap:butt;stroke-linejoin:miter;stroke:rgb(0%,0%,0%);stroke-opacity:1;stroke-miterlimit:10;" d="M 198.08125 221.75 L 194.08125 221.75 M 194.08125 220.25 L 198.08125 221.75 L 194.08125 223.25 " transform="matrix(1.25,0,0,1.25,-8.75,-217.5)"/>
<path style="fill-rule:nonzero;fill:rgb(69.803922%,85.098039%,100%);fill-opacity:1;stroke-width:1;stroke-linecap:round;stroke-linejoin:round;stroke:rgb(0%,0%,0%);stroke-opacity:1;stroke-miterlimit:10;" d="M 176.159375 177.796875 C 180.55625 182.1875 180.55625 189.3125 176.159375 193.703125 C 171.765625 198.096875 164.64375 198.096875 160.25 193.703125 C 155.85625 189.3125 155.85625 182.1875 160.25 177.796875 C 164.64375 173.403125 171.765625 173.403125 176.159375 177.796875 " transform="matrix(1.25,0,0,1.25,-8.75,-217.5)"/>
<path style="fill:none;stroke-width:1;stroke-linecap:round;stroke-linejoin:round;stroke:rgb(0%,0%,0%);stroke-opacity:1;stroke-miterlimit:10;" d="M 179.45625 185.75 L 193.984375 185.75 " transform="matrix(1.25,0,0,1.25,-8.75,-217.5)"/>
<path style="fill:none;stroke-width:1;stroke-linecap:butt;stroke-linejoin:miter;stroke:rgb(0%,0%,0%);stroke-opacity:1;stroke-miterlimit:10;" d="M 197.984375 185.75 L 193.984375 185.75 M 193.984375 184.25 L 197.984375 185.75 L 193.984375 187.25 " transform="matrix(1.25,0,0,1.25,-8.75,-217.5)"/>
<path style="fill:none;stroke-width:1;stroke-linecap:round;stroke-linejoin:round;stroke:rgb(0%,0%,0%);stroke-opacity:1;stroke-miterlimit:10;" d="M 242.809375 174.5 L 265.309375 174.5 L 265.309375 197 L 242.809375 197 Z M 242.809375 174.5 " transform="matrix(1.25,0,0,1.25,-8.75,-217.5)"/>
<path style=" stroke:none;fill-rule:nonzero;fill:rgb(0%,0%,0%);fill-opacity:1;" d="M 311.988281 15.78125 L 311.753906 15.722656 C 311.441406 16.367188 311.207031 16.738281 310.835938 16.972656 C 310.289062 17.34375 309.9375 17.402344 308.824219 17.402344 C 307.886719 17.402344 307.632812 17.304688 307.632812 16.953125 C 307.632812 16.796875 307.671875 16.601562 307.75 16.347656 L 309.097656 11.503906 C 309.273438 10.878906 309.566406 10.683594 310.230469 10.644531 L 310.230469 10.46875 L 307.164062 10.46875 L 307.164062 10.644531 C 307.867188 10.683594 308.023438 10.800781 308.023438 11.132812 C 308.023438 11.289062 308.003906 11.523438 307.90625 11.835938 L 306.539062 16.757812 C 306.324219 17.460938 306.246094 17.558594 305.601562 17.636719 L 305.601562 17.8125 L 311.34375 17.8125 Z M 311.988281 15.78125 "/>
<path style="fill:none;stroke-width:1;stroke-linecap:round;stroke-linejoin:round;stroke:rgb(0%,0%,0%);stroke-opacity:1;stroke-miterlimit:10;" d="M 254.2 210.5 L 254.15625 202.9 " transform="matrix(1.25,0,0,1.25,-8.75,-217.5)"/>
<path style="fill:none;stroke-width:1;stroke-linecap:butt;stroke-linejoin:miter;stroke:rgb(0%,0%,0%);stroke-opacity:1;stroke-miterlimit:10;" d="M 254.13125 198.9 L 254.15625 202.9 M 252.65625 202.90625 L 254.13125 198.9 L 255.65625 202.890625 " transform="matrix(1.25,0,0,1.25,-8.75,-217.5)"/>
<path style="fill:none;stroke-width:1;stroke-linecap:round;stroke-linejoin:round;stroke:rgb(0%,0%,0%);stroke-opacity:1;stroke-miterlimit:10;" d="M 59.0875 282.5 C 53.215625 275.4 47.25 265.625 47.25 255.25625 C 47.25 246.046875 51.9625 238.31875 57.128125 232.61875 " transform="matrix(1.25,0,0,1.25,-8.75,-217.5)"/>
<path style="fill:none;stroke-width:1;stroke-linecap:butt;stroke-linejoin:miter;stroke:rgb(0%,0%,0%);stroke-opacity:1;stroke-miterlimit:10;" d="M 59.96875 229.8 L 57.128125 232.61875 M 56.075 231.55 L 59.96875 229.8 L 58.1875 233.68125 " transform="matrix(1.25,0,0,1.25,-8.75,-217.5)"/>
<path style="fill:none;stroke-width:1;stroke-linecap:round;stroke-linejoin:round;stroke:rgb(0%,0%,0%);stroke-opacity:1;stroke-miterlimit:10;" d="M 156.15625 282.5 C 150.3 275.734375 144.50625 266.49375 144.50625 256.409375 C 144.50625 246.934375 149.621875 238.78125 155.1 232.76875 " transform="matrix(1.25,0,0,1.25,-8.75,-217.5)"/>
<path style="fill:none;stroke-width:1;stroke-linecap:butt;stroke-linejoin:miter;stroke:rgb(0%,0%,0%);stroke-opacity:1;stroke-miterlimit:10;" d="M 157.934375 229.940625 L 155.1 232.765625 M 154.04375 231.703125 L 157.934375 229.940625 L 156.159375 233.828125 " transform="matrix(1.25,0,0,1.25,-8.75,-217.5)"/>
</g>
</svg>
