<?xml version="1.0" encoding="utf-8"?>
<!-- Generator: Adobe Illustrator 24.0.1, SVG Export Plug-In . SVG Version: 6.00 Build 0)  -->
<svg version="1.1" id="Layer_1" xmlns="http://www.w3.org/2000/svg" xmlns:xlink="http://www.w3.org/1999/xlink" x="0px" y="0px"
	 viewBox="0 0 1200 700" style="enable-background:new 0 0 1200 700;" xml:space="preserve">
<style type="text/css">
	.st0{fill:#F7FBFB;}
	.st1{opacity:0.3;fill:none;stroke:#C8C8D3;stroke-width:1.25;stroke-miterlimit:10;enable-background:new    ;}
	.st2{fill:#6E6E80;}
	.st3{fill:none;stroke:#C8C8D3;stroke-width:1.34;stroke-miterlimit:10;}
	.st4{fill:none;stroke:#C8C8D3;stroke-width:1.25;stroke-miterlimit:10;}
	.st5{fill:#5436DA;}
	.st6{fill:#68DE7A;}
	.st7{clip-path:url(#SVGID_2_);}
	.st8{fill:none;stroke:#68DE7A;stroke-width:2;stroke-linecap:square;stroke-linejoin:round;}
	.st9{fill:none;stroke:#EF4146;stroke-width:2;stroke-miterlimit:10;}
	.st10{fill:#EF4146;}
	.st11{clip-path:url(#SVGID_4_);}
	.st12{fill:none;stroke:#5436DA;stroke-width:2;stroke-linecap:square;stroke-linejoin:round;}
</style>
<title>fig_data_hurts</title>
<rect x="140" y="49.9" class="st0" width="1010" height="420"/>
<g>
	<line class="st1" x1="140" y1="128.2" x2="1150" y2="128.2"/>
	<line class="st1" x1="140" y1="72.7" x2="1150" y2="72.7"/>
	<line class="st1" x1="140" y1="183.8" x2="1150" y2="183.8"/>
	<line class="st1" x1="140" y1="239.3" x2="1150" y2="239.3"/>
	<line class="st1" x1="140" y1="294.8" x2="1150" y2="294.8"/>
	<line class="st1" x1="140" y1="350.4" x2="1150" y2="350.4"/>
	<line class="st1" x1="140" y1="405.9" x2="1150" y2="405.9"/>
	<line class="st1" x1="140" y1="461.5" x2="1150" y2="461.5"/>
	<line class="st1" x1="147.6" y1="470" x2="147.6" y2="50"/>
	<line class="st1" x1="267.2" y1="470" x2="267.2" y2="50"/>
	<line class="st1" x1="386.7" y1="470" x2="386.7" y2="50"/>
	<line class="st1" x1="506.3" y1="470" x2="506.3" y2="50"/>
	<line class="st1" x1="625.8" y1="470" x2="625.8" y2="50"/>
	<line class="st1" x1="745.4" y1="470" x2="745.4" y2="50"/>
	<line class="st1" x1="865" y1="470" x2="865" y2="50"/>
	<line class="st1" x1="984.5" y1="470" x2="984.5" y2="50"/>
	<line class="st1" x1="1104.1" y1="470" x2="1104.1" y2="50"/>
</g>
<g>
	<path class="st2" d="M52.1,424.3h-3.2c-4.7,0-8.2-2.6-8.2-7.9c-0.1-3.8,2.8-7.1,6.6-7.4v2c-2.8,0.2-5,2.6-4.9,5.5
		c0,3.9,2.7,5.7,6.4,5.7h3.3c3.7,0,6.4-1.9,6.4-5.7c0.1-2.8-2-5.3-4.9-5.5v-2c3.9,0.3,6.8,3.6,6.6,7.5
		C60.3,421.6,56.8,424.3,52.1,424.3z"/>
	<path class="st2" d="M46.1,403.7v-1.9h3.2c-2.1-0.5-3.3-2-3.3-4.5V397H48v0.4c0,2.6,1.7,4.3,5.2,4.3H60v2L46.1,403.7z"/>
	<path class="st2" d="M54.2,393.7h-2.3c-3.4-0.1-6.1-3-5.9-6.4c0.1-3.2,2.7-5.8,5.9-5.9h2.3c3.4,0.1,6.1,3,5.9,6.4
		C60,391,57.4,393.6,54.2,393.7z M47.5,387.5c0,2.7,1.9,4.2,4.5,4.2h2.2c2.6,0,4.5-1.5,4.5-4.2s-1.9-4.2-4.5-4.2H52
		C49.3,383.3,47.5,384.8,47.5,387.5L47.5,387.5z"/>
	<path class="st2" d="M56,377h-0.1v-1.9h0.1c1.7,0,2.9-1.6,2.9-3.9s-0.8-3.7-2.6-3.7c-1,0-1.8,0.7-1.9,1.7l-0.9,4.1
		c-0.5,2-1.7,3.2-3.5,3.2c-2.6,0-3.9-2.2-3.9-5.2c0-2.9,1.8-5.1,4.3-5.1h0.1v1.9h-0.1c-1.7,0-2.8,1.2-2.8,3.3s0.8,3.3,2.3,3.3
		c0.9,0.1,1.7-0.6,1.8-1.5l1-4.2c0.5-2.1,1.6-3.4,3.6-3.4c2.5,0,4.2,2.4,4.2,5.6S58.6,377,56,377z"/>
	<path class="st2" d="M56,361.4h-0.1v-1.9h0.1c1.7,0,2.9-1.6,2.9-3.9s-0.9-3.7-2.7-3.7c-1,0-1.8,0.7-1.9,1.7l-0.9,4.1
		c-0.5,2-1.7,3.2-3.5,3.2c-2.6,0-3.9-2.2-3.9-5.2c0-2.9,1.8-5.1,4.3-5.1h0.1v1.9h-0.1c-1.7,0-2.8,1.2-2.8,3.3s0.8,3.3,2.3,3.3
		c0.9,0.1,1.7-0.6,1.8-1.5l1-4.2c0.5-2.1,1.6-3.4,3.6-3.4c2.5,0,4.2,2.4,4.2,5.6S58.6,361.4,56,361.4z"/>
	<path class="st2" d="M50.6,345.6V338h1.8v7.5H50.6z"/>
	<path class="st2" d="M41.1,332.4V320h1.8v10.4h6.7v-9.6h1.8v9.6h6.9V320H60v12.5L41.1,332.4z"/>
	<path class="st2" d="M46.1,314.9V313h2.3c-1.6-0.6-2.7-2.2-2.7-4.6c0-3.1,2.1-5.1,5.4-5.1H60v2h-8.5c-2.3,0-3.9,1-3.9,3.5
		c0,2.3,1.4,4,4.2,4H60v2L46.1,314.9z"/>
	<path class="st2" d="M60,292.9c0,2.6-1.3,3.8-3.7,3.8h-8.5v2.3h-1.7v-2.4h-4v-2h4v-3.5h1.7v3.5h8.5c1.4,0,2-0.5,2-2v-1.4H60V292.9z
		"/>
	<path class="st2" d="M46.1,286.4v-1.9h3.2c-2.1-0.5-3.3-2-3.3-4.5v-0.3H48v0.4c0,2.6,1.7,4.3,5.2,4.3H60v2L46.1,286.4z"/>
	<path class="st2" d="M54.2,276.4h-2.3c-3.4,0-6.2-2.8-6.2-6.2c0-3.4,2.8-6.2,6.2-6.2h2.3c3.4,0,6.2,2.8,6.2,6.2
		C60.4,273.6,57.6,276.4,54.2,276.4z M47.5,270.2c0,2.7,1.9,4.2,4.5,4.2h2.2c2.6,0,4.5-1.5,4.5-4.2s-1.9-4.2-4.5-4.2H52
		C49.3,266,47.5,267.5,47.5,270.2L47.5,270.2z"/>
	<path class="st2" d="M64.7,259H46.1V257h2.2c-1.6-1-2.6-2.8-2.5-4.7c0-3.7,2.7-5.8,6.2-5.8h2.1c3.6,0,6.2,2.2,6.2,5.7
		c0.1,1.9-0.8,3.7-2.4,4.7h6.8V259z M52.1,248.7c-2.5,0-4.6,1.2-4.6,4.1s2.1,4.2,4.8,4.2H54c2.4,0.2,4.4-1.6,4.6-3.9
		c0-0.1,0-0.2,0-0.3c0-2.6-2-4-4.6-4L52.1,248.7z"/>
	<path class="st2" d="M64.7,239.8l-4.7-1.8l-13.8,5.1v-2l11.7-4.3l-11.8-4v-2l13.8,5l4.7,1.8L64.7,239.8z"/>
	<path class="st2" d="M42.8,215.6v5.8h-1.8v-13.7h1.8v5.8H60v2.1L42.8,215.6z"/>
	<path class="st2" d="M54.3,206.5H52c-3.8,0-6.2-2.1-6.2-6s2.6-5.9,6-5.9h2v9.9h0.5c2.4,0,4.3-1.2,4.3-4.1c0.1-1.7-1-3.3-2.7-3.8
		v-1.9c2.6,0.6,4.4,3,4.2,5.6c0.2,3.1-2.2,5.9-5.3,6.1C54.7,206.5,54.5,206.5,54.3,206.5z M52.3,204.5v-8h-0.6
		c-2.5,0-4.3,1.2-4.3,3.9c0,3,2,4,4.5,4L52.3,204.5z"/>
	<path class="st2" d="M56,190.2h-0.1v-1.9h0.1c1.7,0,2.9-1.6,2.9-3.9s-0.8-3.7-2.6-3.7c-1,0-1.8,0.7-1.9,1.7l-0.9,4.1
		c-0.5,2-1.7,3.2-3.5,3.2c-2.6,0-3.9-2.2-3.9-5.2c0-2.9,1.8-5.1,4.3-5.1h0.1v1.9h-0.1c-1.7,0-2.8,1.2-2.8,3.3s0.8,3.3,2.3,3.3
		c0.9,0.1,1.7-0.6,1.8-1.5l1-4.2c0.5-2.1,1.6-3.4,3.6-3.4c2.5,0,4.2,2.4,4.2,5.6S58.6,190.2,56,190.2z"/>
	<path class="st2" d="M60,169.4c0,2.6-1.3,3.8-3.7,3.8h-8.5v2.4h-1.7v-2.4h-4v-2h4v-3.5h1.7v3.5h8.5c1.4,0,2-0.5,2-2.1v-1.4H60
		V169.4z"/>
	<path class="st2" d="M41.1,155.3v-2.1h17.1v-9.7H60v11.8L41.1,155.3z"/>
	<path class="st2" d="M54.2,140.1h-2.3c-3.4,0-6.2-2.8-6.2-6.2c0-3.4,2.8-6.2,6.2-6.2h2.3c3.4,0,6.2,2.8,6.2,6.2
		C60.4,137.3,57.6,140.1,54.2,140.1z M47.5,133.9c0,2.7,1.9,4.2,4.5,4.2h2.2c2.6,0,4.5-1.5,4.5-4.2s-1.9-4.2-4.5-4.2H52
		C49.3,129.7,47.5,131.1,47.5,133.9L47.5,133.9z"/>
	<path class="st2" d="M56,123.3h-0.1v-1.9h0.1c1.7,0,2.9-1.6,2.9-3.9s-0.8-3.7-2.6-3.7c-1,0-1.8,0.7-1.9,1.7l-0.9,4.1
		c-0.5,2-1.7,3.2-3.5,3.2c-2.6,0-3.9-2.2-3.9-5.2c0-2.9,1.8-5.1,4.3-5.1h0.1v1.9h-0.1c-1.7,0-2.8,1.2-2.8,3.3s0.8,3.3,2.3,3.3
		c0.9,0.1,1.7-0.6,1.8-1.5l1-4.2C53,113.2,54,112,56,112c2.5,0,4.2,2.4,4.2,5.6S58.6,123.3,56,123.3z"/>
	<path class="st2" d="M56,107.8h-0.1v-1.9h0.1c1.7,0,2.9-1.6,2.9-3.9s-0.8-3.7-2.6-3.7c-1,0-1.8,0.7-1.9,1.7l-0.9,4.1
		c-0.5,2.1-1.7,3.2-3.5,3.2c-2.6,0-3.9-2.2-3.9-5.2c0-2.9,1.8-5.1,4.3-5.1h0.1v1.9h-0.1c-1.7,0-2.8,1.2-2.8,3.3s0.8,3.3,2.3,3.3
		c0.9,0.1,1.7-0.6,1.8-1.5l1-4.2c0.5-2.1,1.6-3.4,3.6-3.4c2.5,0,4.2,2.4,4.2,5.6S58.6,107.8,56,107.8z"/>
</g>
<path class="st2" d="M142.6,515v-5.9c0-3,2.1-5.3,5.5-5.3s5.5,2.2,5.5,5.3v5.9c0,3-2.1,5.3-5.5,5.3S142.6,518,142.6,515z M152,515.1
	v-6c-0.1-2.1-1.9-3.7-4-3.6c-1.9,0.1-3.5,1.7-3.6,3.6v6c0.1,2.1,1.9,3.7,4,3.6C150.3,518.6,151.9,517.1,152,515.1z"/>
<g>
	<path class="st2" d="M254.8,518.6l6.7-7c1-0.9,1.7-2.1,1.8-3.4c0-1.7-1.4-3-3.1-2.9c-0.1,0-0.1,0-0.1,0c-1.6-0.2-3.1,1-3.3,2.7
		c0,0.2,0,0.3,0,0.5v0.4h-1.6v-0.4c0-2.9,2-4.5,5-4.5s5,1.7,5,4.3c0,1.9-1.3,3.4-2.6,4.7l-5.6,5.7h8.2v1.4h-10.3V518.6z"/>
	<path class="st2" d="M268.7,516.1h1.6c0.4,1.7,2,2.9,3.7,2.8c2.1,0.1,3.9-1.6,4-3.7c0.1-2.1-1.6-3.9-3.7-4l0,0
		c-1.4,0-2.8,0.7-3.6,1.8h-1.6l1.5-8.8h7.9v1.4h-6.5l-1,5.7c1-1,2.3-1.6,3.7-1.5c2.8-0.1,5.1,2.1,5.1,4.9c0,0.1,0,0.2,0,0.3
		c0,3-2.4,5.4-5.4,5.4c-0.1,0-0.2,0-0.3,0C271.5,520.4,269.2,518.6,268.7,516.1z"/>
</g>
<g>
	<path class="st2" d="M373.5,516.1h1.6c0.4,1.7,2,2.9,3.7,2.8c2.1,0.1,3.9-1.6,4-3.8c0.1-2.1-1.6-3.9-3.8-4c-1.4,0-2.8,0.7-3.6,1.8
		h-1.7l1.5-8.8h7.9v1.4h-6.5l-1,5.7c1-1,2.3-1.6,3.7-1.5c2.8-0.1,5.1,2.1,5.1,4.9c0,0.1,0,0.2,0,0.3c0,3-2.4,5.4-5.4,5.4
		c-0.1,0-0.2,0-0.3,0C376.2,520.4,373.9,518.6,373.5,516.1z"/>
	<path class="st2" d="M388,515v-5.9c0-3,2-5.3,5.5-5.3s5.5,2.2,5.5,5.3v5.9c0,3-2.1,5.3-5.5,5.3S388,518,388,515z M397.4,515.1v-6
		c-0.1-2.1-1.9-3.7-4-3.6c-1.9,0.1-3.5,1.7-3.6,3.6v6c0.1,2.1,1.9,3.7,4,3.6C395.7,518.6,397.3,517.1,397.4,515.1z"/>
</g>
<g>
	<path class="st2" d="M501.6,505.6h-8.1v-1.4h9.9v1.2l-7,14.6h-1.7L501.6,505.6z"/>
	<path class="st2" d="M506.1,516.1h1.6c0.4,1.7,2,2.9,3.7,2.8c2.1,0.1,3.9-1.6,4-3.7c0.1-2.1-1.6-3.9-3.7-4l0,0
		c-1.4,0-2.8,0.7-3.6,1.8h-1.6l1.5-8.8h7.9v1.4h-6.5l-1,5.7c1-1,2.3-1.6,3.7-1.5c2.8-0.1,5.1,2.1,5.1,4.9c0,0.1,0,0.2,0,0.3
		c0,3-2.4,5.4-5.4,5.4c-0.1,0-0.2,0-0.3,0C508.8,520.4,506.6,518.6,506.1,516.1z"/>
</g>
<g>
	<path class="st2" d="M609.6,506l-3.3,1.5V506l3.6-1.8h1.4V520h-1.7L609.6,506z"/>
	<path class="st2" d="M615.6,515v-5.9c0-3,2-5.3,5.5-5.3s5.5,2.2,5.5,5.3v5.9c0,3-2,5.3-5.5,5.3S615.6,518,615.6,515z M624.9,515.1
		v-6c-0.1-2.1-1.9-3.7-4-3.6c-1.9,0.1-3.5,1.7-3.6,3.6v6c0.1,2.1,1.9,3.7,4,3.6C623.3,518.6,624.8,517.1,624.9,515.1z"/>
	<path class="st2" d="M630.4,515v-5.9c0-3,2.1-5.3,5.5-5.3s5.5,2.2,5.5,5.3v5.9c0,3-2.1,5.3-5.5,5.3S630.4,518,630.4,515z
		 M639.7,515.1v-6c-0.1-2.1-1.9-3.7-4-3.6c-1.9,0.1-3.5,1.7-3.6,3.6v6c0.1,2.1,1.9,3.7,4,3.6C638.1,518.6,639.6,517.1,639.7,515.1z"
		/>
</g>
<g>
	<path class="st2" d="M1082.1,518.6l6.7-7c1-0.9,1.7-2.1,1.8-3.4c0-1.7-1.4-3-3.1-2.9c0,0-0.1,0-0.1,0c-1.6-0.2-3.1,1-3.3,2.7
		c0,0.2,0,0.3,0,0.5v0.4h-1.7v-0.4c0-2.9,2-4.5,5-4.5s5,1.7,5,4.3c0,1.9-1.3,3.4-2.6,4.7l-5.6,5.7h8.2v1.4h-10.2L1082.1,518.6z"/>
	<path class="st2" d="M1096,515v-5.9c0-3,2.1-5.3,5.5-5.3s5.5,2.2,5.5,5.3v5.9c0,3-2.1,5.3-5.5,5.3S1096,518,1096,515z
		 M1105.3,515.1v-6c-0.1-2.1-1.9-3.7-4-3.6c-1.9,0.1-3.5,1.7-3.6,3.6v6c0.1,2.1,1.9,3.7,4,3.6
		C1103.7,518.6,1105.2,517.1,1105.3,515.1z"/>
	<path class="st2" d="M1110.7,515v-5.9c0-3,2.1-5.3,5.5-5.3s5.5,2.2,5.5,5.3v5.9c0,3-2.1,5.3-5.5,5.3S1110.7,518,1110.7,515z
		 M1120.1,515.1v-6c-0.1-2.1-1.9-3.7-4-3.6c-1.9,0.1-3.5,1.7-3.6,3.6v6c0.1,2.1,1.9,3.7,4,3.6C1118.4,518.6,1120,517.1,1120.1,515.1
		z"/>
</g>
<line class="st3" x1="147.6" y1="470" x2="147.6" y2="490"/>
<line class="st3" x1="147.6" y1="470" x2="147.6" y2="490"/>
<line class="st3" x1="267.2" y1="470" x2="267.2" y2="490"/>
<line class="st3" x1="267.2" y1="470" x2="267.2" y2="490"/>
<line class="st3" x1="386.7" y1="470" x2="386.7" y2="490"/>
<line class="st3" x1="386.7" y1="470" x2="386.7" y2="490"/>
<line class="st3" x1="506.3" y1="470" x2="506.3" y2="490"/>
<line class="st3" x1="506.3" y1="470" x2="506.3" y2="490"/>
<line class="st3" x1="625.8" y1="470" x2="625.8" y2="490"/>
<line class="st3" x1="625.8" y1="470" x2="625.8" y2="490"/>
<line class="st3" x1="1104.1" y1="470" x2="1104.1" y2="490"/>
<line class="st3" x1="1104.1" y1="470" x2="1104.1" y2="490"/>
<g>
	<path class="st2" d="M968.9,506l-3.3,1.5V506l3.6-1.8h1.4V520h-1.7V506z"/>
	<path class="st2" d="M983,505.6h-8.1v-1.4h9.9v1.2l-7,14.6H976L983,505.6z"/>
	<path class="st2" d="M987.4,516.1h1.7c0.4,1.7,2,2.9,3.7,2.8c2.1,0.1,3.9-1.4,4-3.5c0-0.1,0-0.3,0-0.4c0.1-2-1.5-3.8-3.6-3.8
		c-0.1,0-0.1,0-0.2,0c-1.4,0-2.8,0.7-3.6,1.8h-1.7l1.5-8.8h7.9v1.4h-6.5l-1,5.7c1-1,2.3-1.6,3.7-1.5c2.8-0.1,5.1,2.1,5.1,4.9
		c0,0.1,0,0.2,0,0.3c0,3-2.4,5.4-5.4,5.4c-0.1,0-0.2,0-0.3,0C990.2,520.4,987.9,518.6,987.4,516.1z"/>
</g>
<line class="st3" x1="984.5" y1="470" x2="984.5" y2="490"/>
<line class="st3" x1="984.5" y1="470" x2="984.5" y2="490"/>
<g>
	<path class="st2" d="M848.1,506l-3.3,1.5V506l3.6-1.8h1.5V520h-1.7L848.1,506z"/>
	<path class="st2" d="M854.3,516.1h1.7c0.4,1.7,2,2.9,3.7,2.8c2.1,0.1,3.9-1.6,4-3.7s-1.6-3.9-3.7-4c-1.4,0-2.8,0.7-3.6,1.8h-1.7
		l1.5-8.8h7.9v1.4h-6.5l-1,5.7c1-1,2.3-1.6,3.7-1.5c2.8-0.1,5.1,2.1,5.1,4.9c0,0.1,0,0.2,0,0.3c0,3-2.4,5.4-5.4,5.4
		c-0.1,0-0.2,0-0.3,0C857,520.5,854.7,518.7,854.3,516.1z"/>
	<path class="st2" d="M868.8,515v-5.9c0-3,2.1-5.3,5.5-5.3s5.5,2.2,5.5,5.3v5.9c0,3-2.1,5.3-5.5,5.3S868.8,518,868.8,515z
		 M878.2,515.1v-6c-0.1-2.1-1.9-3.7-4-3.6c-1.9,0.1-3.5,1.7-3.6,3.6v6c0.1,2.1,1.9,3.7,4,3.6C876.5,518.6,878.1,517.1,878.2,515.1z"
		/>
</g>
<line class="st3" x1="865" y1="470" x2="865" y2="490"/>
<line class="st3" x1="865" y1="470" x2="865" y2="490"/>
<g>
	<path class="st2" d="M729.1,506l-3.3,1.5V506l3.6-1.8h1.5V520h-1.7L729.1,506z"/>
	<path class="st2" d="M735.1,518.6l6.7-7c1-0.9,1.7-2.1,1.8-3.4c0-1.7-1.4-3-3.1-2.9c-0.1,0-0.1,0-0.1,0c-1.6-0.2-3.1,1-3.3,2.7
		c0,0.2,0,0.3,0,0.5v0.4h-1.7v-0.4c0-2.9,2-4.5,5-4.5s5,1.7,5,4.3c0,1.9-1.3,3.4-2.6,4.7l-5.6,5.7h8.2v1.4h-10.3V518.6z"/>
	<path class="st2" d="M749,516.1h1.6c0.4,1.7,2,2.9,3.7,2.8c2.1,0.1,3.9-1.6,4-3.8s-1.6-3.9-3.8-4l0,0c-1.4,0-2.7,0.7-3.6,1.8h-1.7
		l1.5-8.8h7.9v1.4h-6.5l-1,5.7c1-1,2.3-1.6,3.7-1.5c2.8-0.1,5.1,2.1,5.1,4.9c0,0.1,0,0.2,0,0.3c0,3-2.4,5.4-5.4,5.4
		c-0.1,0-0.2,0-0.3,0C751.8,520.4,749.5,518.6,749,516.1z"/>
</g>
<line class="st3" x1="745.4" y1="470" x2="745.4" y2="490"/>
<line class="st3" x1="745.4" y1="470" x2="745.4" y2="490"/>
<line class="st3" x1="140" y1="461.5" x2="120" y2="461.5"/>
<line class="st3" x1="140" y1="461.5" x2="120" y2="461.5"/>
<line class="st3" x1="140" y1="294.8" x2="120" y2="294.8"/>
<line class="st3" x1="140" y1="294.8" x2="120" y2="294.8"/>
<line class="st3" x1="140" y1="239.3" x2="120" y2="239.3"/>
<line class="st3" x1="140" y1="239.3" x2="120" y2="239.3"/>
<line class="st3" x1="140" y1="183.8" x2="120" y2="183.8"/>
<line class="st3" x1="140" y1="183.8" x2="120" y2="183.8"/>
<line class="st3" x1="140" y1="128.2" x2="120" y2="128.2"/>
<line class="st3" x1="140" y1="128.2" x2="120" y2="128.2"/>
<line class="st3" x1="140" y1="72.7" x2="120" y2="72.7"/>
<line class="st3" x1="140" y1="72.7" x2="120" y2="72.7"/>
<polyline class="st4" points="1150,469.9 140,469.9 140,49.9 "/>
<path class="st2" d="M97.1,465.6c-0.1-1.9,1.3-3.5,3.1-3.9c-1.5-0.6-2.5-2-2.5-3.6c0-2.5,2-4.1,4.7-4.1s4.7,1.6,4.7,4.1
	c0,1.6-1,3-2.5,3.6c1.8,0.4,3.2,2,3.1,3.9c0,2.6-2.2,4.4-5.3,4.4S97.1,468.2,97.1,465.6z M106.2,465.6c0-2-1.5-3.2-3.7-3.2
	s-3.7,1.2-3.7,3.2s1.6,3.1,3.7,3.1S106.2,467.5,106.2,465.6z M102.5,461.1c1.7,0.1,3.1-1.2,3.1-2.9c0,0,0,0,0-0.1
	c-0.1-1.7-1.6-3-3.3-2.9c-1.6,0.1-2.9,1.4-2.9,2.9C99.4,459.8,100.8,461.2,102.5,461.1C102.4,461.1,102.5,461.1,102.5,461.1z"/>
<line class="st3" x1="140" y1="405.9" x2="120" y2="405.9"/>
<line class="st3" x1="140" y1="405.9" x2="120" y2="405.9"/>
<g>
	<path class="st2" d="M91.2,400.5L88,402v-1.5l3.5-1.7h1.4v15.4h-1.7V400.5z"/>
	<path class="st2" d="M97.1,409.3v-5.8c0-2.9,2-5.1,5.4-5.1s5.4,2.2,5.4,5.1v5.8c0,2.9-2,5.1-5.4,5.1S97.1,412.2,97.1,409.3z
		 M106.2,409.4v-5.9c0-2-1.7-3.7-3.7-3.7c-2,0-3.7,1.7-3.7,3.7v5.9c0,2,1.7,3.7,3.7,3.7C104.5,413.1,106.2,411.4,106.2,409.4
		L106.2,409.4z"/>
</g>
<line class="st3" x1="140" y1="350.4" x2="120" y2="350.4"/>
<line class="st3" x1="140" y1="350.4" x2="120" y2="350.4"/>
<g>
	<path class="st2" d="M91.9,345l-3.2,1.5V345l3.5-1.7h1.4v15.4h-1.7V345z"/>
	<path class="st2" d="M97.8,357.3l6.5-6.8c1-0.8,1.6-2,1.7-3.3c0-1.6-1.3-2.9-2.9-2.9c-0.1,0-0.2,0-0.3,0c-1.6-0.2-3.1,1-3.2,2.6
		c0,0.2,0,0.3,0,0.5v0.4h-1.6v-0.4c0-2.8,2-4.4,4.8-4.4s4.8,1.6,4.8,4.2c0,1.9-1.3,3.3-2.5,4.5l-5.4,5.5h8v1.4h-10L97.8,357.3z"/>
</g>
<g>
	<path class="st2" d="M91.6,289.4l-3.2,1.5v-1.5l3.5-1.7h1.4v15.4h-1.7V289.4z"/>
	<path class="st2" d="M104.6,299.4h-7.3v-1.3l5.1-10.5h1.6l-5,10.5h5.7v-3.6h1.6v3.6h2.1v1.3h-2.1v3.7h-1.6L104.6,299.4z"/>
</g>
<g>
	<path class="st2" d="M91.8,233.9l-3.2,1.5v-1.5l3.5-1.7h1.4v15.4h-1.7L91.8,233.9z"/>
	<path class="st2" d="M104.8,232.1l-4.5,6.8l0,0c0.8-0.9,1.9-1.4,3.1-1.4c2.7,0,4.8,2.1,4.8,4.8c0,0.1,0,0.2,0,0.3
		c0,2.9-2.4,5.2-5.3,5.2c0,0-0.1,0-0.1,0c-2.8,0.2-5.2-2-5.4-4.8c0-0.1,0-0.2,0-0.4c0.1-1.6,0.7-3.2,1.6-4.5l3.8-6L104.8,232.1z
		 M102.9,246.5c2,0.1,3.7-1.5,3.7-3.5c0-0.1,0-0.2,0-0.3c0.1-2-1.3-3.7-3.3-3.8c-0.1,0-0.2,0-0.4,0c-2,0-3.7,1.6-3.8,3.6
		c0,0.1,0,0.1,0,0.2c-0.1,2,1.4,3.6,3.3,3.8C102.6,246.5,102.7,246.5,102.9,246.5z"/>
</g>
<g>
	<path class="st2" d="M91.2,178.3l-3.2,1.5v-1.5l3.5-1.7h1.4V192h-1.7V178.3z"/>
	<path class="st2" d="M97.1,187.9c-0.1-1.9,1.3-3.5,3.1-3.9c-1.5-0.6-2.5-2-2.5-3.6c0-2.6,2-4.1,4.7-4.1s4.7,1.6,4.7,4.1
		c0,1.6-1,3-2.5,3.6c1.8,0.4,3.2,2,3.1,3.9c0,2.6-2.2,4.4-5.3,4.4S97.1,190.5,97.1,187.9z M106.2,187.9c0-2-1.5-3.2-3.7-3.2
		s-3.7,1.2-3.7,3.2s1.6,3.1,3.7,3.1S106.2,189.8,106.2,187.9z M102.5,183.4c1.7,0.1,3.1-1.2,3.1-2.9c0,0,0,0,0-0.1
		c-0.1-1.7-1.6-3-3.3-2.9c-1.6,0.1-2.9,1.4-2.9,2.9C99.4,182.2,100.8,183.5,102.5,183.4C102.4,183.4,102.5,183.4,102.5,183.4
		L102.5,183.4z"/>
</g>
<g>
	<path class="st2" d="M83.5,135.1l6.5-6.9c1-0.8,1.6-2,1.7-3.3c0-1.6-1.3-2.9-2.9-2.9c-0.1,0-0.2,0-0.3,0c-1.6-0.2-3,1-3.2,2.6
		c0,0.2,0,0.3,0,0.5v0.4h-1.6v-0.4c0-2.8,2-4.4,4.8-4.4s4.8,1.6,4.8,4.2c0,1.9-1.3,3.3-2.5,4.6l-5.4,5.5h8v1.4h-10V135.1z"/>
	<path class="st2" d="M97.1,131.6v-5.8c0-2.9,2-5.1,5.4-5.1s5.4,2.2,5.4,5.1v5.8c0,2.9-2,5.1-5.4,5.1S97.1,134.5,97.1,131.6z
		 M106.2,131.7v-5.9c0-2-1.7-3.7-3.7-3.7c-2,0-3.7,1.7-3.7,3.7v5.9c0,2,1.7,3.7,3.7,3.7C104.5,135.4,106.2,133.7,106.2,131.7z"/>
</g>
<g>
	<path class="st2" d="M84.3,79.6l6.5-6.9c1-0.8,1.6-2,1.7-3.3c0-1.6-1.3-2.9-2.9-2.9c-0.1,0-0.2,0-0.2,0c-1.6-0.2-3.1,1-3.2,2.6
		c0,0.2,0,0.3,0,0.5V70h-1.6v-0.4c0-2.8,2-4.4,4.8-4.4s4.8,1.7,4.8,4.2c0,1.9-1.3,3.3-2.5,4.6l-5.4,5.5h8v1.4h-10L84.3,79.6z"/>
	<path class="st2" d="M97.8,79.6l6.5-6.9c1-0.8,1.6-2,1.7-3.3c0-1.6-1.3-2.9-2.9-2.9c-0.1,0-0.2,0-0.2,0c-1.6-0.2-3.1,1-3.2,2.6
		c0,0.2,0,0.3,0,0.5V70h-1.6v-0.4c0-2.8,2-4.4,4.8-4.4s4.8,1.7,4.8,4.2c0,1.9-1.3,3.3-2.5,4.6l-5.4,5.5h8v1.4h-10L97.8,79.6z"/>
</g>
<g>
	<path class="st2" d="M353,560h-2v-14.8l-5.2,10.3h-2l-5.2-10.3V560h-2v-18.9h2l6.2,12.5l6.2-12.5h2L353,560z"/>
	<path class="st2" d="M358.3,554.2V552c0-3.4,2.8-6.2,6.2-6.2c3.4,0,6.2,2.8,6.2,6.2v2.3c0,3.4-2.8,6.2-6.2,6.2
		C361.1,560.4,358.4,557.6,358.3,554.2L358.3,554.2z M364.5,547.5c-2.7,0-4.2,1.9-4.2,4.5v2.2c0,2.6,1.5,4.5,4.2,4.5
		s4.2-1.9,4.2-4.5V552C368.7,549.4,367.3,547.5,364.5,547.5L364.5,547.5z"/>
	<path class="st2" d="M387.4,540.3V560h-1.9v-2.2c-1,1.6-2.8,2.6-4.7,2.5c-3.6,0-5.8-2.7-5.8-6.2V552c0-3.6,2.2-6.2,5.7-6.2
		c1.9-0.1,3.6,0.8,4.6,2.4v-7.9L387.4,540.3z M377.1,554c0,2.5,1.2,4.6,4.1,4.6s4.2-2.1,4.2-4.8v-1.8c0.2-2.4-1.6-4.4-3.9-4.6
		c-0.1,0-0.2,0-0.3,0c-2.6,0-4,2-4,4.6V554z"/>
	<path class="st2" d="M392.5,554.3v-2.2c0-3.8,2.1-6.2,6-6.2s5.9,2.6,5.9,6v2.1h-9.9v0.5c0,2.4,1.2,4.3,4.1,4.3
		c1.7,0.1,3.3-1,3.8-2.7h1.8c-0.6,2.6-3,4.4-5.6,4.2C395,560.3,392.5,558,392.5,554.3z M394.5,552.3h8v-0.7c0-2.5-1.2-4.3-3.9-4.3
		c-3,0-4,2-4,4.5L394.5,552.3z"/>
	<path class="st2" d="M409.6,540.3h2.1V560h-2.1V540.3z"/>
	<path class="st2" d="M424.5,554.7v-0.5h2v0.4c0,2.4,1.9,4,5,4s5-1.3,5-3.8c0-1.5-0.9-2.6-2.7-3.1l-5.3-1.4
		c-2.7-0.7-3.8-2.3-3.8-4.5c0-3.3,2.6-5.3,6.5-5.3s6.6,2.2,6.6,5.4v0.5h-2v-0.4c0-2.2-1.7-3.8-4.6-3.8c-2.6,0-4.5,1.2-4.5,3.5
		c-0.1,1.4,0.9,2.7,2.4,2.9l5.5,1.5c2.3,0.6,4,2.2,4,4.6c0,3.5-3,5.6-7,5.6S424.5,558.2,424.5,554.7z"/>
	<path class="st2" d="M444.9,541.3c0.7,0,1.2,0.6,1.2,1.3s-0.6,1.2-1.3,1.2c-0.7,0-1.2-0.6-1.2-1.2c0-0.7,0.5-1.2,1.2-1.3
		C444.8,541.3,444.9,541.3,444.9,541.3z M443.9,546.2h2.1V560h-2.1L443.9,546.2z"/>
	<path class="st2" d="M451.1,558.4l8.1-10.7h-7.8v-1.6h10.1v1.5l-8.1,10.7h8.3v1.6h-10.5V558.4z"/>
	<path class="st2" d="M465.7,554.3v-2.2c0-3.8,2.1-6.2,6-6.2s5.9,2.6,5.9,6v2.1h-9.9v0.5c0,2.4,1.2,4.3,4.1,4.3
		c1.7,0.1,3.3-1,3.8-2.7h1.8c-0.6,2.6-3,4.4-5.6,4.2C468.2,560.3,465.7,558,465.7,554.3z M467.7,552.3h8v-0.7c0-2.5-1.2-4.3-3.9-4.3
		c-3,0-4,2-4,4.5L467.7,552.3z"/>
	<path class="st2" d="M495.1,538.9c-2.2,4.7-3.2,8.3-3.2,12.4s1,7.7,3.2,12.4h-2c-4.4-7.7-4.4-17.1,0-24.7H495.1z"/>
	<path class="st2" d="M504,542.8h-5.8v-1.8h13.7v1.8h-5.8V560H504V542.8z"/>
	<path class="st2" d="M514.6,546.2h1.9v3.2c0.5-2.1,2-3.3,4.5-3.3h0.3v1.9h-0.4c-2.6,0-4.3,1.7-4.3,5.2v6.8h-2L514.6,546.2z"/>
	<path class="st2" d="M534,560v-1.7c-1.2,1.4-2.9,2.1-4.8,2c-3.3,0-5.2-1.8-5.2-4.3c0-2.7,2.2-4.3,5.5-4.3c1.7-0.1,3.3,0.6,4.4,1.7
		v-2.6c0.1-1.8-1.3-3.3-3-3.3c-0.1,0-0.3,0-0.4,0c-1.5-0.1-2.9,0.7-3.5,2.1h-1.9c0.7-2.3,2.9-3.9,5.4-3.7c3.4,0,5.5,2.2,5.5,5v9.1
		H534z M533.9,556c0-1.7-2-2.9-4.1-2.9c-2.3,0-3.8,1.1-3.8,3s1.6,3,3.7,3S533.9,557.7,533.9,556L533.9,556z"/>
	<path class="st2" d="M541.5,546.2h2v2.3c0.6-1.6,2.2-2.7,4.6-2.7c3.1,0,5.1,2.1,5.1,5.4v8.7h-2v-8.4c0-2.3-1.1-3.9-3.5-3.9
		c-2.3,0-4,1.4-4,4.2v8.1h-2.1L541.5,546.2z"/>
	<path class="st2" d="M558.1,556v-0.1h1.9v0.1c0,1.7,1.6,2.9,3.9,2.9s3.7-0.8,3.7-2.6c0-1-0.7-1.8-1.7-1.9l-4.1-0.9
		c-2-0.5-3.2-1.7-3.2-3.5c0-2.6,2.2-3.9,5.2-3.9c2.9,0,5.1,1.8,5.1,4.3v0.1H567v-0.1c0-1.7-1.2-2.8-3.3-2.8s-3.3,0.8-3.3,2.3
		c-0.1,0.9,0.6,1.7,1.5,1.8l4.2,1c2.1,0.5,3.4,1.6,3.4,3.6c0,2.5-2.4,4.2-5.6,4.2S558.1,558.6,558.1,556z"/>
	<path class="st2" d="M575,547.8h-2v-1.7h2v-1.8c0-2.7,1.2-4,4-4h2v1.7h-1.8c-1.5,0-2.1,0.7-2.1,2.2v2h3.4v1.7h-3.4V560H575V547.8z"
		/>
	<path class="st2" d="M583.5,554.2V552c0-3.4,2.8-6.2,6.2-6.2c3.4,0,6.2,2.8,6.2,6.2v2.3c0,3.4-2.8,6.2-6.2,6.2
		C586.2,560.4,583.5,557.7,583.5,554.2L583.5,554.2z M589.7,547.5c-2.7,0-4.2,1.9-4.2,4.5v2.2c0,2.6,1.5,4.5,4.2,4.5
		s4.2-1.9,4.2-4.5V552C593.8,549.4,592.4,547.5,589.7,547.5z"/>
	<path class="st2" d="M600.9,546.2h1.9v3.2c0.5-2.1,2-3.3,4.5-3.3h0.3v1.9h-0.4c-2.6,0-4.3,1.7-4.3,5.2v6.8h-2L600.9,546.2z"/>
	<path class="st2" d="M611.7,546.2h2v2.3c0.6-1.6,2.2-2.7,4.6-2.7c1.9-0.1,3.6,1,4.4,2.7c1-1.8,3-2.8,5-2.7c3,0,5,2.2,5,5.4v8.7h-2
		v-8.4c0-2.3-1.2-3.9-3.4-3.9s-3.9,1.4-3.9,4.2v8.1h-2v-8.4c0-2.3-1.2-3.9-3.4-3.9s-3.9,1.4-3.9,4.2v8.1h-2L611.7,546.2z"/>
	<path class="st2" d="M637.5,554.3v-2.2c0-3.8,2.1-6.2,6-6.2s5.9,2.6,5.9,6v2.1h-9.9v0.5c0,2.4,1.2,4.3,4.1,4.3
		c1.7,0.1,3.3-1,3.8-2.7h1.8c-0.6,2.6-3,4.4-5.7,4.2C640.1,560.3,637.5,558,637.5,554.3z M639.5,552.3h8v-0.7c0-2.5-1.2-4.3-3.9-4.3
		c-3,0-4,2-4,4.5L639.5,552.3z"/>
	<path class="st2" d="M654.5,546.2h1.9v3.2c0.5-2.1,2-3.3,4.5-3.3h0.3v1.9h-0.4c-2.6,0-4.3,1.7-4.3,5.2v6.8h-2V546.2z"/>
	<path class="st2" d="M673,541.1h12.5v1.8h-10.4v6.7h9.6v1.8h-9.6v6.9h10.4v1.8H673V541.1z"/>
	<path class="st2" d="M690.5,546.2h1.9v2.3c0.7-1.6,2.2-2.7,4.6-2.7c1.9-0.1,3.6,1,4.4,2.7c1-1.8,3-2.8,5-2.7c3,0,5,2.2,5,5.4v8.7
		h-2v-8.4c0-2.3-1.2-3.9-3.4-3.9s-4,1.4-4,4.2v8.1h-2v-8.4c0-2.3-1.2-3.9-3.4-3.9s-3.9,1.4-3.9,4.2v8.1h-2L690.5,546.2z"/>
	<path class="st2" d="M719,540.3v7.9c1-1.6,2.8-2.5,4.6-2.4c3.5,0,5.7,2.6,5.7,6.2v2.1c0,3.5-2.1,6.2-5.8,6.2
		c-1.9,0.1-3.7-0.9-4.7-2.5v2.2H717v-19.7H719z M727.3,552.1c0-2.5-1.4-4.6-4-4.6c-2.4,0-4.3,1.9-4.3,4.3c0,0.1,0,0.2,0,0.3v1.8
		c0,2.7,1.5,4.8,4.2,4.8s4.1-2,4.1-4.6L727.3,552.1z"/>
	<path class="st2" d="M733.8,554.3v-2.2c0-3.8,2.1-6.2,6-6.2s5.9,2.6,5.9,6v2.1h-9.9v0.5c0,2.4,1.2,4.3,4.1,4.3
		c1.7,0.1,3.3-1,3.8-2.7h1.8c-0.6,2.6-3,4.4-5.6,4.2C736.3,560.3,733.8,558,733.8,554.3z M735.8,552.3h8v-0.7c0-2.5-1.2-4.3-3.9-4.3
		c-3,0-4,2-4,4.5L735.8,552.3z"/>
	<path class="st2" d="M762.5,540.3V560h-1.9v-2.2c-1,1.6-2.8,2.6-4.7,2.5c-3.7,0-5.8-2.7-5.8-6.2V552c0-3.6,2.2-6.2,5.7-6.2
		c1.9-0.1,3.6,0.8,4.6,2.4v-7.9L762.5,540.3z M752.1,554c0,2.5,1.2,4.6,4.1,4.6s4.2-2.1,4.2-4.8v-1.8c0.2-2.4-1.6-4.4-3.9-4.6
		c-0.1,0-0.2,0-0.3,0c-2.6,0-4,2-4,4.6L752.1,554z"/>
	<path class="st2" d="M779.9,540.3V560H778v-2.2c-1,1.6-2.8,2.6-4.7,2.5c-3.6,0-5.8-2.7-5.8-6.2V552c0-3.6,2.2-6.2,5.7-6.2
		c1.9-0.1,3.6,0.8,4.6,2.4v-7.9L779.9,540.3z M769.6,554c0,2.5,1.2,4.6,4.1,4.6s4.2-2.1,4.2-4.8v-1.8c0.2-2.4-1.6-4.4-3.9-4.6
		c-0.1,0-0.2,0-0.3,0c-2.6,0-4,2-4,4.6L769.6,554z"/>
	<path class="st2" d="M786.8,541.3c0.7,0,1.2,0.6,1.2,1.3c0,0.7-0.6,1.2-1.3,1.2c-0.7,0-1.2-0.6-1.2-1.2c0-0.7,0.5-1.2,1.2-1.3
		C786.7,541.3,786.7,541.3,786.8,541.3z M785.8,546.2h2.1V560h-2.1V546.2z"/>
	<path class="st2" d="M793.7,546.2h1.9v2.3c0.7-1.6,2.2-2.7,4.6-2.7c3.1,0,5.1,2.1,5.1,5.4v8.7h-2v-8.4c0-2.3-1.1-3.9-3.5-3.9
		c-2.3,0-4,1.4-4,4.2v8.1h-2L793.7,546.2z"/>
	<path class="st2" d="M810.5,561.5h2c0.8,1.3,2.1,1.9,4,1.9c2.4,0,4-1.3,4-3.5v-3.1c-0.4,1.3-2.3,2.6-4.6,2.6
		c-3,0.1-5.5-2.1-5.6-5.1c0-0.2,0-0.4,0-0.5v-2.3c-0.2-2.9,2.1-5.5,5-5.6c0.2,0,0.4,0,0.6,0c1.9-0.1,3.8,0.9,4.7,2.6v-2.3h2V560
		c0,2.9-2.6,5-6.1,5C813.7,565,811.2,563.7,810.5,561.5z M820.5,553.6v-1.8c0-2.3-1.8-4.2-4.1-4.3c0,0-0.1,0-0.1,0
		c-2.7,0-4.1,1.5-4.1,4.1v2c0,2.6,1.4,4.1,4,4.1c2.2,0.2,4.1-1.5,4.3-3.7C820.5,553.9,820.5,553.7,820.5,553.6L820.5,553.6z"/>
	<path class="st2" d="M843,541.1c4.8,0,7.5,3,7.5,7.3v4.4c0,4.2-2.7,7.3-7.5,7.3h-7.1v-18.9H843z M848.4,552.7v-4.4
		c0-3.3-1.9-5.5-5.7-5.5H838v15.4h4.7C846.4,558.3,848.3,556,848.4,552.7L848.4,552.7z"/>
	<path class="st2" d="M857,541.3c0.7,0,1.2,0.6,1.2,1.3c0,0.7-0.6,1.2-1.3,1.2c-0.7,0-1.2-0.6-1.2-1.2c0-0.7,0.5-1.2,1.2-1.3
		C856.9,541.3,856.9,541.3,857,541.3z M856,546.2h2V560h-2V546.2z"/>
	<path class="st2" d="M863.8,546.2h1.9v2.3c0.7-1.6,2.2-2.7,4.6-2.7c1.9-0.1,3.6,1,4.4,2.7c1-1.8,3-2.8,5-2.7c3,0,5,2.2,5,5.4v8.7
		h-2v-8.4c0-2.3-1.2-3.9-3.4-3.9s-3.9,1.4-3.9,4.2v8.1h-2v-8.4c0-2.3-1.2-3.9-3.4-3.9s-3.9,1.4-3.9,4.2v8.1h-2L863.8,546.2z"/>
	<path class="st2" d="M889.6,554.3v-2.2c0-3.8,2.1-6.2,6-6.2s5.9,2.6,5.9,6v2.1h-9.9v0.5c0,2.4,1.2,4.3,4.1,4.3
		c1.7,0.1,3.3-1,3.8-2.7h1.8c-0.6,2.6-3,4.4-5.6,4.2C892.2,560.3,889.6,558,889.6,554.3z M891.6,552.3h8v-0.7c0-2.5-1.2-4.3-3.9-4.3
		c-3,0-4,2-4,4.5L891.6,552.3z"/>
	<path class="st2" d="M906.6,546.2h2v2.3c0.6-1.6,2.2-2.7,4.6-2.7c3.1,0,5.1,2.1,5.1,5.4v8.7h-2.1v-8.4c0-2.3-1-3.9-3.5-3.9
		c-2.3,0-4,1.4-4,4.2v8.1h-2L906.6,546.2z"/>
	<path class="st2" d="M923.2,556v-0.1h1.9v0.1c0,1.7,1.6,2.9,3.9,2.9s3.7-0.8,3.7-2.6c0-1-0.7-1.8-1.7-1.9l-4.1-0.9
		c-2-0.5-3.2-1.7-3.2-3.5c0-2.6,2.2-3.9,5.2-3.9c2.9,0,5.1,1.8,5.1,4.3v0.1h-1.9v-0.1c0-1.7-1.2-2.8-3.3-2.8s-3.3,0.8-3.3,2.3
		c-0.1,0.9,0.6,1.7,1.5,1.8l4.2,1c2.1,0.5,3.4,1.6,3.4,3.6c0,2.5-2.4,4.2-5.6,4.2S923.2,558.6,923.2,556z"/>
	<path class="st2" d="M940.6,541.3c0.7,0,1.2,0.6,1.2,1.3c0,0.7-0.6,1.2-1.3,1.2c-0.7,0-1.2-0.6-1.2-1.2c0-0.7,0.5-1.2,1.2-1.3
		C940.5,541.3,940.5,541.3,940.6,541.3z M939.6,546.2h2.1V560h-2.1V546.2z"/>
	<path class="st2" d="M946.8,554.2V552c0-3.4,2.8-6.2,6.2-6.2c3.4,0,6.2,2.8,6.2,6.2v2.3c0,3.4-2.8,6.2-6.2,6.2
		C949.5,560.4,946.8,557.7,946.8,554.2L946.8,554.2z M953,547.5c-2.7,0-4.2,1.9-4.2,4.5v2.2c0,2.6,1.5,4.5,4.2,4.5s4.2-1.9,4.2-4.5
		V552C957.1,549.4,955.7,547.5,953,547.5z"/>
	<path class="st2" d="M964.2,546.2h1.9v2.3c0.7-1.6,2.2-2.7,4.6-2.7c3.1,0,5.1,2.1,5.1,5.4v8.7h-2v-8.4c0-2.3-1-3.9-3.5-3.9
		c-2.3,0-4,1.4-4,4.2v8.1h-2L964.2,546.2z"/>
	<path class="st2" d="M982.1,538.9c4.3,7.7,4.3,17.1,0,24.7h-2c2.2-4.7,3.2-8.3,3.2-12.4s-1-7.7-3.2-12.4H982.1z"/>
</g>
<line class="st4" x1="140" y1="600" x2="1150" y2="600"/>
<g>
	<path class="st2" d="M176.4,643.8h-7.3v-1.3l5.1-10.5h1.5l-5,10.5h5.6v-3.7h1.6v3.7h2.1v1.3H178v3.7h-1.6L176.4,643.8z"/>
	<path class="st2" d="M183.5,631.4h1.7v10.1l4.9-5.3h2.1l-5.2,5.4l5.4,5.8h-2.1l-5.1-5.7v5.7h-1.7L183.5,631.4z"/>
	<path class="st2" d="M203.9,633.5h-4.7V632h11.1v1.4h-4.7v14h-1.7L203.9,633.5z"/>
	<path class="st2" d="M211.9,636.2h1.6v2.6c0.4-1.7,1.6-2.7,3.7-2.7h0.3v1.6h-0.3c-2.1,0-3.5,1.4-3.5,4.2v5.5h-1.7L211.9,636.2z"/>
	<path class="st2" d="M227.2,647.4V646c-1,1.1-2.4,1.8-3.9,1.7c-2.7,0-4.3-1.5-4.3-3.5s1.8-3.5,4.5-3.5c1.3,0,2.6,0.5,3.6,1.4V640
		c0.1-1.4-1.1-2.7-2.5-2.7c-0.1,0-0.2,0-0.3,0c-1.2-0.1-2.3,0.6-2.8,1.7H220c0.6-1.9,2.4-3.1,4.4-3c2.8,0,4.5,1.8,4.5,4v7.5
		L227.2,647.4z M227.2,644.1c0-1.4-1.7-2.4-3.4-2.4c-1.9,0-3.1,0.9-3.1,2.5s1.3,2.4,3,2.4S227.2,645.6,227.2,644.1L227.2,644.1z"/>
	<path class="st2" d="M233.8,632.2c0.6,0,1,0.5,0.9,1.1c0,0.6-0.5,1-1.1,0.9c-0.5,0-0.9-0.5-0.9-1
		C232.7,632.6,233.1,632.2,233.8,632.2C233.7,632.2,233.7,632.2,233.8,632.2z M232.9,636.2h1.7v11.3h-1.7V636.2z"/>
	<path class="st2" d="M238.8,636.2h1.6v1.9c0.7-1.5,2.2-2.3,3.8-2.2c2.5,0,4.1,1.7,4.1,4.4v7.1h-1.7v-6.9c0-1.9-0.9-3.2-2.9-3.2
		c-1.7-0.1-3.2,1.2-3.3,2.9c0,0.2,0,0.4,0,0.5v6.6h-1.7V636.2z"/>
	<path class="st2" d="M257.4,643.2v-0.4h1.6v0.3c0,1.9,1.6,3.3,4.1,3.3s4.1-1.1,4.1-3.1c0-1.3-0.9-2.3-2.2-2.5l-4.4-1.2
		c-2.2-0.6-3.1-1.9-3.1-3.6c0-2.7,2.2-4.3,5.3-4.3s5.4,1.8,5.4,4.4v0.4h-1.6v-0.3c0-1.8-1.4-3.1-3.8-3.1c-2.2,0-3.7,1-3.7,2.8
		c-0.1,1.2,0.8,2.2,1.9,2.4l4.5,1.2c1.9,0.5,3.2,1.8,3.2,3.7c0,2.8-2.4,4.6-5.7,4.6S257.4,646,257.4,643.2z"/>
	<path class="st2" d="M280.2,647.4V646c-1,1.1-2.4,1.8-3.9,1.7c-2.7,0-4.3-1.5-4.3-3.5s1.8-3.5,4.5-3.5c1.3,0,2.7,0.5,3.6,1.4V640
		c0.1-1.4-1-2.7-2.5-2.7c-0.1,0-0.2,0-0.3,0c-1.2-0.1-2.3,0.6-2.8,1.7H273c0.6-1.9,2.4-3.1,4.4-3c2.8,0,4.5,1.8,4.5,4v7.5
		L280.2,647.4z M280.1,644.1c0-1.4-1.7-2.4-3.4-2.4c-1.9,0-3.1,0.9-3.1,2.5s1.3,2.4,3,2.4S280.1,645.6,280.1,644.1L280.1,644.1z"/>
	<path class="st2" d="M285.8,636.2h1.6v1.9c0.6-1.4,2.1-2.3,3.7-2.2c1.5-0.1,2.9,0.8,3.6,2.2c0.9-1.4,2.4-2.3,4.1-2.2
		c2.5,0,4,1.8,4,4.4v7.1h-1.7v-6.9c0-1.9-0.9-3.2-2.8-3.2s-3.2,1.1-3.2,3.5v6.6h-1.7v-6.9c0-1.9-0.9-3.2-2.8-3.2s-3.2,1.1-3.2,3.5
		v6.6h-1.7L285.8,636.2z"/>
	<path class="st2" d="M306.8,651.3v-15.1h1.6v1.8c0.8-1.3,2.3-2.1,3.8-2c3,0,4.7,2.2,4.7,5v1.7c0,2.9-1.8,5-4.7,5
		c-1.5,0.1-2.9-0.7-3.8-1.9v5.5L306.8,651.3z M315.2,641c0-2.1-1-3.7-3.3-3.7s-3.4,1.7-3.4,3.9v1.5c-0.1,1.9,1.3,3.6,3.2,3.7
		c0.1,0,0.2,0,0.2,0c2.1,0,3.3-1.7,3.3-3.7V641z"/>
	<path class="st2" d="M320.6,631.4h1.7v16.1h-1.7V631.4z"/>
	<path class="st2" d="M325.9,642.8V641c0-3,1.7-5.1,4.9-5.1s4.8,2.1,4.8,4.9v1.7h-8.1v0.4c0,2,1,3.5,3.4,3.5
		c1.4,0.1,2.7-0.8,3.1-2.2h1.5c-0.5,2.1-2.4,3.6-4.6,3.5c-2.6,0.2-4.8-1.7-5-4.3C325.9,643.2,325.9,643,325.9,642.8z M327.5,641.2
		h6.5v-0.5c0-2-1-3.5-3.2-3.5c-2.4,0-3.3,1.6-3.3,3.7L327.5,641.2z"/>
	<path class="st2" d="M338.7,644.2v-0.1h1.5v0.1c0,1.4,1.3,2.3,3.2,2.3s3-0.7,3-2.1c0-0.8-0.6-1.5-1.4-1.6l-3.3-0.8
		c-1.7-0.4-2.6-1.4-2.6-2.9c0-2.1,1.8-3.2,4.3-3.2s4.2,1.4,4.2,3.5v0.1h-1.5v-0.1c0-1.4-1-2.3-2.7-2.3s-2.7,0.7-2.7,1.9
		c-0.1,0.7,0.5,1.4,1.2,1.5l3.5,0.8c1.7,0.4,2.8,1.3,2.8,2.9c0,2-1.9,3.5-4.6,3.5S338.7,646.3,338.7,644.2z"/>
</g>
<circle class="st5" cx="150" cy="640" r="10"/>
<g>
	<path class="st2" d="M676.6,633.8l-3.2,1.5v-1.5l3.5-1.7h1.4v15.4h-1.7V633.8z"/>
	<path class="st2" d="M682.6,643.4c-0.1-1.9,1.3-3.5,3.1-3.9c-1.5-0.6-2.5-2-2.5-3.6c0-2.6,2-4.1,4.7-4.1s4.7,1.6,4.7,4.1
		c0,1.6-1,3-2.5,3.6c1.8,0.4,3.2,2,3.1,3.9c0,2.6-2.2,4.4-5.3,4.4S682.6,646,682.6,643.4z M691.6,643.4c0-2-1.5-3.2-3.7-3.2
		s-3.7,1.2-3.7,3.2s1.6,3.1,3.7,3.1S691.6,645.2,691.6,643.4z M688,638.9c1.7,0.1,3.1-1.2,3.1-2.9c0,0,0,0,0,0
		c-0.1-1.7-1.6-3-3.3-2.9c-1.6,0.1-2.9,1.4-2.9,2.9C684.9,637.6,686.3,638.9,688,638.9C688,638.9,688,638.9,688,638.9z"/>
	<path class="st2" d="M697.2,631.4h1.7v10.1l4.9-5.3h2.1l-5.2,5.4l5.4,5.8h-2l-5.1-5.7v5.7h-1.7L697.2,631.4z"/>
	<path class="st2" d="M717.5,633.5h-4.7V632H724v1.4h-4.7v14h-1.7L717.5,633.5z"/>
	<path class="st2" d="M725.6,636.2h1.6v2.6c0.4-1.7,1.6-2.7,3.7-2.7h0.3v1.6h-0.3c-2.1,0-3.5,1.4-3.5,4.2v5.5h-1.7V636.2z"/>
	<path class="st2" d="M740.9,647.4V646c-1,1.1-2.4,1.8-3.9,1.7c-2.7,0-4.3-1.5-4.3-3.5s1.8-3.5,4.5-3.5c1.3,0,2.7,0.5,3.6,1.4V640
		c0.1-1.4-1-2.7-2.5-2.7c-0.1,0-0.2,0-0.3,0c-1.2-0.1-2.3,0.6-2.8,1.7h-1.5c0.6-1.9,2.4-3.1,4.4-3c2.8,0,4.5,1.8,4.5,4v7.5
		L740.9,647.4z M740.8,644.1c0-1.4-1.7-2.4-3.4-2.4c-1.9,0-3.1,0.9-3.1,2.5s1.3,2.4,3,2.4S740.8,645.6,740.8,644.1L740.8,644.1z"/>
	<path class="st2" d="M747.4,632.2c0.6,0,1,0.5,0.9,1.1c0,0.6-0.5,1-1.1,0.9c-0.5,0-0.9-0.5-0.9-1
		C746.3,632.6,746.8,632.2,747.4,632.2C747.4,632.2,747.4,632.2,747.4,632.2z M746.6,636.2h1.7v11.3h-1.7V636.2z"/>
	<path class="st2" d="M752.5,636.2h1.6v1.9c0.7-1.5,2.2-2.3,3.8-2.2c2.5,0,4.1,1.7,4.1,4.4v7.1h-1.7v-6.9c0-1.9-0.9-3.2-2.9-3.2
		c-1.7-0.1-3.2,1.2-3.3,2.9c0,0.2,0,0.4,0,0.5v6.6h-1.7L752.5,636.2z"/>
	<path class="st2" d="M771.1,643.2v-0.4h1.6v0.3c0,1.9,1.6,3.3,4.1,3.3s4.1-1.1,4.1-3.1c0-1.3-1-2.3-2.2-2.5l-4.3-1.2
		c-2.2-0.6-3.1-1.9-3.1-3.6c0-2.7,2.2-4.3,5.3-4.3s5.4,1.8,5.4,4.4v0.4h-1.6v-0.3c0-1.8-1.4-3.1-3.8-3.1c-2.2,0-3.7,1-3.7,2.8
		c-0.1,1.2,0.7,2.2,1.9,2.4l4.5,1.2c1.9,0.5,3.2,1.8,3.2,3.7c0,2.8-2.4,4.6-5.7,4.6S771.1,646,771.1,643.2z"/>
	<path class="st2" d="M793.8,647.4V646c-1,1.1-2.4,1.8-3.9,1.7c-2.7,0-4.3-1.5-4.3-3.5s1.8-3.5,4.5-3.5c1.3,0,2.6,0.5,3.6,1.4V640
		c0.1-1.4-1.1-2.7-2.5-2.7c-0.1,0-0.2,0-0.3,0c-1.2-0.1-2.3,0.6-2.8,1.7h-1.5c0.6-1.9,2.4-3.1,4.4-3c2.8,0,4.5,1.8,4.5,4v7.5
		L793.8,647.4z M793.8,644.1c0-1.4-1.7-2.4-3.4-2.4c-1.9,0-3.1,0.9-3.1,2.5s1.3,2.4,3,2.4S793.8,645.6,793.8,644.1L793.8,644.1z"/>
	<path class="st2" d="M799.4,636.2h1.6v1.9c0.6-1.4,2.1-2.3,3.7-2.2c1.5-0.1,2.9,0.8,3.6,2.2c0.8-1.4,2.4-2.3,4.1-2.2
		c2.5,0,4,1.8,4,4.4v7.1h-1.7v-6.9c0-1.9-1-3.2-2.8-3.2s-3.2,1.1-3.2,3.5v6.6h-1.7v-6.9c0-1.9-1-3.2-2.8-3.2s-3.2,1.1-3.2,3.5v6.6
		h-1.7V636.2z"/>
	<path class="st2" d="M820.5,651.3v-15.1h1.6v1.8c0.8-1.3,2.3-2.1,3.8-2c3,0,4.7,2.2,4.7,5v1.7c0,2.9-1.8,5-4.7,5
		c-1.5,0.1-2.9-0.7-3.8-1.9v5.5L820.5,651.3z M828.9,641c0-2.1-1-3.7-3.3-3.7s-3.4,1.7-3.4,3.9v1.5c-0.1,1.9,1.3,3.6,3.2,3.7
		c0.1,0,0.2,0,0.2,0c2.1,0,3.3-1.7,3.3-3.7V641z"/>
	<path class="st2" d="M834.2,631.4h1.7v16.1h-1.7V631.4z"/>
	<path class="st2" d="M839.6,642.8V641c0-3,1.7-5.1,4.9-5.1s4.8,2.1,4.8,4.9v1.7h-8.1v0.4c0,2,1,3.5,3.4,3.5
		c1.4,0.1,2.7-0.8,3.1-2.2h1.5c-0.5,2.1-2.4,3.6-4.6,3.5c-2.6,0.2-4.8-1.7-5-4.3C839.6,643.2,839.6,643,839.6,642.8z M841.2,641.2
		h6.5v-0.5c0-2-1-3.5-3.2-3.5c-2.4,0-3.3,1.6-3.3,3.7V641.2z"/>
	<path class="st2" d="M852.3,644.2v-0.1h1.5v0.1c0,1.4,1.3,2.3,3.2,2.3s3-0.7,3-2.1c0-0.8-0.6-1.5-1.4-1.6l-3.3-0.8
		c-1.7-0.4-2.7-1.4-2.7-2.9c0-2.1,1.8-3.2,4.3-3.2s4.2,1.4,4.2,3.5v0.1h-1.5v-0.1c0-1.4-1-2.3-2.7-2.3s-2.7,0.7-2.7,1.9
		c0,0.7,0.5,1.4,1.2,1.5l3.5,0.8c1.7,0.4,2.8,1.3,2.8,2.9c0,2-1.9,3.5-4.6,3.5S852.3,646.3,852.3,644.2z"/>
</g>
<circle class="st6" cx="655" cy="640" r="10"/>
<g>
	<defs>
		<rect id="SVGID_1_" x="140" y="49.9" width="1010" height="420"/>
	</defs>
	<clipPath id="SVGID_2_">
		<use xlink:href="#SVGID_1_"  style="overflow:visible;"/>
	</clipPath>
	<g class="st7">
		<polyline class="st8" points="185.9,450.9 224.1,449.3 262.4,429.9 300.6,384.3 338.9,333 377.2,268.6 415.4,240.7 453.7,250.5 
			491.9,278.2 530.2,295.9 568.5,323 606.7,339 645,356 683.2,365.3 721.5,370.7 759.7,380.9 798,388.1 836.2,392 874.5,396 
			912.8,398.8 951,405.3 989.3,408.6 1027.5,411.3 1065.8,415.2 1104.1,417.5 		"/>
		<path class="st6" d="M185.9,455.9c2.8,0,5-2.2,5-5c0-2.8-2.2-5-5-5c-2.8,0-5,2.2-5,5c0,1.3,0.5,2.6,1.5,3.5
			C183.3,455.3,184.5,455.9,185.9,455.9z"/>
		<path class="st6" d="M645,361c2.8,0,5-2.2,5-5s-2.2-5-5-5s-5,2.2-5,5c0,1.3,0.5,2.6,1.5,3.5C642.4,360.5,643.7,361,645,361z"/>
		<path class="st6" d="M1104.1,422.5c2.8,0,5-2.2,5-5c0-2.8-2.2-5-5-5c-2.8,0-5,2.2-5,5c0,1.3,0.5,2.6,1.5,3.5
			C1101.5,421.9,1102.7,422.5,1104.1,422.5z"/>
		<path class="st6" d="M1065.8,420.2c2.8,0,5-2.2,5-5s-2.2-5-5-5s-5,2.2-5,5S1063,420.2,1065.8,420.2z"/>
		<path class="st6" d="M1027.5,416.3c2.8,0,5-2.2,5-5c0-2.8-2.2-5-5-5c-2.8,0-5,2.2-5,5c0,1.3,0.5,2.6,1.5,3.5
			C1024.9,415.8,1026.2,416.3,1027.5,416.3z"/>
		<path class="st6" d="M989.3,413.6c2.8,0,5-2.2,5-5c0-2.8-2.2-5-5-5c-2.8,0-5,2.2-5,5c0,1.3,0.5,2.6,1.5,3.5
			C986.7,413.1,988,413.6,989.3,413.6z"/>
		<path class="st6" d="M951,410.3c2.8,0,5-2.2,5-5s-2.2-5-5-5s-5,2.2-5,5c0,1.3,0.5,2.6,1.5,3.5C948.4,409.8,949.7,410.3,951,410.3z
			"/>
		<path class="st6" d="M912.8,403.8c2.8,0,5-2.2,5-5c0-2.8-2.2-5-5-5c-2.8,0-5,2.2-5,5c0,1.3,0.5,2.6,1.5,3.5
			C910.2,403.3,911.4,403.8,912.8,403.8z"/>
		<path class="st6" d="M874.5,401c2.8,0,5-2.2,5-5c0-2.8-2.2-5-5-5c-2.8,0-5,2.2-5,5c0,1.3,0.5,2.6,1.5,3.5
			C871.9,400.5,873.2,401,874.5,401z"/>
		<path class="st6" d="M836.2,397c2.8,0,5-2.2,5-5c0-2.8-2.2-5-5-5c-2.8,0-5,2.2-5,5c0,1.3,0.5,2.6,1.5,3.5
			C833.7,396.5,834.9,397,836.2,397z"/>
		<path class="st6" d="M798,393.1c2.8,0,5-2.2,5-5c0-2.8-2.2-5-5-5c-2.8,0-5,2.2-5,5c0,1.3,0.5,2.6,1.5,3.5
			C795.4,392.5,796.7,393.1,798,393.1z"/>
		<path class="st6" d="M759.7,385.9c2.8,0,5-2.2,5-5c0-2.8-2.2-5-5-5c-2.8,0-5,2.2-5,5c0,1.3,0.5,2.6,1.5,3.5
			C757.1,385.4,758.4,385.9,759.7,385.9z"/>
		<path class="st6" d="M721.5,375.7c2.8,0,5-2.2,5-5c0-2.8-2.2-5-5-5c-2.8,0-5,2.2-5,5c0,1.3,0.5,2.6,1.5,3.5
			C718.9,375.2,720.2,375.7,721.5,375.7z"/>
		<path class="st6" d="M683.2,370.3c2.8,0,5-2.2,5-5s-2.2-5-5-5s-5,2.2-5,5c0,1.3,0.5,2.6,1.5,3.5
			C680.6,369.7,681.9,370.3,683.2,370.3z"/>
		<path class="st6" d="M606.7,344c2.8,0,5-2.2,5-5c0-2.8-2.2-5-5-5c-2.8,0-5,2.2-5,5c0,1.3,0.5,2.6,1.5,3.5
			C604.1,343.5,605.4,344,606.7,344z"/>
		<path class="st6" d="M568.5,328c2.8,0,5-2.2,5-5c0-2.8-2.2-5-5-5c-1.3,0-2.6,0.5-3.5,1.5c-2,2-2,5.1,0,7.1
			C565.8,327.5,567.1,328,568.5,328z"/>
		<path class="st6" d="M530.2,300.9c2.8,0,5-2.2,5-5c0-2.8-2.2-5-5-5c-2.8,0-5,2.2-5,5c0,1.3,0.5,2.6,1.5,3.5
			C527.6,300.3,528.9,300.9,530.2,300.9z"/>
		<path class="st6" d="M453.7,255.5c2.8,0,5-2.2,5-5c0-2.8-2.2-5-5-5c-2.8,0-5,2.2-5,5c0,1.3,0.5,2.6,1.5,3.5
			C451.1,255,452.4,255.5,453.7,255.5z"/>
		<path class="st6" d="M491.9,283.2c2.8,0,5-2.2,5-5c0-2.8-2.2-5-5-5c-2.8,0-5,2.2-5,5c0,1.3,0.5,2.6,1.5,3.5
			C489.3,282.7,490.6,283.2,491.9,283.2z"/>
		<path class="st6" d="M415.4,245.7c2.8,0,5-2.2,5-5c0-2.8-2.2-5-5-5c-2.8,0-5,2.2-5,5c0,1.3,0.5,2.6,1.5,3.5
			C412.8,245.1,414.1,245.7,415.4,245.7z"/>
		<path class="st6" d="M377.2,273.6c2.8,0,5-2.2,5-5c0-2.8-2.2-5-5-5c-2.8,0-5,2.2-5,5c0,1.3,0.5,2.6,1.5,3.5
			C374.6,273.1,375.8,273.6,377.2,273.6z"/>
		<path class="st6" d="M338.9,338c2.8,0,5-2.2,5-5c0-2.8-2.2-5-5-5s-5,2.2-5,5c0,1.3,0.5,2.6,1.5,3.5
			C336.3,337.5,337.6,338,338.9,338z"/>
		<path class="st6" d="M300.6,389.3c2.8,0,5-2.2,5-5c0-2.8-2.2-5-5-5c-2.8,0-5,2.2-5,5c0,1.3,0.5,2.6,1.5,3.5
			C298,388.8,299.3,389.3,300.6,389.3z"/>
		<path class="st6" d="M262.4,434.9c2.8,0,5-2.2,5-5c0-2.8-2.2-5-5-5c-1.3,0-2.6,0.5-3.5,1.5c-2,2-2,5.1,0,7.1
			C259.8,434.4,261.1,434.9,262.4,434.9z"/>
		<path class="st6" d="M224.1,454.3c2.8,0,5-2.2,5-5c0-2.8-2.2-5-5-5c-2.8,0-5,2.2-5,5c0,1.3,0.5,2.6,1.5,3.5
			C221.5,453.8,222.8,454.3,224.1,454.3z"/>
	</g>
</g>
<g>
	<line class="st9" x1="415.4" y1="277.5" x2="415.4" y2="249.5"/>
	<polygon class="st10" points="418.3,251.5 415.4,240.7 412.5,251.5 	"/>
</g>
<g>
	<line class="st9" x1="453.7" y1="259.4" x2="453.7" y2="305.7"/>
	<polygon class="st10" points="450.8,261.3 453.7,250.5 456.6,261.3 	"/>
</g>
<g>
	<line class="st9" x1="491.9" y1="287" x2="491.9" y2="319.7"/>
	<polygon class="st10" points="489,289 491.9,278.2 494.8,289 	"/>
</g>
<g>
	<line class="st9" x1="530.2" y1="304.7" x2="530.2" y2="333.1"/>
	<polygon class="st10" points="527.3,306.7 530.2,295.9 533.1,306.7 	"/>
</g>
<g>
	<line class="st9" x1="568.5" y1="331.9" x2="568.5" y2="344.2"/>
	<polygon class="st10" points="565.5,333.9 568.5,323 571.4,333.9 	"/>
</g>
<g>
	<defs>
		<rect id="SVGID_3_" x="140" y="49.9" width="1010" height="420"/>
	</defs>
	<clipPath id="SVGID_4_">
		<use xlink:href="#SVGID_3_"  style="overflow:visible;"/>
	</clipPath>
	<g class="st11">
		<polyline class="st12" points="185.9,411.4 224.1,257.1 262.4,69 300.6,99.5 338.9,180 377.2,227 415.4,277.5 453.7,305.7 
			491.9,319.7 530.2,333.1 568.5,344.2 606.7,345.5 645,351.3 683.2,355.2 721.5,361.1 759.7,366.5 798,368.6 836.2,374.3 
			874.5,377.7 912.8,381.3 951,383.9 989.3,386.8 1027.5,388.2 1065.8,390.8 1104.1,394.7 		"/>
		<path class="st5" d="M185.9,416.4c2.8,0,5-2.2,5-5s-2.2-5-5-5c-2.8,0-5,2.2-5,5c0,1.3,0.5,2.6,1.5,3.5
			C183.3,415.8,184.5,416.4,185.9,416.4z"/>
		<path class="st5" d="M224.1,262.1c2.8,0,5-2.2,5-5c0-2.8-2.2-5-5-5c-2.8,0-5,2.2-5,5c0,1.3,0.5,2.6,1.5,3.5
			C221.5,261.6,222.8,262.1,224.1,262.1z"/>
		<path class="st5" d="M262.4,74c2.8,0,5-2.2,5-5c0-2.8-2.2-5-5-5c-2.8,0-5,2.2-5,5c0,1.3,0.5,2.6,1.5,3.5
			C259.8,73.5,261.1,74,262.4,74z"/>
		<path class="st5" d="M300.6,104.5c2.8,0,5-2.2,5-5c0-2.8-2.2-5-5-5s-5,2.2-5,5c0,1.3,0.5,2.6,1.5,3.5
			C298,104,299.3,104.5,300.6,104.5z"/>
		<path class="st5" d="M338.9,185c2.8,0,5-2.2,5-5s-2.2-5-5-5s-5,2.2-5,5c0,1.3,0.5,2.6,1.5,3.5C336.3,184.5,337.6,185,338.9,185z"
			/>
		<path class="st5" d="M377.2,232c2.8,0,5-2.2,5-5c0-2.8-2.2-5-5-5c-2.8,0-5,2.2-5,5c0,1.3,0.5,2.6,1.5,3.5
			C374.6,231.5,375.8,232,377.2,232z"/>
		<path class="st5" d="M415.4,282.5c2.8,0,5-2.2,5-5c0-2.8-2.2-5-5-5c-2.8,0-5,2.2-5,5c0,1.3,0.5,2.6,1.5,3.5
			C412.8,282,414.1,282.5,415.4,282.5z"/>
		<path class="st5" d="M453.7,310.7c2.8,0,5-2.2,5-5c0-2.8-2.2-5-5-5s-5,2.2-5,5c0,1.3,0.5,2.6,1.5,3.5
			C451.1,310.1,452.4,310.7,453.7,310.7z"/>
		<path class="st5" d="M1104.1,399.7c2.8,0,5-2.2,5-5c0-2.8-2.2-5-5-5c-2.8,0-5,2.2-5,5c0,1.3,0.5,2.6,1.5,3.5
			C1101.5,399.1,1102.7,399.7,1104.1,399.7z"/>
		<path class="st5" d="M1065.8,395.8c2.8,0,5-2.2,5-5c0-2.8-2.2-5-5-5c-2.8,0-5,2.2-5,5c0,1.3,0.5,2.6,1.5,3.5
			C1063.2,395.2,1064.5,395.8,1065.8,395.8z"/>
		<path class="st5" d="M1027.5,393.2c2.8,0,5-2.2,5-5c0-2.8-2.2-5-5-5c-2.8,0-5,2.2-5,5c0,1.3,0.5,2.6,1.5,3.5
			C1024.9,392.7,1026.2,393.2,1027.5,393.2z"/>
		<path class="st5" d="M989.3,391.8c2.8,0,5-2.2,5-5c0-2.8-2.2-5-5-5c-2.8,0-5,2.2-5,5c0,1.3,0.5,2.6,1.5,3.5
			C986.7,391.3,988,391.8,989.3,391.8z"/>
		<path class="st5" d="M951,388.9c2.8,0,5-2.2,5-5s-2.2-5-5-5s-5,2.2-5,5c0,1.3,0.5,2.6,1.5,3.5C948.4,388.4,949.7,388.9,951,388.9z
			"/>
		<path class="st5" d="M912.8,386.3c2.8,0,5-2.2,5-5c0-2.8-2.2-5-5-5c-2.8,0-5,2.2-5,5c0,1.3,0.5,2.6,1.5,3.5
			C910.2,385.8,911.4,386.3,912.8,386.3z"/>
		<path class="st5" d="M874.5,382.7c2.8,0,5-2.2,5-5c0-2.8-2.2-5-5-5c-2.8,0-5,2.2-5,5c0,1.3,0.5,2.6,1.5,3.5
			C871.9,382.2,873.2,382.7,874.5,382.7z"/>
		<path class="st5" d="M836.2,379.3c2.8,0,5-2.2,5-5c0-2.8-2.2-5-5-5c-2.8,0-5,2.2-5,5c0,1.3,0.5,2.6,1.5,3.5
			C833.7,378.8,834.9,379.3,836.2,379.3z"/>
		<path class="st5" d="M798,373.6c2.8,0,5-2.2,5-5c0-2.8-2.2-5-5-5c-2.8,0-5,2.2-5,5c0,1.3,0.5,2.6,1.5,3.5
			C795.4,373,796.7,373.6,798,373.6z"/>
		<path class="st5" d="M759.7,371.5c2.8,0,5-2.2,5-5c0-2.8-2.2-5-5-5c-2.8,0-5,2.2-5,5c0,1.3,0.5,2.6,1.5,3.5
			C757.1,370.9,758.4,371.5,759.7,371.5z"/>
		<path class="st5" d="M721.5,366.1c2.8,0,5-2.2,5-5c0-2.8-2.2-5-5-5c-2.8,0-5,2.2-5,5c0,1.3,0.5,2.6,1.5,3.5
			C718.9,365.6,720.2,366.1,721.5,366.1z"/>
		<path class="st5" d="M683.2,360.2c2.8,0,5-2.2,5-5c0-2.8-2.2-5-5-5c-2.8,0-5,2.2-5,5c0,1.3,0.5,2.6,1.5,3.5
			C680.6,359.6,681.9,360.2,683.2,360.2z"/>
		<path class="st5" d="M645,356.3c2.8,0,5-2.2,5-5c0-2.8-2.2-5-5-5c-2.8,0-5,2.2-5,5c0,1.3,0.5,2.6,1.5,3.5
			C642.4,355.7,643.7,356.3,645,356.3z"/>
		<path class="st5" d="M606.7,350.5c2.8,0,5-2.2,5-5c0-2.8-2.2-5-5-5c-2.8,0-5,2.2-5,5c0,1.3,0.5,2.6,1.5,3.5
			C604.1,350,605.4,350.5,606.7,350.5z"/>
		<path class="st5" d="M568.5,349.2c2.8,0,5-2.2,5-5c0-2.8-2.2-5-5-5c-1.3,0-2.6,0.5-3.5,1.5c-2,2-2,5.1,0,7.1
			C565.8,348.6,567.1,349.2,568.5,349.2z"/>
		<path class="st5" d="M530.2,338.1c2.8,0,5-2.2,5-5c0-2.8-2.2-5-5-5c-2.8,0-5,2.2-5,5c0,1.3,0.5,2.6,1.5,3.5
			C527.6,337.5,528.9,338.1,530.2,338.1z"/>
		<path class="st5" d="M491.9,324.7c1.3,0,2.6-0.5,3.5-1.5c2-2,2-5.1,0-7.1c-2-2-5.1-2-7.1,0c-0.9,0.9-1.5,2.2-1.5,3.5
			C486.9,322.5,489.2,324.7,491.9,324.7z"/>
	</g>
</g>
<g>
	<path class="st10" d="M530.4,277.5h-2v-14.8l-5.2,10.3h-2l-5.2-10.3v14.9h-2v-18.9h2l6.2,12.5l6.2-12.5h2L530.4,277.5z"/>
	<path class="st10" d="M535.7,271.7v-2.3c0.1-3.4,3-6.1,6.4-5.9c3.2,0.1,5.8,2.7,5.9,5.9v2.3c-0.1,3.4-3,6.1-6.4,5.9
		C538.4,277.5,535.8,274.9,535.7,271.7z M541.9,265c-2.7,0-4.2,1.9-4.2,4.5v2.2c0,2.6,1.5,4.5,4.2,4.5s4.2-1.9,4.2-4.5v-2.2
		C546,266.9,544.6,265,541.9,265L541.9,265z"/>
	<path class="st10" d="M553.1,263.7h1.9v3.2c0.5-2.1,2-3.3,4.5-3.3h0.3v1.9h-0.4c-2.6,0-4.3,1.7-4.3,5.2v6.8h-2L553.1,263.7z"/>
	<path class="st10" d="M563.1,271.8v-2.2c0-3.8,2.1-6.2,6-6.2s5.9,2.6,5.9,6v2.1H565v0.5c0,2.4,1.2,4.4,4.1,4.4
		c1.7,0.1,3.3-1,3.8-2.7h1.8c-0.6,2.6-3,4.4-5.6,4.2C565.6,277.8,563.1,275.5,563.1,271.8z M565.1,269.9h8v-0.6c0-2.5-1.2-4.3-4-4.3
		c-3,0-4,2-4,4.5L565.1,269.9z"/>
	<path class="st10" d="M594.7,258.6c4.8,0,7.5,3,7.5,7.3v4.4c0,4.2-2.7,7.3-7.5,7.3h-7.1v-18.9H594.7z M600.1,270.2v-4.4
		c0-3.3-2-5.5-5.7-5.5h-4.7v15.4h4.7C598.1,275.8,600.1,273.5,600.1,270.2L600.1,270.2z"/>
	<path class="st10" d="M616.7,277.5v-1.7c-1.2,1.4-2.9,2.1-4.8,2c-3.3,0-5.2-1.8-5.2-4.3c0-2.7,2.2-4.3,5.5-4.3
		c1.7-0.1,3.3,0.6,4.4,1.7v-2.6c0.1-1.8-1.3-3.3-3-3.3c-0.1,0-0.3,0-0.4,0c-1.5-0.1-2.9,0.7-3.5,2.1h-1.9c0.7-2.3,2.9-3.9,5.4-3.7
		c3.4,0,5.5,2.2,5.5,5v9.2L616.7,277.5z M616.6,273.5c0-1.7-2.1-2.9-4.1-2.9c-2.3,0-3.8,1.1-3.8,3s1.6,3,3.7,3
		S616.6,275.2,616.6,273.5L616.6,273.5z"/>
	<path class="st10" d="M628.9,277.5c-2.7,0-3.8-1.3-3.8-3.7v-8.5h-2.4v-1.7h2.3v-4h2v4h3.5v1.7h-3.5v8.5c0,1.4,0.5,2,2,2h1.4v1.7
		L628.9,277.5z"/>
	<path class="st10" d="M644.7,277.5v-1.7c-1.2,1.4-2.9,2.1-4.8,2c-3.3,0-5.2-1.8-5.2-4.3c0-2.7,2.2-4.3,5.5-4.3
		c1.6-0.1,3.2,0.6,4.4,1.7v-2.6c0.1-1.8-1.3-3.3-3-3.3c-0.1,0-0.3,0-0.4,0c-1.5-0.1-2.9,0.7-3.5,2.1h-1.9c0.7-2.3,2.9-3.9,5.4-3.7
		c3.4,0,5.5,2.2,5.5,5v9.2L644.7,277.5z M644.6,273.5c0-1.7-2-2.9-4.1-2.9c-2.3,0-3.8,1.1-3.8,3s1.6,3,3.7,3
		S644.6,275.2,644.6,273.5L644.6,273.5z"/>
	<path class="st10" d="M659.8,258.6h2.1v8.5h10v-8.5h2.1v18.9h-2.1V269h-10v8.5h-2.1L659.8,258.6z"/>
	<path class="st10" d="M691.3,277.5h-1.9v-2.4c-0.7,1.6-2.2,2.7-4.6,2.7c-3,0-4.9-2.1-4.9-5.4v-8.7h2v8.4c0,2.4,1,4,3.4,4
		s4-1.4,4-4.3v-8.1h2L691.3,277.5z"/>
	<path class="st10" d="M697,263.7h2v3.2c0.5-2.1,2-3.3,4.5-3.3h0.3v1.9h-0.4c-2.6,0-4.3,1.7-4.3,5.2v6.8h-2L697,263.7z"/>
	<path class="st10" d="M712.8,277.5c-2.6,0-3.8-1.3-3.8-3.7v-8.5h-2.3v-1.7h2.3v-4h2v4h3.5v1.7h-3.5v8.5c0,1.4,0.5,2,2,2h1.4v1.7
		L712.8,277.5z"/>
	<path class="st10" d="M718.6,273.5v-0.1h1.9v0.1c0,1.7,1.6,2.9,3.9,2.9s3.7-0.8,3.7-2.6c0-1-0.7-1.8-1.7-1.9l-4.1-0.9
		c-2-0.5-3.2-1.7-3.2-3.5c0-2.6,2.2-4,5.2-4c2.9,0,5.1,1.8,5.1,4.3v0.1h-1.9v-0.1c0-1.7-1.2-2.8-3.3-2.8s-3.3,0.8-3.3,2.4
		c-0.1,0.9,0.6,1.7,1.5,1.8l4.2,1c2.1,0.5,3.4,1.6,3.4,3.6c0,2.5-2.4,4.2-5.6,4.2S718.6,276.2,718.6,273.5z"/>
	<path class="st10" d="M736.2,275c0.7,0,1.3,0.5,1.4,1.2c0,0,0,0.1,0,0.1c0,0.8-0.6,1.4-1.4,1.4s-1.4-0.6-1.4-1.4
		c0-0.7,0.5-1.3,1.3-1.3C736.1,275,736.1,275,736.2,275z M735.1,265.7v-7.2h2.2v7.2l-0.5,6.8h-1.1L735.1,265.7z"/>
</g>
</svg>
