<svg id="Layer_1" data-name="Layer 1" xmlns="http://www.w3.org/2000/svg" xmlns:xlink="http://www.w3.org/1999/xlink" viewBox="0 0 1200 800"><defs><style>.cls-1,.cls-12,.cls-13,.cls-17,.cls-18,.cls-19,.cls-20,.cls-21,.cls-22,.cls-3,.cls-5,.cls-6{fill:none;}.cls-2{fill:#f7fbfb;}.cls-3,.cls-5,.cls-6{stroke:#c8c8d3;}.cls-17,.cls-18,.cls-19,.cls-20,.cls-3,.cls-5,.cls-6{stroke-miterlimit:10;}.cls-3,.cls-6{stroke-width:1.25px;}.cls-10,.cls-11,.cls-3{opacity:0.3;}.cls-10,.cls-11,.cls-16,.cls-3{isolation:isolate;}.cls-4{fill:#6e6e80;}.cls-5{stroke-width:1.34px;}.cls-10,.cls-7{fill:#5436da;}.cls-11,.cls-8{fill:#68de7a;}.cls-9{clip-path:url(#clip-path);}.cls-12{stroke:#5436da;stroke-linecap:square;}.cls-12,.cls-13,.cls-21,.cls-22{stroke-linejoin:round;}.cls-12,.cls-13,.cls-19,.cls-20,.cls-21,.cls-22{stroke-width:2px;}.cls-13{stroke:#68de7a;stroke-dasharray:10 5;}.cls-14,.cls-16{fill:#ef4146;}.cls-15{fill:#bd1c5f;}.cls-16{opacity:0.2;}.cls-17,.cls-18,.cls-19{stroke:#bd1c5f;}.cls-17,.cls-18{stroke-width:3px;}.cls-18{stroke-dasharray:9.99 5;}.cls-20{stroke:#ef4146;}.cls-21{stroke:#8e8ea0;}.cls-22{stroke:url(#linear-gradient);}</style><clipPath id="clip-path"><rect class="cls-1" x="150" y="149.93" width="999.96" height="420"/></clipPath><linearGradient id="linear-gradient" x1="1012.36" y1="670.07" x2="1109.96" y2="670.07" gradientTransform="matrix(1, 0, 0, -1, 0, 800)" gradientUnits="userSpaceOnUse"><stop offset="0" stop-color="#8e8ea0"/><stop offset="1" stop-color="#8e8ea0" stop-opacity="0"/></linearGradient></defs><title>Artboard 1</title><rect class="cls-2" x="149.98" y="149.93" width="1000" height="420"/><line class="cls-3" x1="150" y1="201.62" x2="1149.96" y2="201.62"/><line class="cls-3" x1="150" y1="348.94" x2="1149.96" y2="348.94"/><line class="cls-3" x1="150" y1="275.28" x2="1149.96" y2="275.28"/><line class="cls-3" x1="150" y1="422.61" x2="1149.96" y2="422.61"/><line class="cls-3" x1="150" y1="496.27" x2="1149.96" y2="496.27"/><line class="cls-3" x1="181.02" y1="569.93" x2="181.02" y2="149.93"/><line class="cls-3" x1="310.89" y1="569.93" x2="310.89" y2="149.93"/><line class="cls-3" x1="455.18" y1="569.93" x2="455.18" y2="149.93"/><line class="cls-3" x1="599.48" y1="569.93" x2="599.48" y2="149.93"/><line class="cls-3" x1="743.77" y1="569.93" x2="743.77" y2="149.93"/><line class="cls-3" x1="888.07" y1="569.93" x2="888.07" y2="149.93"/><line class="cls-3" x1="1032.36" y1="569.93" x2="1032.36" y2="149.93"/><path class="cls-4" d="M42.82,466v5.78H41.07V458.15h1.75v5.77H60V466Z"/><path class="cls-4" d="M54.27,457H52.05c-3.75,0-6.23-2.14-6.23-6s2.62-5.86,6-5.86h2V455h.49c2.4,0,4.34-1.24,4.34-4.13A3.68,3.68,0,0,0,56,447.06v-1.83a5.46,5.46,0,0,1,4.24,5.64A5.71,5.71,0,0,1,55,457,5.15,5.15,0,0,1,54.27,457Zm-2-2v-8h-.64c-2.46,0-4.3,1.24-4.3,3.94,0,3,2,4.05,4.51,4.05Z"/><path class="cls-4" d="M55.94,440.62h-.13v-1.86h.08c1.72,0,2.86-1.62,2.86-3.89s-.84-3.67-2.62-3.67a1.94,1.94,0,0,0-1.92,1.73l-.94,4.1c-.46,2.05-1.7,3.24-3.51,3.24-2.59,0-3.94-2.18-3.94-5.23,0-2.89,1.75-5.13,4.32-5.13h.13v1.86h-.08c-1.7,0-2.83,1.24-2.83,3.29s.81,3.32,2.35,3.32a1.68,1.68,0,0,0,1.78-1.46l1-4.23c.51-2.14,1.56-3.4,3.56-3.4,2.45,0,4.24,2.37,4.24,5.61S58.61,440.62,55.94,440.62Z"/><path class="cls-4" d="M60,419.83c0,2.65-1.32,3.76-3.67,3.76H47.82v2.34H46.14v-2.34h-4v-2.06h4V418h1.68v3.53h8.47c1.41,0,2-.51,2-2v-1.37H60Z"/><path class="cls-4" d="M39.72,399.64v-1.92l23.08,7.62v1.91Z"/><path class="cls-4" d="M42.82,382.14v5.78H41.07V374.26h1.75V380H60v2.1Z"/><path class="cls-4" d="M46.14,371.59v-1.92h3.19c-2.13-.51-3.27-2-3.27-4.51v-.32H48v.4c0,2.62,1.73,4.29,5.21,4.29H60v2.06Z"/><path class="cls-4" d="M60,352.15H58.24a5.82,5.82,0,0,1,2,4.75c0,3.26-1.84,5.23-4.35,5.23-2.67,0-4.32-2.18-4.32-5.47a6,6,0,0,1,1.73-4.43H50.79a3.2,3.2,0,0,0-3.36,3c0,.13,0,.27,0,.41a3.49,3.49,0,0,0,2.08,3.46V361a5.24,5.24,0,0,1-3.7-5.37c0-3.43,2.24-5.48,5-5.48H60Zm-4,.08c-1.72,0-2.94,2-2.94,4.13,0,2.29,1.08,3.83,3,3.83s3-1.59,3-3.72-1.31-4.24-3.1-4.24Z"/><path class="cls-4" d="M41.26,343.45a1.24,1.24,0,1,1,1.24,1.3,1.2,1.2,0,0,1-1.24-1.15A.75.75,0,0,1,41.26,343.45Zm4.88,1V342.4H60v2.05Z"/><path class="cls-4" d="M46.14,336.57v-1.95h2.35c-1.56-.64-2.67-2.21-2.67-4.61,0-3.11,2.1-5.08,5.42-5.08H60V327H51.54c-2.35,0-3.94,1.06-3.94,3.54,0,2.27,1.38,4,4.24,4H60v2Z"/><path class="cls-4" d="M41.07,311.78V299.31h1.75v10.37h6.7v-9.59h1.75v9.59h6.94v-10.4H60v12.5Z"/><path class="cls-4" d="M46.14,294.26v-1.92h3.19c-2.13-.51-3.27-2-3.27-4.51v-.32H48v.41c0,2.61,1.73,4.29,5.21,4.29H60v2.05Z"/><path class="cls-4" d="M46.14,283.38v-1.92h3.19c-2.13-.51-3.27-2-3.27-4.51v-.32H48v.4c0,2.62,1.73,4.3,5.21,4.3H60v2.05Z"/><path class="cls-4" d="M54.19,273.39H51.92a6.17,6.17,0,0,1,0-12.34h2.27a6.17,6.17,0,1,1,0,12.34Zm-6.73-6.18c0,2.72,1.87,4.18,4.49,4.18h2.21c2.62,0,4.48-1.46,4.48-4.18S56.78,263,54.16,263H52c-2.67,0-4.54,1.48-4.54,4.21Z"/><path class="cls-4" d="M46.14,256v-1.92h3.19c-2.13-.51-3.27-2-3.27-4.5v-.33H48v.41c0,2.61,1.73,4.29,5.21,4.29H60V256Z"/><path class="cls-4" d="M122.71,65.74V62.55c0-4.7,2.64-8.23,7.85-8.23A7.14,7.14,0,0,1,138,60.93h-2a5.2,5.2,0,0,0-5.45-4.86c-3.86,0-5.72,2.7-5.72,6.4v3.35c0,3.69,1.86,6.39,5.72,6.39A5.19,5.19,0,0,0,136,67.35h2A7.15,7.15,0,0,1,130.56,74C125.35,74,122.71,70.43,122.71,65.74Z"/><path class="cls-4" d="M143.42,53.88h2.05V73.59h-2.05Z"/><path class="cls-4" d="M160.7,73.59V71.86a5.87,5.87,0,0,1-4.76,2c-3.26,0-5.23-1.83-5.23-4.34,0-2.67,2.18-4.32,5.48-4.32a6,6,0,0,1,4.42,1.8V64.41a3.19,3.19,0,0,0-3-3.35h-.43a3.51,3.51,0,0,0-3.46,2.07h-1.89a5.25,5.25,0,0,1,5.38-3.69c3.42,0,5.48,2.24,5.48,5v9.18Zm-.09-4c0-1.73-2.05-2.94-4.13-2.94-2.29,0-3.83,1.08-3.83,3s1.59,3,3.73,3,4.23-1.33,4.23-3.11Z"/><path class="cls-4" d="M167.58,69.57v-.14h1.87v.08c0,1.73,1.61,2.87,3.88,2.87s3.67-.84,3.67-2.62a1.94,1.94,0,0,0-1.72-1.92l-4.11-.94c-2-.46-3.24-1.7-3.24-3.51,0-2.59,2.19-3.94,5.24-3.94,2.89,0,5.13,1.75,5.13,4.31v.14h-1.86v-.08c0-1.7-1.25-2.84-3.3-2.84s-3.32.81-3.32,2.35a1.67,1.67,0,0,0,1.46,1.78l4.24,1c2.13.52,3.4,1.57,3.4,3.57,0,2.45-2.38,4.23-5.61,4.23S167.58,72.24,167.58,69.57Z"/><path class="cls-4" d="M183.13,69.57v-.14H185v.08c0,1.73,1.62,2.87,3.88,2.87s3.67-.84,3.67-2.62a1.94,1.94,0,0,0-1.72-1.92l-4.11-.94c-2.05-.46-3.23-1.7-3.23-3.51,0-2.59,2.18-3.94,5.23-3.94,2.89,0,5.13,1.75,5.13,4.31v.14H192v-.08c0-1.7-1.24-2.84-3.3-2.84-1.91,0-3.32.81-3.32,2.35a1.67,1.67,0,0,0,1.46,1.78l4.24,1c2.13.52,3.4,1.57,3.4,3.57,0,2.45-2.37,4.23-5.61,4.23S183.13,72.24,183.13,69.57Z"/><path class="cls-4" d="M200.49,54.88a1.25,1.25,0,1,1-1.29,1.25,1.21,1.21,0,0,1,1.17-1.25Zm-1,4.89h2V73.59h-2Z"/><path class="cls-4" d="M206.71,67.84V65.52a5.75,5.75,0,0,1,5.43-6.07,5.3,5.3,0,0,1,.69,0c3.48,0,5.75,2.26,5.91,5.18h-1.83a3.82,3.82,0,0,0-4-3.56c-2.84,0-4.16,1.83-4.16,4.42v2.38c0,2.59,1.32,4.42,4.16,4.42a3.82,3.82,0,0,0,4-3.56h1.83c-.16,2.92-2.43,5.18-5.91,5.18a5.77,5.77,0,0,1-6.12-5.38Q206.7,68.19,206.71,67.84Z"/><path class="cls-4" d="M233.22,73.59V71.86a5.88,5.88,0,0,1-4.75,2c-3.27,0-5.24-1.83-5.24-4.34,0-2.67,2.19-4.32,5.48-4.32a6.08,6.08,0,0,1,4.43,1.8V64.41a3.21,3.21,0,0,0-3-3.35h-.41a3.49,3.49,0,0,0-3.45,2.07h-1.89a5.22,5.22,0,0,1,5.37-3.69c3.43,0,5.48,2.24,5.48,5v9.18Zm-.08-4c0-1.73-2.06-2.94-4.14-2.94-2.29,0-3.83,1.08-3.83,3s1.59,3,3.73,3,4.24-1.33,4.24-3.11Z"/><path class="cls-4" d="M240.89,53.88h2.05V73.59h-2.05Z"/><path class="cls-4" d="M256.36,54.7h7.8c4.15,0,6.34,2.67,6.34,6a5.74,5.74,0,0,1-4.08,5.65l4.11,7.23h-2.41l-3.83-6.91h-5.83v6.91h-2.1ZM263.89,65c3,0,4.51-1.84,4.51-4.3s-1.57-4.31-4.51-4.31h-5.43V65Z"/><path class="cls-4" d="M274.8,67.89V65.68c0-3.75,2.13-6.23,6-6.23s5.85,2.61,5.85,6v2h-9.9V68c0,2.4,1.24,4.35,4.13,4.35a3.66,3.66,0,0,0,3.8-2.67h1.84a5.45,5.45,0,0,1-5.64,4.23A5.69,5.69,0,0,1,274.8,67.89Zm2-1.94h8V65.3c0-2.45-1.24-4.29-3.94-4.29-3,0-4.05,2-4.05,4.51Z"/><path class="cls-4" d="M291.35,75.07h2c.76,1.33,2.08,1.92,4,1.92,2.4,0,4-1.35,4-3.45V70.4c-.4,1.27-2.33,2.6-4.65,2.6a5.38,5.38,0,0,1-5.64-5.11,4.68,4.68,0,0,1,0-.53V65.09a5.34,5.34,0,0,1,5-5.64c.21,0,.43,0,.64,0a5,5,0,0,1,4.7,2.61V59.77h2V73.59c0,2.86-2.59,5-6.1,5C294.59,78.61,292.1,77.34,291.35,75.07Zm10-7.9V65.38a4.17,4.17,0,0,0-4.08-4.26h-.08c-2.7,0-4.1,1.48-4.1,4.13v2c0,2.59,1.38,4.13,4,4.13a4,4,0,0,0,4.29-3.68,3.13,3.13,0,0,0,0-.53Z"/><path class="cls-4" d="M310.33,54.88a1.25,1.25,0,1,1-1.3,1.25,1.21,1.21,0,0,1,1.17-1.25Zm-1,4.89h2.05V73.59H309.3Z"/><path class="cls-4" d="M317.21,59.77h2v2.35c.65-1.57,2.16-2.67,4.56-2.67a4.64,4.64,0,0,1,4.4,2.69,5.5,5.5,0,0,1,5-2.69c3,0,5,2.16,5,5.42v8.72h-2.06V65.17c0-2.35-1.16-3.94-3.42-3.94s-3.94,1.37-3.94,4.24v8.12h-2.06V65.17c0-2.35-1.16-3.94-3.42-3.94s-3.94,1.37-3.94,4.24v8.12h-2.06Z"/><path class="cls-4" d="M343,67.89V65.68c0-3.75,2.13-6.23,6-6.23s5.86,2.61,5.86,6v2H345V68c0,2.4,1.24,4.35,4.13,4.35a3.67,3.67,0,0,0,3.8-2.67h1.84a5.46,5.46,0,0,1-5.64,4.23C345.54,73.91,343,71.62,343,67.89ZM345,66h8v-.7c0-2.45-1.26-4.3-4-4.3-3,0-4,2-4,4.51Z"/><path class="cls-4" d="M120.93,84.59h6.36c2.73,0,4.21,1.6,4.21,3.83A3.79,3.79,0,0,1,129.23,92a3.71,3.71,0,0,1,3.17,3.78c0,2.57-1.92,4.18-5,4.18h-6.51Zm6,6.86a2.72,2.72,0,0,0,2.9-2.51v-.3a2.61,2.61,0,0,0-2.51-2.72,2.54,2.54,0,0,0-.39,0h-4.34v5.52Zm.39,7.2c2.2,0,3.41-1.06,3.41-3,0-1.72-1.25-2.9-3.39-2.9h-4.75V98.6Z"/><path class="cls-4" d="M136.8,84.74a1,1,0,1,1-1,1A1,1,0,0,1,136.8,84.74Zm-.84,4h1.67V100H136Z"/><path class="cls-4" d="M149.5,100V98.58a4.74,4.74,0,0,1-3.87,1.67c-2.67,0-4.28-1.49-4.28-3.54s1.79-3.52,4.47-3.52a4.9,4.9,0,0,1,3.61,1.41V92.51A2.61,2.61,0,0,0,147,89.78a1.82,1.82,0,0,0-.33,0,2.86,2.86,0,0,0-2.82,1.69h-1.54a4.25,4.25,0,0,1,4.38-3c2.79,0,4.47,1.83,4.47,4V100Zm-.07-3.3c0-1.41-1.67-2.4-3.36-2.4-1.88,0-3.13.88-3.13,2.44s1.3,2.45,3,2.45,3.49-1,3.49-2.5Z"/><path class="cls-4" d="M154.56,96.71V96.6h1.52v.07c0,1.41,1.32,2.33,3.17,2.33s3-.68,3-2.13a1.58,1.58,0,0,0-1.41-1.57l-3.35-.77c-1.67-.37-2.64-1.38-2.64-2.86,0-2.11,1.78-3.21,4.27-3.21s4.18,1.43,4.18,3.52v.11h-1.52V92c0-1.39-1-2.31-2.68-2.31s-2.71.66-2.71,1.91a1.37,1.37,0,0,0,1.19,1.45l3.46.82c1.73.41,2.77,1.27,2.77,2.9,0,2-1.94,3.45-4.58,3.45S154.56,98.89,154.56,96.71Z"/><path class="cls-4" d="M166.91,92.38h6.14v1.47h-6.14Z"/><path class="cls-4" d="M174.33,84.59H176l4.63,13.75,4.62-13.75h1.67L181.57,100h-1.89Z"/><path class="cls-4" d="M195.9,100V98.58a4.74,4.74,0,0,1-3.87,1.67c-2.67,0-4.27-1.49-4.27-3.54s1.78-3.52,4.47-3.52a4.94,4.94,0,0,1,3.61,1.41V92.51a2.62,2.62,0,0,0-2.5-2.74H193a2.86,2.86,0,0,0-2.82,1.69h-1.54a4.26,4.26,0,0,1,4.38-3c2.8,0,4.47,1.83,4.47,4V100Zm-.06-3.3c0-1.41-1.68-2.4-3.37-2.4-1.87,0-3.13.88-3.13,2.44s1.3,2.45,3,2.45,3.5-1,3.5-2.5Z"/><path class="cls-4" d="M201.49,88.72h1.57v2.6c.41-1.74,1.63-2.66,3.67-2.66H207v1.56h-.33c-2.14,0-3.5,1.41-3.5,4.25V100h-1.68Z"/><path class="cls-4" d="M210.76,84.74a1,1,0,1,1-.06,0Zm-.84,4h1.68V100h-1.68Z"/><path class="cls-4" d="M223.46,100V98.58a4.74,4.74,0,0,1-3.87,1.67c-2.67,0-4.27-1.49-4.27-3.54s1.78-3.52,4.47-3.52a4.94,4.94,0,0,1,3.61,1.41V92.51a2.62,2.62,0,0,0-2.5-2.74h-.32a2.86,2.86,0,0,0-2.82,1.69h-1.54a4.26,4.26,0,0,1,4.38-3c2.8,0,4.47,1.83,4.47,4V100Zm-.06-3.3c0-1.41-1.68-2.4-3.37-2.4-1.87,0-3.13.88-3.13,2.44s1.3,2.45,3,2.45,3.5-1,3.5-2.5Z"/><path class="cls-4" d="M229.05,88.72h1.59v1.92a3.76,3.76,0,0,1,3.76-2.18c2.53,0,4.14,1.72,4.14,4.42V100h-1.67V93.13c0-1.92-.86-3.22-2.89-3.22-1.85,0-3.25,1.13-3.25,3.46V100h-1.68Z"/><path class="cls-4" d="M242,95.3V93.41a4.7,4.7,0,0,1,4.38-5H247a4.53,4.53,0,0,1,4.83,4.17v.06h-1.5a3.13,3.13,0,0,0-3.3-2.91c-2.32,0-3.4,1.5-3.4,3.61v1.94c0,2.11,1.08,3.6,3.4,3.6a3.12,3.12,0,0,0,3.3-2.9h1.5a4.5,4.5,0,0,1-4.76,4.22H247a4.69,4.69,0,0,1-5-4.39A2.9,2.9,0,0,1,242,95.3Z"/><path class="cls-4" d="M254.87,95.35V93.54c0-3.06,1.74-5.08,4.91-5.08s4.78,2.13,4.78,4.91V95h-8.08v.4c0,2,1,3.54,3.37,3.54A3,3,0,0,0,263,96.8h1.5a4.44,4.44,0,0,1-4.6,3.45,4.66,4.66,0,0,1-5-4.9Zm1.61-1.59H263v-.52c0-2-1-3.5-3.22-3.5-2.42,0-3.3,1.6-3.3,3.67Z"/><path class="cls-4" d="M276.67,86H272V84.59h11.1V86h-4.72v14h-1.71Z"/><path class="cls-4" d="M284.72,88.72h1.57v2.6c.41-1.74,1.63-2.66,3.67-2.66h.27v1.56h-.33c-2.14,0-3.5,1.41-3.5,4.25V100h-1.68Z"/><path class="cls-4" d="M300,100V98.58a4.74,4.74,0,0,1-3.87,1.67c-2.67,0-4.27-1.49-4.27-3.54s1.78-3.52,4.47-3.52A4.92,4.92,0,0,1,300,94.6V92.51a2.62,2.62,0,0,0-2.5-2.74h-.32a2.86,2.86,0,0,0-2.82,1.69h-1.54a4.26,4.26,0,0,1,4.38-3c2.8,0,4.47,1.83,4.47,4V100Zm-.06-3.3c0-1.41-1.68-2.4-3.37-2.4-1.87,0-3.13.88-3.13,2.44s1.3,2.45,3,2.45,3.56-1,3.56-2.5Z"/><path class="cls-4" d="M315.17,83.93V100h-1.59V98.23a4.17,4.17,0,0,1-3.81,2c-3,0-4.71-2.22-4.71-5V93.5c0-2.93,1.83-5,4.67-5a4.22,4.22,0,0,1,3.77,1.94V83.93Zm-8.43,11.22c0,2.07,1,3.74,3.32,3.74S313.5,97.2,313.5,95V93.57a3.49,3.49,0,0,0-3.23-3.73H310c-2.14,0-3.3,1.67-3.3,3.74Z"/><path class="cls-4" d="M318.73,95.35V93.54c0-3.06,1.74-5.08,4.91-5.08s4.78,2.13,4.78,4.91V95h-8.08v.4c0,2,1,3.54,3.37,3.54a3,3,0,0,0,3.1-2.18h1.5a4.44,4.44,0,0,1-4.6,3.45,4.64,4.64,0,0,1-5-4.3A3.49,3.49,0,0,1,318.73,95.35Zm1.61-1.59h6.52v-.52c0-2-1-3.5-3.22-3.5-2.42,0-3.3,1.6-3.3,3.67Z"/><path class="cls-4" d="M331.48,95.28V93.43a5,5,0,0,1,10.06,0v1.85a5,5,0,0,1-10.06,0Zm5-5.48c-2.22,0-3.41,1.52-3.41,3.66v1.8c0,2.13,1.19,3.65,3.41,3.65s3.41-1.52,3.41-3.65v-1.8c0-2.14-1.15-3.66-3.37-3.66Z"/><path class="cls-4" d="M345.79,90.09h-1.66V88.72h1.66V87.23c0-2.18,1-3.3,3.25-3.3h1.59v1.36h-1.45c-1.19,0-1.72.55-1.72,1.81v1.62h2.77v1.37h-2.77V100h-1.67Z"/><path class="cls-4" d="M354,90.09h-1.65V88.72H354V87.23c0-2.18,1-3.3,3.26-3.3h1.58v1.36h-1.45c-1.19,0-1.72.55-1.72,1.81v1.62h2.77v1.37h-2.77V100H354Z"/><path class="cls-4" d="M593.15,73.59h-2V58.74L585.94,69h-2l-5.21-10.29V73.59h-2V54.7h2L585,67.17,591.2,54.7h2Z"/><path class="cls-4" d="M598.47,67.81V65.55a6.17,6.17,0,1,1,12.34,0v2.26a6.17,6.17,0,1,1-12.34,0Zm6.18-6.72c-2.72,0-4.18,1.87-4.18,4.48v2.22c0,2.61,1.46,4.48,4.18,4.48s4.19-1.87,4.19-4.48V65.57c0-2.57-1.46-4.48-4.19-4.48Z"/><path class="cls-4" d="M627.58,53.88V73.59h-2V71.43A5.12,5.12,0,0,1,621,73.91c-3.64,0-5.77-2.72-5.77-6.18v-2.1c0-3.59,2.24-6.18,5.72-6.18a5.15,5.15,0,0,1,4.61,2.37V53.88ZM617.24,67.65c0,2.54,1.21,4.59,4.07,4.59s4.21-2.08,4.21-4.75V65.71a4.28,4.28,0,0,0-3.94-4.58h-.29c-2.62,0-4,2.05-4,4.59Z"/><path class="cls-4" d="M632.63,67.89V65.68c0-3.75,2.13-6.23,6-6.23s5.85,2.61,5.85,6v2h-9.9V68c0,2.4,1.24,4.35,4.13,4.35a3.66,3.66,0,0,0,3.8-2.67h1.84a5.45,5.45,0,0,1-5.64,4.23A5.69,5.69,0,0,1,632.63,67.89Zm2-1.94h8V65.3c0-2.45-1.24-4.29-3.94-4.29-3,0-4,2-4,4.51Z"/><path class="cls-4" d="M649.61,59.77h1.92V63c.51-2.14,2-3.27,4.5-3.27h.33v1.92H656c-2.61,0-4.29,1.72-4.29,5.2v6.78h-2Z"/><path class="cls-4" d="M660.49,59.77h2v2.35c.64-1.57,2.21-2.67,4.61-2.67,3.1,0,5.08,2.1,5.08,5.42v8.72h-2.06V65.17c0-2.35-1-3.94-3.53-3.94-2.27,0-4,1.37-4,4.24v8.12h-2Z"/><path class="cls-4" d="M685.28,54.7h7.8c4.15,0,6.34,2.67,6.34,6a5.74,5.74,0,0,1-4.08,5.65l4.11,7.23h-2.4l-3.84-6.91h-5.83v6.91h-2.1ZM692.81,65c3,0,4.51-1.84,4.51-4.3s-1.57-4.31-4.51-4.31h-5.43V65Z"/><path class="cls-4" d="M703.72,67.89V65.68c0-3.75,2.13-6.23,6-6.23s5.85,2.61,5.85,6v2h-9.9V68c0,2.4,1.24,4.35,4.13,4.35a3.66,3.66,0,0,0,3.8-2.67h1.84a5.45,5.45,0,0,1-5.64,4.23A5.69,5.69,0,0,1,703.72,67.89Zm2-1.94h8V65.3c0-2.45-1.24-4.29-3.94-4.29-3,0-4,2-4,4.51Z"/><path class="cls-4" d="M720.27,75.07h2c.76,1.33,2.08,1.92,4,1.92,2.4,0,4-1.35,4-3.45V70.4c-.39,1.27-2.27,2.6-4.6,2.6A5.39,5.39,0,0,1,720,67.92a4.86,4.86,0,0,1,0-.54V65.09a5.34,5.34,0,0,1,5-5.64c.21,0,.43,0,.64,0a5,5,0,0,1,4.7,2.61V59.77h2V73.59c0,2.86-2.59,5-6.1,5C723.51,78.61,721,77.34,720.27,75.07Zm10-7.9V65.38a4.17,4.17,0,0,0-4.08-4.26h-.08c-2.7,0-4.1,1.48-4.1,4.13v2c0,2.59,1.38,4.13,4,4.13a4,4,0,0,0,4.29-3.68,3.13,3.13,0,0,0,0-.53Z"/><path class="cls-4" d="M739.25,54.88a1.25,1.25,0,1,1-1.3,1.25,1.21,1.21,0,0,1,1.17-1.25Zm-1,4.89h2V73.59h-2Z"/><path class="cls-4" d="M746.13,59.77h2v2.35c.65-1.57,2.16-2.67,4.56-2.67a4.64,4.64,0,0,1,4.4,2.69,5.5,5.5,0,0,1,5-2.69c3,0,5,2.16,5,5.42v8.72h-2V65.17c0-2.35-1.17-3.94-3.43-3.94s-3.94,1.37-3.94,4.24v8.12h-2.06V65.17c0-2.35-1.16-3.94-3.42-3.94s-3.94,1.37-3.94,4.24v8.12h-2.06Z"/><path class="cls-4" d="M772,67.89V65.68c0-3.75,2.13-6.23,6-6.23s5.85,2.61,5.85,6v2H774V68c0,2.4,1.24,4.35,4.13,4.35a3.67,3.67,0,0,0,3.8-2.67h1.84a5.46,5.46,0,0,1-5.64,4.23C774.46,73.91,772,71.62,772,67.89ZM774,66h8V65.3c0-2.45-1.24-4.29-3.94-4.29-3,0-4,2-4,4.51Z"/><path class="cls-4" d="M566.05,84.59h1.72v14h7.9V100h-9.62Z"/><path class="cls-4" d="M586.43,100V98.58a4.74,4.74,0,0,1-3.87,1.67c-2.67,0-4.27-1.49-4.27-3.54s1.78-3.52,4.47-3.52a4.94,4.94,0,0,1,3.61,1.41V92.51a2.63,2.63,0,0,0-2.5-2.74h-.32a2.86,2.86,0,0,0-2.82,1.69h-1.54a4.26,4.26,0,0,1,4.38-3c2.8,0,4.47,1.83,4.47,4V100Zm-.06-3.3c0-1.41-1.68-2.4-3.37-2.4-1.87,0-3.13.88-3.13,2.44s1.3,2.45,3,2.45,3.5-1,3.5-2.5Z"/><path class="cls-4" d="M592,88.72h1.57v2.6c.41-1.74,1.63-2.66,3.67-2.66h.27v1.56h-.33c-2.14,0-3.5,1.41-3.5,4.25V100H592Z"/><path class="cls-4" d="M599.81,101.2h1.66a3.35,3.35,0,0,0,3.23,1.56c2,0,3.31-1.1,3.31-2.81V97.39a4.06,4.06,0,0,1-3.79,2.14,4.39,4.39,0,0,1-4.6-4.17,3.09,3.09,0,0,1,0-.43V93.06a4.36,4.36,0,0,1,4.1-4.6h.52a4.06,4.06,0,0,1,3.83,2.13V88.72h1.61V100c0,2.33-2.11,4.09-5,4.09C602.46,104.08,600.43,103.05,599.81,101.2Zm8.2-6.45V93.3a3.4,3.4,0,0,0-3.33-3.47h-.06a3,3,0,0,0-3.35,2.6,3.22,3.22,0,0,0,0,.76V94.8c0,2.11,1.12,3.36,3.28,3.36a3.28,3.28,0,0,0,3.45-3.1v-.31Z"/><path class="cls-4" d="M613.24,95.35V93.54c0-3.06,1.74-5.08,4.91-5.08s4.78,2.13,4.78,4.91V95h-8.08v.4c0,2,1,3.54,3.37,3.54a3,3,0,0,0,3.1-2.18h1.5a4.44,4.44,0,0,1-4.6,3.45,4.64,4.64,0,0,1-5-4.3A3.49,3.49,0,0,1,613.24,95.35Zm1.61-1.59h6.52v-.52c0-2-1-3.5-3.22-3.5-2.42,0-3.3,1.6-3.3,3.67Z"/><path class="cls-4" d="M626.54,88.72h1.56v2.6c.42-1.74,1.63-2.66,3.68-2.66H632v1.56h-.33c-2.13,0-3.5,1.41-3.5,4.25V100H626.5Z"/><path class="cls-4" d="M653.86,100h-1.63V87.89L648,96.27h-1.63l-4.25-8.38V100h-1.63V84.59h1.61l5.09,10.16,5.08-10.16h1.61Z"/><path class="cls-4" d="M657.64,95.28V93.43a5,5,0,0,1,10.06,0v1.85a5,5,0,0,1-10.06,0Zm5-5.48c-2.22,0-3.41,1.52-3.41,3.66v1.8c0,2.13,1.19,3.65,3.41,3.65s3.42-1.52,3.42-3.65v-1.8c0-2.14-1.15-3.66-3.38-3.66Z"/><path class="cls-4" d="M680.82,83.93V100h-1.58V98.23a4.23,4.23,0,0,1-3.81,2c-3,0-4.71-2.22-4.71-5V93.5c0-2.93,1.82-5,4.67-5a4.19,4.19,0,0,1,3.76,1.94V83.93Zm-8.43,11.22c0,2.07,1,3.74,3.33,3.74s3.43-1.69,3.43-3.87V93.57a3.49,3.49,0,0,0-3.23-3.73h-.23c-2.13,0-3.3,1.67-3.3,3.74Z"/><path class="cls-4" d="M684.39,95.35V93.54c0-3.06,1.74-5.08,4.91-5.08s4.78,2.13,4.78,4.91V95H686v.4c0,2,1,3.54,3.37,3.54a3,3,0,0,0,3.11-2.18H694a4.46,4.46,0,0,1-4.61,3.45,4.64,4.64,0,0,1-5-4.28A3.75,3.75,0,0,1,684.39,95.35Zm1.6-1.59h6.52v-.52c0-2-1-3.5-3.21-3.5-2.42,0-3.31,1.6-3.31,3.67Z"/><path class="cls-4" d="M697.79,83.93h1.68V100h-1.68Z"/><path class="cls-4" d="M710,84.74a1,1,0,1,1-1,1A1,1,0,0,1,710,84.74Zm-.83,4h1.67V100H709.2Z"/><path class="cls-4" d="M714.57,96.71V96.6h1.52v.07c0,1.41,1.32,2.33,3.17,2.33s3-.68,3-2.13a1.58,1.58,0,0,0-1.41-1.57l-3.35-.77c-1.67-.37-2.64-1.38-2.64-2.86,0-2.11,1.79-3.21,4.27-3.21s4.19,1.43,4.19,3.52v.11H721.8V92c0-1.39-1-2.31-2.69-2.31s-2.71.66-2.71,1.91a1.37,1.37,0,0,0,1.19,1.45l3.46.82c1.74.41,2.77,1.27,2.77,2.9,0,2-1.93,3.45-4.58,3.45S714.57,98.89,714.57,96.71Z"/><path class="cls-4" d="M732.84,84.59h6.36c2.73,0,4.21,1.6,4.21,3.83A3.79,3.79,0,0,1,741.14,92a3.71,3.71,0,0,1,3.17,3.78c0,2.57-1.92,4.18-5,4.18H732.8Zm6,6.86a2.72,2.72,0,0,0,2.9-2.51v-.3a2.61,2.61,0,0,0-2.51-2.72,2.54,2.54,0,0,0-.39,0H734.5v5.52Zm.39,7.2c2.2,0,3.41-1.06,3.41-3,0-1.72-1.25-2.9-3.39-2.9H734.5V98.6Z"/><path class="cls-4" d="M747.21,95.35V93.54c0-3.06,1.74-5.08,4.91-5.08s4.78,2.13,4.78,4.91V95h-8.08v.4c0,2,1,3.54,3.37,3.54a3,3,0,0,0,3.1-2.18h1.5a4.46,4.46,0,0,1-4.6,3.45,4.64,4.64,0,0,1-5-4.3A3.49,3.49,0,0,1,747.21,95.35Zm1.61-1.59h6.52v-.52c0-2-1-3.5-3.22-3.5-2.42,0-3.3,1.6-3.3,3.67Z"/><path class="cls-4" d="M764.43,100c-2.16,0-3.06-1.08-3.06-3V90.09h-1.92V88.72h1.92V85.49H763v3.23h2.88v1.37H763V97c0,1.14.42,1.63,1.67,1.63h1.12V100Z"/><path class="cls-4" d="M773,100c-2.16,0-3.06-1.08-3.06-3V90.09H768V88.72h2V85.49h1.68v3.23h2.88v1.37h-2.88V97c0,1.14.41,1.63,1.67,1.63h1.12V100Z"/><path class="cls-4" d="M777.15,95.35V93.54c0-3.06,1.74-5.08,4.91-5.08s4.78,2.13,4.78,4.91V95h-8.08v.4c0,2,1,3.54,3.36,3.54a3,3,0,0,0,3.11-2.18h1.5a4.46,4.46,0,0,1-4.61,3.45,4.65,4.65,0,0,1-5-4.31A3.39,3.39,0,0,1,777.15,95.35Zm1.61-1.59h6.51v-.52c0-2-1-3.5-3.21-3.5-2.42,0-3.3,1.6-3.3,3.67Z"/><path class="cls-4" d="M790.44,88.72H792v2.6c.42-1.74,1.63-2.66,3.67-2.66H796v1.56h-.33c-2.14,0-3.5,1.41-3.5,4.25V100h-1.68Z"/><path class="cls-4" d="M181.64,605.37l-3.3,1.56v-1.58l3.6-1.76h1.44v15.8h-1.74Z"/><path class="cls-4" d="M303.59,605.37l-3.3,1.56v-1.58l3.59-1.76h1.45v15.8h-1.74Z"/><path class="cls-4" d="M309.64,614.45v-5.92c0-3,2.05-5.26,5.53-5.26s5.53,2.26,5.53,5.26v5.92c0,3-2.05,5.26-5.53,5.26S309.64,617.45,309.64,614.45Zm9.32.07v-6.06a3.79,3.79,0,0,0-7.58,0v6.06a3.79,3.79,0,0,0,7.58,0Z"/><path class="cls-4" d="M442.22,618l6.68-7a5,5,0,0,0,1.76-3.41,3,3,0,0,0-3.07-2.93h-.16a3,3,0,0,0-3.31,2.65,3.25,3.25,0,0,0,0,.54v.36h-1.64v-.43c0-2.89,2-4.54,5-4.54s5,1.69,5,4.34c0,1.91-1.33,3.38-2.59,4.67L444.23,618h8.19v1.42h-10.2Z"/><path class="cls-4" d="M456.12,614.45v-5.92c0-3,2.06-5.26,5.54-5.26s5.53,2.26,5.53,5.26v5.92c0,3-2.05,5.26-5.53,5.26S456.12,617.45,456.12,614.45Zm9.33.07v-6.06a3.8,3.8,0,0,0-7.59,0v6.06a3.8,3.8,0,0,0,7.59,0Z"/><path class="cls-4" d="M586.7,603.59h9.21V605l-5.06,5.53h.61c2.92,0,5,1.76,5,4.45S594,619.7,591,619.7c-2.71,0-5.21-1.63-5.33-4.63h1.61a3.45,3.45,0,0,0,3.65,3.24h.1c2.28,0,3.77-1.4,3.77-3.27s-1.43-3.21-3.66-3.21H589v-1.36l4.88-5.48H586.7Z"/><path class="cls-4" d="M600.09,614.45v-5.92c0-3,2-5.26,5.53-5.26s5.53,2.26,5.53,5.26v5.92c0,3-2,5.26-5.53,5.26S600.09,617.45,600.09,614.45Zm9.32.07v-6.06a3.8,3.8,0,0,0-7.59,0v6.06a3.8,3.8,0,0,0,7.59,0Z"/><path class="cls-4" d="M736.85,615.62h-7.5v-1.28l5.26-10.75h1.58L731,614.31h5.81v-3.75h1.6v3.75h2.19v1.31h-2.19v3.77h-1.6Z"/><path class="cls-4" d="M743.87,614.45v-5.92c0-3,2-5.26,5.53-5.26s5.53,2.26,5.53,5.26v5.92c0,3-2,5.26-5.53,5.26S743.87,617.45,743.87,614.45Zm9.32.07v-6.06a3.8,3.8,0,0,0-7.59,0v6.06a3.8,3.8,0,0,0,7.59,0Z"/><path class="cls-4" d="M1024.84,603.59l-4.58,7h0a3.89,3.89,0,0,1,3.18-1.4,4.92,4.92,0,0,1,5,4.83c0,.12,0,.24,0,.36a5.38,5.38,0,0,1-5.43,5.33h-.08a5.2,5.2,0,0,1-5.5-4.9c0-.12,0-.24,0-.36a8.62,8.62,0,0,1,1.67-4.65l3.93-6.21Zm-2,14.74a3.72,3.72,0,0,0,3.84-3.61c0-.1,0-.2,0-.3a3.65,3.65,0,0,0-3.39-3.89h-.36a3.82,3.82,0,0,0-3.89,3.75,2.09,2.09,0,0,0,0,.25,3.65,3.65,0,0,0,3.48,3.81h.32Z"/><path class="cls-4" d="M1031.75,614.45v-5.92c0-3,2-5.26,5.53-5.26s5.53,2.26,5.53,5.26v5.92c0,3-2,5.26-5.53,5.26S1031.75,617.45,1031.75,614.45Zm9.33.07v-6.06a3.8,3.8,0,0,0-7.59,0v6.06a3.8,3.8,0,0,0,7.59,0Z"/><line class="cls-5" x1="181.02" y1="569.39" x2="181.02" y2="589.39"/><line class="cls-5" x1="181.02" y1="569.39" x2="181.02" y2="589.39"/><line class="cls-5" x1="310.89" y1="569.39" x2="310.89" y2="589.39"/><line class="cls-5" x1="310.89" y1="569.39" x2="310.89" y2="589.39"/><line class="cls-5" x1="455.18" y1="569.39" x2="455.18" y2="589.39"/><line class="cls-5" x1="455.18" y1="569.39" x2="455.18" y2="589.39"/><line class="cls-5" x1="599.48" y1="569.39" x2="599.48" y2="589.39"/><line class="cls-5" x1="599.48" y1="569.39" x2="599.48" y2="589.39"/><line class="cls-5" x1="743.77" y1="569.39" x2="743.77" y2="589.39"/><line class="cls-5" x1="743.77" y1="569.39" x2="743.77" y2="589.39"/><line class="cls-5" x1="1032.36" y1="569.39" x2="1032.36" y2="589.39"/><line class="cls-5" x1="1032.36" y1="569.39" x2="1032.36" y2="589.39"/><path class="cls-4" d="M873.14,615.51h1.65a3.61,3.61,0,0,0,3.7,2.78,3.76,3.76,0,0,0,4-3.51c0-.13,0-.25,0-.38a3.71,3.71,0,0,0-3.58-3.84h-.19a4.35,4.35,0,0,0-3.59,1.86h-1.65l1.49-8.83h7.88V605h-6.5l-1,5.67a4.9,4.9,0,0,1,3.71-1.54,5,5,0,0,1,5.12,4.87,2,2,0,0,1,0,.35,5.39,5.39,0,0,1-5.42,5.36h-.27A5.17,5.17,0,0,1,873.14,615.51Z"/><path class="cls-4" d="M887.72,614.45v-5.92c0-3,2.06-5.26,5.54-5.26s5.53,2.26,5.53,5.26v5.92c0,3-2.06,5.26-5.53,5.26S887.72,617.45,887.72,614.45Zm9.33.07v-6.06a3.8,3.8,0,0,0-7.59,0v6.06a3.8,3.8,0,0,0,7.59,0Z"/><line class="cls-5" x1="888.07" y1="569.39" x2="888.07" y2="589.39"/><line class="cls-5" x1="888.07" y1="569.39" x2="888.07" y2="589.39"/><line class="cls-5" x1="150" y1="569.93" x2="130" y2="569.93"/><line class="cls-5" x1="150" y1="569.93" x2="130" y2="569.93"/><line class="cls-5" x1="150" y1="496.27" x2="130" y2="496.27"/><line class="cls-5" x1="150" y1="496.27" x2="130" y2="496.27"/><line class="cls-5" x1="150" y1="422.61" x2="130" y2="422.61"/><line class="cls-5" x1="150" y1="422.61" x2="130" y2="422.61"/><line class="cls-5" x1="150" y1="348.94" x2="130" y2="348.94"/><line class="cls-5" x1="150" y1="348.94" x2="130" y2="348.94"/><line class="cls-5" x1="150" y1="275.28" x2="130" y2="275.28"/><line class="cls-5" x1="150" y1="275.28" x2="130" y2="275.28"/><line class="cls-5" x1="150" y1="201.62" x2="130" y2="201.62"/><line class="cls-5" x1="150" y1="201.62" x2="130" y2="201.62"/><polyline class="cls-6" points="1149.96 569.93 150 569.93 150 149.93"/><path class="cls-4" d="M87.14,573.33v-5.77c0-2.92,2-5.12,5.39-5.12s5.39,2.2,5.39,5.12v5.77c0,2.93-2,5.13-5.39,5.13S87.14,576.26,87.14,573.33Zm9.09.07v-5.9a3.7,3.7,0,0,0-7.4,0v5.9a3.7,3.7,0,0,0,7.4,0Z"/><path class="cls-4" d="M102.52,576.12a1.06,1.06,0,0,1,1.13,1v.09a1.13,1.13,0,0,1-2.25,0,1.05,1.05,0,0,1,1-1.08Z"/><path class="cls-4" d="M107.12,573.33v-5.77c0-2.92,2-5.12,5.4-5.12s5.39,2.2,5.39,5.12v5.77c0,2.93-2,5.13-5.39,5.13S107.12,576.26,107.12,573.33Zm9.1.07v-5.9a3.7,3.7,0,0,0-7.4,0v5.9a3.7,3.7,0,0,0,7.4,0Z"/><path class="cls-4" d="M94.69,499.67V493.9c0-2.93,2-5.13,5.39-5.13s5.4,2.2,5.4,5.13v5.77c0,2.92-2,5.12-5.4,5.12S94.69,502.59,94.69,499.67Zm9.09.06v-5.89a3.7,3.7,0,0,0-7.4,0v5.89a3.7,3.7,0,0,0,7.4,0Z"/><path class="cls-4" d="M110.07,502.46a1.06,1.06,0,0,1,1.13,1v.09a1.13,1.13,0,0,1-2.25,0,1.05,1.05,0,0,1,1-1.08Z"/><path class="cls-4" d="M115.64,490.82l-3.21,1.52V490.8l3.5-1.72h1.41v15.4h-1.7Z"/><path class="cls-4" d="M87.75,426v-5.76c0-2.93,2-5.13,5.4-5.13s5.39,2.2,5.39,5.13V426c0,2.93-2,5.13-5.39,5.13S87.75,428.93,87.75,426Zm9.1.07v-5.9a3.7,3.7,0,1,0-7.4,0v5.9a3.7,3.7,0,1,0,7.4,0Z"/><path class="cls-4" d="M103.14,428.8a1.08,1.08,0,1,1-1.12,1.08,1.05,1.05,0,0,1,1-1.08Z"/><path class="cls-4" d="M107.85,429.5l6.52-6.84a4.87,4.87,0,0,0,1.71-3.32,2.86,2.86,0,0,0-2.89-2.85h-.25a2.94,2.94,0,0,0-3.23,2.6,2.77,2.77,0,0,0,0,.5v.4h-1.61v-.42c0-2.81,2-4.42,4.85-4.42s4.84,1.65,4.84,4.23c0,1.87-1.3,3.3-2.53,4.55l-5.44,5.55h8v1.38h-10Z"/><path class="cls-4" d="M87.51,352.34v-5.76c0-2.93,2-5.13,5.39-5.13s5.4,2.2,5.4,5.13v5.76c0,2.93-2,5.13-5.4,5.13S87.51,355.27,87.51,352.34Zm9.09.07v-5.9a3.7,3.7,0,0,0-7.39,0v5.9a3.7,3.7,0,0,0,7.39,0Z"/><path class="cls-4" d="M102.9,355.13a1.08,1.08,0,1,1-1.08,1.08A1.08,1.08,0,0,1,102.9,355.13Z"/><path class="cls-4" d="M108.49,341.76h9v1.38l-4.93,5.39h.59c2.84,0,4.85,1.72,4.85,4.34s-2.42,4.6-5.35,4.6c-2.64,0-5.09-1.59-5.2-4.51H109a3.37,3.37,0,0,0,3.56,3.15h.1c2.22,0,3.68-1.36,3.68-3.19s-1.39-3.12-3.57-3.12h-2.09v-1.32l4.75-5.35H108.5Z"/><path class="cls-4" d="M88,278.68v-5.77c0-2.92,2-5.13,5.4-5.13s5.39,2.21,5.39,5.13v5.77c0,2.92-2,5.12-5.39,5.12S88,281.6,88,278.68Zm9.1.06v-5.89a3.7,3.7,0,1,0-7.4,0v5.89a3.7,3.7,0,1,0,7.4,0Z"/><path class="cls-4" d="M103.38,281.47a1.05,1.05,0,0,1,1.12,1v.1a1.12,1.12,0,0,1-2.24,0,1.05,1.05,0,0,1,1-1.08Z"/><path class="cls-4" d="M114.63,279.82h-7.31v-1.25l5.13-10.48H114l-5,10.45h5.66v-3.65h1.56v3.65h2.14v1.28h-2.14v3.68h-1.56Z"/><path class="cls-4" d="M87.38,205v-5.76c0-2.93,2-5.13,5.39-5.13s5.4,2.2,5.4,5.13V205c0,2.93-2,5.13-5.4,5.13S87.38,207.94,87.38,205Zm9.09.07v-5.9a3.7,3.7,0,0,0-7.4,0v5.9a3.7,3.7,0,0,0,7.4,0Z"/><path class="cls-4" d="M102.77,207.81a1.05,1.05,0,0,1,1.12,1v.1a1.13,1.13,0,0,1-2.25,0,1.05,1.05,0,0,1,1-1.08Z"/><path class="cls-4" d="M107.32,206.05h1.61a3.53,3.53,0,0,0,3.61,2.7,3.65,3.65,0,0,0,3.89-3.39c0-.13,0-.26,0-.39a3.62,3.62,0,0,0-3.5-3.74h-.18a4.24,4.24,0,0,0-3.5,1.8h-1.61l1.45-8.6h7.69v1.39h-6.34l-1,5.52a4.77,4.77,0,0,1,3.61-1.5,4.91,4.91,0,0,1,5,4.84v.24a5.27,5.27,0,0,1-5.29,5.23h-.26A5.05,5.05,0,0,1,107.32,206.05Z"/><path class="cls-4" d="M480.11,640.5h7.8c4.16,0,6.34,2.67,6.34,6a5.74,5.74,0,0,1-4.07,5.64l4.1,7.23h-2.4l-3.83-6.91h-5.83v6.91h-2.11Zm7.53,10.31c3,0,4.51-1.83,4.51-4.29s-1.57-4.32-4.51-4.32h-5.42v8.61Z"/><path class="cls-4" d="M498.55,653.7v-2.21c0-3.76,2.13-6.24,6-6.24s5.86,2.62,5.86,6v2H500.5v.49c0,2.4,1.24,4.34,4.13,4.34a3.65,3.65,0,0,0,3.81-2.67h1.83a5.47,5.47,0,0,1-5.64,4.24,5.71,5.71,0,0,1-6.08-5.32C498.54,654.15,498.54,653.93,498.55,653.7Zm2-1.94h8v-.65c0-2.46-1.24-4.29-3.94-4.29-3,0-4.05,2-4.05,4.5Z"/><path class="cls-4" d="M514.89,655.37v-.13h1.86v.08c0,1.73,1.62,2.86,3.89,2.86s3.67-.84,3.67-2.62a1.93,1.93,0,0,0-1.73-1.91l-4.1-.95c-2.06-.46-3.24-1.7-3.24-3.51,0-2.59,2.18-3.94,5.23-3.94,2.89,0,5.13,1.76,5.13,4.32v.13h-1.86v-.08c0-1.7-1.24-2.83-3.29-2.83s-3.32.81-3.32,2.35a1.68,1.68,0,0,0,1.45,1.78l4.24,1c2.13.51,3.4,1.56,3.4,3.56,0,2.46-2.37,4.24-5.61,4.24S514.89,658.05,514.89,655.37Z"/><path class="cls-4" d="M532.48,640.5h2L544.84,656V640.5h2v18.89h-2l-10.39-15.52v15.52h-2Z"/><path class="cls-4" d="M552.22,653.7v-2.21c0-3.76,2.13-6.24,6-6.24s5.85,2.62,5.85,6v2h-9.9v.49c0,2.4,1.24,4.34,4.13,4.34a3.65,3.65,0,0,0,3.8-2.67H564a5.47,5.47,0,0,1-5.64,4.24,5.71,5.71,0,0,1-6.13-5.25A6.26,6.26,0,0,1,552.22,653.7Zm2-1.94h8v-.65c0-2.46-1.24-4.29-3.94-4.29-3,0-4,2-4,4.5Z"/><path class="cls-4" d="M574,659.39c-2.64,0-3.75-1.32-3.75-3.67v-8.47H567.9v-1.68h2.35v-4h2v4h3.54v1.68H572.3v8.47c0,1.41.52,2,2.05,2h1.38v1.67Z"/><path class="cls-4" d="M583.13,642.63l-3.94,1.86v-1.88l4.29-2.11h1.73v18.89h-2.08Z"/><path class="cls-4" d="M591.1,654.37a4.74,4.74,0,0,1,3.8-4.8,4.68,4.68,0,0,1-3-4.4c0-3.13,2.4-5,5.78-5s5.77,1.92,5.77,5a4.68,4.68,0,0,1-3,4.4,4.74,4.74,0,0,1,3.8,4.8c0,3.22-2.72,5.4-6.55,5.4S591.1,657.59,591.1,654.37Zm11.12,0c0-2.45-1.87-3.91-4.56-3.91s-4.57,1.46-4.57,3.91c0,2.3,2,3.84,4.57,3.84S602.22,656.67,602.22,654.37Zm-4.56-5.48a3.67,3.67,0,0,0,3.83-3.49v-.1a3.48,3.48,0,0,0-3.33-3.62,2.79,2.79,0,0,0-.5,0c-2.33,0-3.84,1.4-3.84,3.61a3.66,3.66,0,0,0,3.75,3.59Z"/><path class="cls-4" d="M633.94,659.39h-2l-5-16.6-5,16.6h-2l-4.48-18.89h2L621,656.59l4.86-16.09H628l4.86,16.09,3.57-16.09h2Z"/><path class="cls-4" d="M644.07,640.69a1.24,1.24,0,1,1-1.3,1.24,1.2,1.2,0,0,1,1.15-1.24A.75.75,0,0,1,644.07,640.69Zm-1,4.88h2v13.82H643Z"/><path class="cls-4" d="M662.67,639.69v19.7h-1.94v-2.15a5.19,5.19,0,0,1-4.67,2.48c-3.65,0-5.78-2.73-5.78-6.18v-2.11c0-3.59,2.24-6.18,5.72-6.18a5.17,5.17,0,0,1,4.62,2.38v-7.94Zm-10.34,13.77c0,2.53,1.21,4.59,4.08,4.59s4.21-2.08,4.21-4.76v-1.78a4.28,4.28,0,0,0-4-4.58h-.28c-2.62,0-4,2.06-4,4.59Z"/><path class="cls-4" d="M673.28,659.39c-2.64,0-3.75-1.32-3.75-3.67v-8.47h-2.35v-1.68h2.35v-4h2.05v4h3.54v1.68h-3.54v8.47c0,1.41.51,2,2,2H675v1.67Z"/><path class="cls-4" d="M679.82,639.69h2v8a4.77,4.77,0,0,1,4.51-2.46c3.1,0,5.07,2.11,5.07,5.43v8.71h-2V651c0-2.35-1-3.94-3.54-3.94-2.26,0-4,1.38-4,4.24v8.12h-2Z"/><path class="cls-4" d="M704.6,640.5H712c4,0,6.42,2.59,6.42,6s-2.45,6-6.42,6h-5.29v6.85H704.6Zm7.21,10.28c3.1,0,4.51-2,4.51-4.29s-1.41-4.24-4.51-4.24h-5.1v8.53Z"/><path class="cls-4" d="M731.76,659.39v-1.72a5.81,5.81,0,0,1-4.75,2.05c-3.26,0-5.24-1.84-5.24-4.35,0-2.67,2.19-4.32,5.48-4.32a6,6,0,0,1,4.43,1.73v-2.56a3.2,3.2,0,0,0-3-3.36h-.41a3.49,3.49,0,0,0-3.46,2.08h-1.89a5.24,5.24,0,0,1,5.37-3.7c3.43,0,5.48,2.24,5.48,5v9.17Zm-.08-4c0-1.73-2-3-4.13-3-2.29,0-3.83,1.08-3.83,3s1.59,3,3.72,3,4.24-1.26,4.24-3Z"/><path class="cls-4" d="M739.3,645.57h1.91v3.19c.52-2.13,2-3.27,4.51-3.27H746v1.92h-.4c-2.62,0-4.29,1.73-4.29,5.21v6.77h-2Z"/><path class="cls-4" d="M758.73,659.39v-1.72a5.81,5.81,0,0,1-4.75,2.05c-3.26,0-5.23-1.84-5.23-4.35,0-2.67,2.18-4.32,5.48-4.32a6,6,0,0,1,4.42,1.73v-2.56a3.2,3.2,0,0,0-3-3.36h-.41a3.49,3.49,0,0,0-3.46,2.08h-1.89a5.24,5.24,0,0,1,5.37-3.7c3.43,0,5.48,2.24,5.48,5v9.17Zm-.08-4c0-1.73-2-3-4.13-3-2.29,0-3.83,1.08-3.83,3s1.59,3,3.73,3,4.23-1.26,4.23-3Z"/><path class="cls-4" d="M766.27,645.57h1.94v2.35a4.57,4.57,0,0,1,4.56-2.67,4.62,4.62,0,0,1,4.4,2.7,5.49,5.49,0,0,1,5-2.7c3,0,5,2.16,5,5.43v8.71h-2V651c0-2.35-1.16-3.94-3.43-3.94s-3.94,1.38-3.94,4.24v8.12h-2V651c0-2.35-1.16-3.94-3.43-3.94s-3.94,1.38-3.94,4.24v8.12h-2Z"/><path class="cls-4" d="M792.08,653.7v-2.21c0-3.76,2.13-6.24,6-6.24s5.86,2.62,5.86,6v2H794v.49c0,2.4,1.24,4.34,4.13,4.34a3.65,3.65,0,0,0,3.81-2.67h1.83a5.46,5.46,0,0,1-5.64,4.24,5.71,5.71,0,0,1-6.08-5.32C792.07,654.15,792.07,653.93,792.08,653.7Zm2-1.94h8v-.65c0-2.46-1.24-4.29-3.94-4.29-3,0-4,2-4,4.5Z"/><path class="cls-4" d="M813.87,659.39c-2.65,0-3.75-1.32-3.75-3.67v-8.47h-2.35v-1.68h2.35v-4h2v4h3.53v1.68h-3.53v8.47c0,1.41.51,2,2,2h1.38v1.67Z"/><path class="cls-4" d="M819.59,653.7v-2.21c0-3.76,2.14-6.24,6-6.24s5.86,2.62,5.86,6v2h-9.9v.49c0,2.4,1.24,4.34,4.13,4.34a3.67,3.67,0,0,0,3.8-2.67h1.84a5.47,5.47,0,0,1-5.64,4.24A5.68,5.68,0,0,1,819.59,653.7Zm2-1.94h8v-.65c0-2.46-1.24-4.29-3.94-4.29-3,0-4,2-4,4.5Z"/><path class="cls-4" d="M836.58,645.57h1.91v3.19c.52-2.13,2-3.27,4.51-3.27h.33v1.92h-.41c-2.62,0-4.29,1.73-4.29,5.21v6.77h-2Z"/><line class="cls-6" x1="150" y1="699.39" x2="1149.96" y2="699.39"/><path class="cls-4" d="M183.12,732.88h-4.71v-1.43h11.13v1.43h-4.71v14h-1.71Z"/><path class="cls-4" d="M190,742.21v-1.8c0-3.06,1.74-5.08,4.9-5.08s4.78,2.13,4.78,4.9v1.68H191.6v.39c0,2,1,3.54,3.37,3.54a3,3,0,0,0,3.1-2.17h1.5a4.46,4.46,0,0,1-4.6,3.45,4.66,4.66,0,0,1-5-4.31Q190,742.51,190,742.21Zm1.6-1.58h6.52v-.53c0-2-1-3.5-3.22-3.5-2.42,0-3.3,1.61-3.3,3.68Z"/><path class="cls-4" d="M202.72,743.58v-.11h1.52v.06c0,1.41,1.32,2.34,3.16,2.34s3-.69,3-2.14a1.59,1.59,0,0,0-1.41-1.56l-3.35-.77C204,741,203,740,203,738.54c0-2.11,1.79-3.21,4.27-3.21s4.18,1.43,4.18,3.52V739h-1.52v-.07c0-1.38-1-2.31-2.68-2.31s-2.71.66-2.71,1.92a1.37,1.37,0,0,0,1.19,1.45l3.46.81c1.73.42,2.77,1.28,2.77,2.91,0,2-1.94,3.45-4.58,3.45S202.72,745.76,202.72,743.58Z"/><path class="cls-4" d="M219.11,746.86c-2.16,0-3.06-1.08-3.06-3V737h-1.92v-1.37h1.92V732.4h1.67v3.23h2.88V737h-2.88v6.9c0,1.15.42,1.63,1.67,1.63h1.13v1.37Z"/><circle class="cls-7" cx="160" cy="739.39" r="10"/><path class="cls-4" d="M683.1,732.88h-4.71v-1.43h11.13v1.43h-4.71v14H683.1Z"/><path class="cls-4" d="M691.15,735.59h1.56v2.6c.42-1.74,1.63-2.67,3.68-2.67h.26v1.57h-.33c-2.13,0-3.5,1.41-3.5,4.24v5.53h-1.67Z"/><path class="cls-4" d="M706.44,746.86v-1.41a4.74,4.74,0,0,1-3.87,1.67c-2.66,0-4.27-1.5-4.27-3.54s1.78-3.52,4.47-3.52a4.94,4.94,0,0,1,3.6,1.41v-2.09a2.61,2.61,0,0,0-2.48-2.73h-.33a2.86,2.86,0,0,0-2.82,1.69H699.2a4.26,4.26,0,0,1,4.38-3c2.79,0,4.47,1.82,4.47,4v7.48Zm-.07-3.3c0-1.41-1.67-2.4-3.36-2.4-1.87,0-3.13.88-3.13,2.44s1.3,2.44,3,2.44S706.37,745,706.37,743.56Z"/><path class="cls-4" d="M713,731.61a1,1,0,1,1-1,1A1,1,0,0,1,713,731.61Zm-.83,4h1.67v11.27h-1.67Z"/><path class="cls-4" d="M718,735.59h1.59v1.92a3.76,3.76,0,0,1,3.76-2.18c2.53,0,4.14,1.71,4.14,4.42v7.11h-1.68V740c0-1.91-.85-3.21-2.88-3.21a3.11,3.11,0,0,0-3.28,2.91,3.25,3.25,0,0,0,0,.54v6.63H718Z"/><circle class="cls-8" cx="659.98" cy="739.39" r="10"/><g class="cls-9"><polygon class="cls-10" points="195.45 169.93 195.45 181.63 209.88 281.7 224.31 314.64 238.74 321.94 253.17 316.05 267.6 300.69 282.03 286.52 296.46 272.95 310.89 272.39 325.32 268.88 339.75 274.07 354.18 284.08 368.61 282.56 383.04 288.63 397.47 292.53 411.89 302.78 426.32 301.83 440.75 310.84 455.18 308.91 469.61 312.43 484.04 317.04 498.47 320.16 512.9 318.97 527.33 320.61 541.76 328.13 556.19 328.57 570.62 329.66 585.05 328.25 599.48 330.31 613.91 331.82 628.34 332.88 642.77 335.02 657.2 337.46 671.63 340.19 686.06 337.79 700.49 340.45 714.91 343.4 729.34 344.45 743.77 342.61 758.2 342.03 772.63 347.06 787.06 345.01 801.49 346.14 815.92 349.76 830.35 348.12 844.78 348.43 859.21 353.42 873.64 350.44 888.07 350.31 902.5 351.26 916.93 352.92 931.36 356.34 945.79 352.9 960.22 354.46 974.64 353.88 989.08 355.53 1003.5 352.71 1017.93 355.77 1032.36 354.9 1046.79 356.39 1061.22 355.73 1075.65 357.38 1090.08 357.43 1104.51 357.99 1104.51 353.02 1090.08 353.71 1075.65 351.76 1061.22 352.14 1046.79 352.01 1032.36 351.53 1017.93 350.33 1003.5 347.86 989.08 350.65 974.64 349.9 960.22 352.28 945.79 345.9 931.36 349.25 916.93 347.75 902.5 348.82 888.07 345.53 873.64 344.31 859.21 344.46 844.78 344.6 830.35 342.64 815.92 343.88 801.49 342.6 787.06 338.39 772.63 337.67 758.2 338.8 743.77 338.55 729.34 336.81 714.91 337.52 700.49 335.06 686.06 334.84 671.63 335.17 657.2 334.27 642.77 326.88 628.34 326.93 613.91 325.72 599.48 326.69 585.05 323.97 570.62 321.42 556.19 323.97 541.76 319.96 527.33 315.3 512.9 315.87 498.47 314.7 484.04 311.38 469.61 304.61 455.18 304.2 440.75 300.9 426.32 296.51 411.89 295.61 397.47 286.4 383.04 283.28 368.61 277.65 354.18 271.51 339.75 264.08 325.32 262.94 310.89 264.23 296.46 265.13 282.03 281.41 267.6 294.46 253.17 311.71 238.74 317.39 224.31 307.12 209.88 276.19 195.45 169.93"/></g><g class="cls-9"><polygon class="cls-11" points="195.45 171.26 195.45 181.86 209.88 290.39 224.31 337.79 238.74 363.78 253.17 381.9 267.6 402.92 282.03 425.1 296.46 451.34 310.89 483.56 325.32 509.63 339.75 532.7 354.18 547.67 368.61 556.87 383.04 560.76 397.47 563.3 411.89 565.08 426.32 566.73 440.75 567.03 455.18 567.59 469.61 567.94 484.04 568.34 498.47 568.59 512.9 568.62 527.33 568.8 541.76 568.93 556.19 569.16 570.62 569.27 585.05 569.15 599.48 569.22 613.91 569.27 628.34 569.37 642.77 569.41 657.2 569.49 671.63 569.36 686.06 569.41 700.49 569.41 714.91 569.48 729.34 569.59 743.77 569.62 758.2 569.52 772.63 569.55 787.06 569.55 801.49 569.68 815.92 569.71 830.35 569.55 844.78 569.62 859.21 569.61 873.64 569.58 888.07 569.73 902.5 569.7 916.93 569.7 931.36 569.65 945.79 569.6 960.22 569.74 974.64 569.63 989.08 569.77 1003.5 569.73 1017.93 569.67 1032.36 569.74 1046.79 569.61 1061.22 569.62 1075.65 569.75 1090.08 569.71 1104.51 569.77 1104.51 569.57 1090.08 569.47 1075.65 569.57 1061.22 569.45 1046.79 569.44 1032.36 569.63 1017.93 569.43 1003.5 569.47 989.08 569.55 974.64 569.52 960.22 569.48 945.79 569.45 931.36 569.54 916.93 569.55 902.5 569.59 888.07 569.51 873.64 569.44 859.21 569.45 844.78 569.42 830.35 569.22 815.92 569.38 801.49 569.29 787.06 569.48 772.63 569.24 758.2 569.21 743.77 569.47 729.34 569.08 714.91 569.2 700.49 569.16 686.06 569.21 671.63 569.1 657.2 569.34 642.77 569.23 628.34 569.16 613.91 569.05 599.48 568.92 585.05 568.89 570.62 569.08 556.19 568.88 541.76 568.57 527.33 568.21 512.9 568.25 498.47 568.21 484.04 567.95 469.61 567.5 455.18 566.85 440.75 566.71 426.32 566.07 411.89 564.65 397.47 562.19 383.04 560.33 368.61 555.44 354.18 545.5 339.75 531.51 325.32 507.79 310.89 478.8 296.46 448.72 282.03 421.91 267.6 395.42 253.17 377.8 238.74 362.23 224.31 333.04 209.88 285.9 195.45 171.26"/></g><g class="cls-9"><polyline class="cls-12" points="195.45 175.78 209.88 278.95 224.31 310.88 238.74 319.66 253.17 313.88 267.6 297.57 282.03 283.96 296.46 269.04 310.89 268.31 325.32 265.91 339.75 269.08 354.18 277.8 368.61 280.11 383.04 285.96 397.47 289.47 411.89 299.2 426.32 299.17 440.75 305.88 455.18 306.55 469.61 308.52 484.04 314.21 498.47 317.43 512.9 317.42 527.33 317.95 541.76 324.04 556.19 326.27 570.62 325.54 585.05 326.11 599.48 328.5 613.91 328.77 628.34 329.9 642.77 330.95 657.2 335.87 671.63 337.68 686.06 336.31 700.49 337.76 714.91 340.46 729.34 340.63 743.77 340.58 758.2 340.41 772.63 342.37 787.06 341.7 801.49 344.37 815.92 346.82 830.35 345.38 844.78 346.52 859.21 348.94 873.64 347.37 888.07 347.92 902.5 350.04 916.93 350.33 931.36 352.8 945.79 349.4 960.22 353.37 974.64 351.89 989.08 353.09 1003.5 350.28 1017.93 353.05 1032.36 353.22 1046.79 354.2 1061.22 353.93 1075.65 354.57 1090.08 355.57 1104.51 355.5"/></g><g class="cls-9"><polyline class="cls-13" points="195.45 176.56 209.88 288.15 224.31 335.41 238.74 363.01 253.17 379.85 267.6 399.17 282.03 423.5 296.46 450.03 310.89 481.18 325.32 508.71 339.75 532.11 354.18 546.59 368.61 556.16 383.04 560.54 397.47 562.74 411.89 564.87 426.32 566.4 440.75 566.87 455.18 567.22 469.61 567.72 484.04 568.14 498.47 568.4 512.9 568.44 527.33 568.5 541.76 568.75 556.19 569.02 570.62 569.18 585.05 569.02 599.48 569.07 613.91 569.16 628.34 569.26 642.77 569.32 657.2 569.41 671.63 569.23 686.06 569.31 700.49 569.28 714.91 569.34 729.34 569.34 743.77 569.54 758.2 569.37 772.63 569.39 787.06 569.51 801.49 569.49 815.92 569.54 830.35 569.38 844.78 569.52 859.21 569.53 873.64 569.51 888.07 569.62 902.5 569.64 916.93 569.62 931.36 569.59 945.79 569.52 960.22 569.61 974.64 569.58 989.08 569.66 1003.5 569.6 1017.93 569.55 1032.36 569.68 1046.79 569.52 1061.22 569.54 1075.65 569.66 1090.08 569.59 1104.51 569.67"/></g><path class="cls-14" d="M479.09,240.56v-2.51c0-3.85,2.14-6.75,6.49-6.75a5.91,5.91,0,0,1,6.19,5.5h-2a4,4,0,0,0-4.21-3.76c-3,0-4.4,2.07-4.4,4.93v2.68c0,2.86,1.41,4.93,4.4,4.93a4,4,0,0,0,4.21-3.76h2a5.91,5.91,0,0,1-6.19,5.5C481.23,247.32,479.09,244.41,479.09,240.56Z"/><path class="cls-14" d="M495.33,235.7h1.91v2.49c.42-1.74,1.65-2.56,3.61-2.56h.29v1.94h-.4c-2.09,0-3.37,1.3-3.37,4V247h-2Z"/><path class="cls-14" d="M503.8,232.73a1.24,1.24,0,1,1,1.27,1.21h0a1.18,1.18,0,0,1-1.23-1.13Zm.22,3h2V247h-2Z"/><path class="cls-14" d="M511,244v-6.6h-1.82v-1.7H511v-3.21h2v3.21h2.75v1.65H513v6.53c0,1,.38,1.48,1.5,1.48h1.14V247h-1.58A2.72,2.72,0,0,1,511,244Z"/><path class="cls-14" d="M518.87,232.73a1.24,1.24,0,1,1,1.27,1.21h0a1.18,1.18,0,0,1-1.23-1.13Zm.22,3h2V247h-2Z"/><path class="cls-14" d="M524.68,242.26v-1.81a4.76,4.76,0,0,1,4.5-5c.2,0,.4,0,.6,0a4.57,4.57,0,0,1,4.92,4.21.34.34,0,0,1,0,.1h-1.83a2.89,2.89,0,0,0-3.08-2.69h0c-2.13,0-3.12,1.39-3.12,3.33v1.91c0,2,1,3.34,3.12,3.34a2.89,2.89,0,0,0,3.08-2.67h1.83a4.58,4.58,0,0,1-4.83,4.32h-.1a4.77,4.77,0,0,1-5.1-4.4C524.67,242.67,524.67,242.47,524.68,242.26Z"/><path class="cls-14" d="M537.63,243.73c0-2.27,1.83-3.56,4.51-3.56a4.92,4.92,0,0,1,3.44,1.29v-2a2.41,2.41,0,0,0-2.33-2.47H543a2.68,2.68,0,0,0-2.6,1.54h-1.87a4.38,4.38,0,0,1,4.54-3.12c2.79,0,4.55,1.8,4.55,4.13V247h-2v-1.32a4.62,4.62,0,0,1-3.72,1.58C539.28,247.27,537.63,245.82,537.63,243.73Zm8,0c0-1.3-1.5-2.2-3.11-2.2s-2.88.81-2.88,2.22,1.21,2.24,2.8,2.24,3.14-1,3.14-2.3Z"/><path class="cls-14" d="M551.52,231h2v16h-2Z"/><path class="cls-14" d="M563.2,231.61h6.53c3.46,0,5.28,2.2,5.28,5a4.73,4.73,0,0,1-3.25,4.64l3.3,5.77h-2.4l-3-5.44h-4.33V247H563.2Zm6.27,8.29a3.3,3.3,0,0,0,0-6.6h-4.18v6.6Z"/><path class="cls-14" d="M577.8,242.32v-1.74c0-3.08,1.76-5.14,5-5.14s4.86,2.15,4.86,4.92v1.76h-7.9v.38a2.93,2.93,0,0,0,2.57,3.25,3.13,3.13,0,0,0,.53,0,2.81,2.81,0,0,0,2.91-2h1.8a4.56,4.56,0,0,1-4.71,3.5,4.69,4.69,0,0,1-5.05-4.3A4.56,4.56,0,0,1,577.8,242.32Zm8-1.69v-.46c0-1.85-.94-3.24-3-3.24-2.22,0-3,1.48-3,3.41v.29Z"/><path class="cls-14" d="M590.76,248.07h2a3.09,3.09,0,0,0,3,1.45c1.83,0,3.08-1,3.08-2.62v-2.36a4,4,0,0,1-3.65,2,4.41,4.41,0,0,1-4.62-4.19,3.38,3.38,0,0,1,0-.45v-1.8a4.38,4.38,0,0,1,4.1-4.64,4.86,4.86,0,0,1,.54,0,4,4,0,0,1,3.72,2V235.7h1.93v11.24c0,2.36-2.15,4.16-5.1,4.16C593.4,251.1,591.33,250,590.76,248.07Zm8.1-6.34V240.3a3.11,3.11,0,0,0-3-3.21h-.14a2.81,2.81,0,0,0-3.12,2.48,2.43,2.43,0,0,0,0,.66v1.52a2.78,2.78,0,0,0,2.42,3.11,2.74,2.74,0,0,0,.64,0,3,3,0,0,0,3.21-2.78c0-.12,0-.24,0-.36Z"/><path class="cls-14" d="M604.73,232.73a1.25,1.25,0,1,1,1.29,1.21h0a1.19,1.19,0,0,1-1.24-1.14Zm.22,3h2V247h-2Z"/><path class="cls-14" d="M611.07,235.7H613v1.76a3.63,3.63,0,0,1,3.61-2,3.75,3.75,0,0,1,3.5,2,4.5,4.5,0,0,1,4-2c2.46,0,4.07,1.71,4.07,4.4V247h-2v-6.87c0-1.73-.86-2.94-2.59-2.94s-2.93,1-2.93,3.14V247h-2v-6.87c0-1.73-.85-2.94-2.59-2.94s-2.91,1-2.91,3.14V247h-2Z"/><path class="cls-14" d="M631.48,242.32v-1.74c0-3.08,1.76-5.14,5-5.14s4.86,2.15,4.86,4.92v1.76h-7.9v.38a2.93,2.93,0,0,0,2.57,3.25,3.13,3.13,0,0,0,.53,0,2.81,2.81,0,0,0,2.91-2h1.8a4.56,4.56,0,0,1-4.71,3.5,4.69,4.69,0,0,1-5-4.3A4.56,4.56,0,0,1,631.48,242.32Zm8-1.69v-.46c0-1.85-1-3.24-3-3.24-2.22,0-3,1.48-3,3.41v.29Z"/><path class="cls-15" d="M479.14,466.86h3.63V454.71h-3.59v-1.63h9.29v1.63h-3.61v12.15h3.65v1.63h-9.37Z"/><path class="cls-15" d="M492.25,457.18h1.94v1.76a3.7,3.7,0,0,1,3.65-2c2.53,0,4.11,1.7,4.11,4.4v7.18h-2v-6.87c0-1.74-.82-2.95-2.69-2.95a2.83,2.83,0,0,0-3,2.67,3.85,3.85,0,0,0,0,.48v6.67h-2Z"/><path class="cls-15" d="M506.55,465.43v-6.6h-1.83v-1.65h1.83V454h2.05v3.22h2.75v1.65H508.6v6.53c0,1,.37,1.48,1.49,1.48h1.14v1.65h-1.58C507.49,468.49,506.55,467.36,506.55,465.43Z"/><path class="cls-15" d="M513.87,463.8v-1.74c0-3.08,1.77-5.15,5-5.15s4.86,2.16,4.86,4.93v1.76h-7.9v.4a2.93,2.93,0,0,0,2.57,3.25,3.25,3.25,0,0,0,.54,0,2.79,2.79,0,0,0,2.9-2h1.8a4.56,4.56,0,0,1-4.7,3.5C515.92,468.75,513.87,466.88,513.87,463.8Zm8-1.7v-.46c0-1.85-.94-3.23-3-3.23-2.22,0-3,1.47-3,3.41v.28Z"/><path class="cls-15" d="M527.18,457.18h1.92v2.48c.42-1.74,1.65-2.55,3.61-2.55H533v1.94h-.39c-2.09,0-3.37,1.29-3.37,4v5.46h-2Z"/><path class="cls-15" d="M535.74,457.18h1.94v1.65a4.15,4.15,0,0,1,3.7-1.92c3,0,4.73,2.22,4.73,5v1.76c0,2.88-1.79,5-4.69,5a4.08,4.08,0,0,1-3.63-1.83v5.39h-2Zm8.34,6.44V462c0-1.94-.94-3.48-3.12-3.48s-3.17,1.54-3.17,3.57v1.51a3.21,3.21,0,0,0,2.89,3.49H541C543,467.1,544.08,465.56,544.08,463.62Z"/><path class="cls-15" d="M549,463.73v-1.8a5.13,5.13,0,0,1,10.25,0v1.8a5.13,5.13,0,0,1-10.25,0Zm8.29,0v-1.85c0-2-1.08-3.39-3.17-3.39S551,459.9,551,461.88v1.85c0,1.95,1.07,3.36,3.14,3.36a3,3,0,0,0,3.17-2.82,2.9,2.9,0,0,0,0-.51Z"/><path class="cls-15" d="M562.74,452.42h2v16.07h-2Z"/><path class="cls-15" d="M568.3,465.21c0-2.27,1.83-3.57,4.51-3.57a4.89,4.89,0,0,1,3.43,1.3v-2a2.4,2.4,0,0,0-2.29-2.49h-.3a2.66,2.66,0,0,0-2.6,1.54h-1.87a4.39,4.39,0,0,1,4.53-3.13c2.8,0,4.56,1.81,4.56,4.14v7.44h-2v-1.32a4.62,4.62,0,0,1-3.72,1.58C570,468.75,568.3,467.3,568.3,465.21Zm7.94,0c0-1.3-1.49-2.2-3.1-2.2s-2.88.82-2.88,2.22,1.21,2.25,2.79,2.25,3.19-1,3.19-2.32Z"/><path class="cls-15" d="M582.78,465.43v-6.6H581v-1.65h1.83V454h2v3.22h2.75v1.65h-2.75v6.53c0,1,.38,1.48,1.5,1.48h1.14v1.65h-1.58C583.72,468.49,582.78,467.36,582.78,465.43Z"/><path class="cls-15" d="M590.63,454.21a1.25,1.25,0,1,1,1.29,1.21h-.06a1.2,1.2,0,0,1-1.23-1.17Zm.22,3h2v11.31h-2Z"/><path class="cls-15" d="M596.44,463.73v-1.8a5.13,5.13,0,0,1,10.25,0v1.8a5.13,5.13,0,0,1-10.25,0Zm8.29,0v-1.85c0-2-1.07-3.39-3.16-3.39s-3.15,1.41-3.15,3.39v1.85c0,1.95,1.08,3.36,3.15,3.36a3,3,0,0,0,3.16-3.33Z"/><path class="cls-15" d="M610.08,457.18H612v1.76a3.71,3.71,0,0,1,3.65-2c2.53,0,4.11,1.7,4.11,4.4v7.18h-2v-6.87c0-1.74-.82-2.95-2.69-2.95a2.82,2.82,0,0,0-3,2.65,2.75,2.75,0,0,0,0,.5v6.67h-2Z"/><path class="cls-15" d="M632,454.82h-4.63v-1.74h11.34v1.74h-4.62v13.67H632Z"/><path class="cls-15" d="M641.58,452.42h2v6.38a3.78,3.78,0,0,1,3.54-1.89c2.53,0,4.12,1.7,4.12,4.4v7.18h-2v-6.87c0-1.74-.81-2.95-2.68-2.95a2.8,2.8,0,0,0-3,2.59,2.62,2.62,0,0,0,0,.56v6.67h-2Z"/><path class="cls-15" d="M655.11,457.18H657v2.48c.41-1.74,1.65-2.55,3.61-2.55h.28v1.94h-.39c-2.09,0-3.37,1.29-3.37,4v5.46h-2Z"/><path class="cls-15" d="M662.94,463.8v-1.74c0-3.08,1.77-5.15,5-5.15s4.86,2.16,4.86,4.93v1.76h-7.9v.4a2.93,2.93,0,0,0,2.57,3.25,3.25,3.25,0,0,0,.54,0,2.79,2.79,0,0,0,2.9-2h1.8a4.56,4.56,0,0,1-4.7,3.5C665,468.75,662.94,466.88,662.94,463.8Zm8-1.7v-.46c0-1.85-.94-3.23-3-3.23-2.22,0-3,1.47-3,3.41v.28Z"/><path class="cls-15" d="M675.75,465.18v-.13h1.83v.09c0,1.28,1.18,2.11,2.92,2.11s2.77-.63,2.77-1.91a1.43,1.43,0,0,0-1.27-1.43l-3.37-.77c-1.67-.38-2.64-1.34-2.64-2.91,0-2.17,1.83-3.32,4.38-3.32s4.27,1.41,4.27,3.54v.14h-1.83v-.09c0-1.26-.88-2.09-2.44-2.09s-2.49.59-2.49,1.74a1.28,1.28,0,0,0,1.1,1.32l3.46.81c1.74.42,2.73,1.3,2.73,2.9,0,2.07-2,3.57-4.69,3.57S675.75,467.43,675.75,465.18Z"/><path class="cls-15" d="M688.4,452.42h2v6.38a3.79,3.79,0,0,1,3.55-1.89c2.53,0,4.11,1.7,4.11,4.4v7.18h-2v-6.87c0-1.74-.82-2.95-2.69-2.95a2.83,2.83,0,0,0-3,2.67,3.85,3.85,0,0,0,0,.48v6.67h-2Z"/><path class="cls-15" d="M701.4,463.73v-1.8a5.13,5.13,0,0,1,10.25,0v1.8a5.13,5.13,0,0,1-10.25,0Zm8.3,0v-1.85c0-2-1.08-3.39-3.17-3.39s-3.15,1.41-3.15,3.39v1.85c0,1.95,1.08,3.36,3.15,3.36a3,3,0,0,0,3.17-3.33Z"/><path class="cls-15" d="M715.15,452.42h2v16.07h-2Z"/><path class="cls-15" d="M720.69,463.71V462c0-2.88,1.79-5,4.69-5a4.11,4.11,0,0,1,3.63,1.81v-6.3h2v16.07h-1.94v-1.65a4.11,4.11,0,0,1-3.69,1.91C722.43,468.75,720.69,466.51,720.69,463.71Zm8.32-.18V462a3.2,3.2,0,0,0-2.93-3.45h-.26c-2,0-3.1,1.52-3.1,3.48v1.58c0,1.92.95,3.48,3.12,3.48s3.16-1.52,3.16-3.55Z"/><rect class="cls-16" x="239.33" y="149.93" width="209.51" height="420"/><line class="cls-17" x1="328.66" y1="149.93" x2="328.66" y2="154.93"/><line class="cls-18" x1="328.66" y1="159.93" x2="328.66" y2="562.16"/><line class="cls-17" x1="328.66" y1="564.66" x2="328.66" y2="569.66"/><line class="cls-19" x1="470.64" y1="461.49" x2="345.95" y2="461.49"/><polygon class="cls-15" points="348.92 457.13 332.66 461.49 348.92 465.84 348.92 457.13"/><line class="cls-20" x1="470.64" y1="239.43" x2="427.16" y2="239.43"/><polygon class="cls-14" points="430.13 235.07 413.87 239.43 430.13 243.79 430.13 235.07"/><path class="cls-21" d="M328.66,149.93a20,20,0,0,1,20-20H660.51a20,20,0,0,0,20-20,20,20,0,0,0,20,20h311.85"/><path class="cls-21" d="M150,149.93a20,20,0,0,1,20-20h49.34a20,20,0,0,0,20-20,20,20,0,0,0,20,20h49.34a20,20,0,0,1,20,20"/><line class="cls-22" x1="1012.36" y1="129.93" x2="1109.96" y2="129.93"/></svg>